<svg width="687" height="618" viewBox="0 0 687 618" fill="none" xmlns="http://www.w3.org/2000/svg">
<path d="M641.831 300.083C641.831 465.815 507.48 600.166 341.748 600.166C176.017 600.166 41.665 465.815 41.665 300.083C41.665 134.352 176.017 0 341.748 0C507.48 0 641.831 134.352 641.831 300.083Z" fill="#089D94"/>
<path fill-rule="evenodd" clip-rule="evenodd" d="M401.627 296.684C401.704 296.666 401.78 296.647 401.857 296.626C405.844 295.558 408.209 291.46 407.141 287.474C406.073 283.487 401.975 281.121 397.989 282.19C397.912 282.21 397.836 282.232 397.761 282.255L398.58 285.312C398.655 285.288 398.731 285.265 398.808 285.245C401.107 284.629 403.47 285.993 404.086 288.292C404.702 290.592 403.338 292.955 401.039 293.571C400.962 293.592 400.885 293.61 400.808 293.626L401.627 296.684Z" fill="#996633"/>
<path d="M393.499 229.845C393.008 230.262 392.638 230.543 392.147 230.961C384.573 285.992 396.127 340.166 422.724 386.095C449.609 432.381 491.658 470.285 544.783 492.422L599.683 303.978C596.2 301.091 593.328 297.652 590.936 293.67C590.173 292.213 589.409 290.757 588.776 289.291C587.667 286.724 586.938 284.002 586.349 281.395L393.499 229.845ZM487.9 351.967L449.713 333.972L484.155 266.49L522.342 284.485L487.9 351.967Z" fill="#DCA432"/>
<path fill-rule="evenodd" clip-rule="evenodd" d="M392.721 230.279C392.693 229.902 392.784 229.389 392.885 229.003L137.622 476.081C141.341 481.526 140.856 489.357 140.413 496.502C139.842 505.725 139.342 513.802 148.048 514.12C155.763 514.41 163.027 516.101 170.313 517.797C177.497 519.469 184.701 521.146 192.377 521.488C201.029 521.804 199.894 533.745 198.692 546.385C197.748 556.318 196.763 566.683 200.455 572.177L260.631 558.139C260.382 556.95 260.173 555.756 260.001 554.559L545.099 492.003C491.997 469.876 449.968 431.985 423.096 385.715C396.513 339.801 384.966 285.643 392.541 230.626C390.36 232.373 388.203 234.193 386.078 236.08C388.207 234.057 390.421 232.12 392.721 230.279Z" fill="#6B540E"/>
<path d="M657.753 259.829C669.575 280.179 661.984 306.186 640.879 317.775C624.292 326.803 604.264 324.357 590.707 313.12C586.898 309.963 583.758 306.202 581.143 301.848C580.309 300.255 579.474 298.663 578.782 297.059C577.57 294.253 576.773 291.276 576.128 288.426C572.96 271.13 581.298 253.077 598.017 243.901C619.121 232.312 645.921 239.341 657.753 259.829Z" fill="#662527"/>
<path d="M459.12 261.33L436.74 360.131L514.808 376.144L537.187 277.343L459.12 261.33Z" fill="white"/>
<path d="M485.139 291.823L473.653 342.531L520.252 352.089L531.738 301.381L485.139 291.823Z" fill="black"/>
<path d="M125.184 304.656C124.962 304.959 124.843 305.333 124.622 305.636C133.644 343.154 154.856 375.353 183.731 398.537C212.914 421.932 249.805 436.04 289.906 437.338L277.994 301.941C275.014 300.969 272.199 299.351 269.679 297.329C268.829 296.598 267.98 295.867 267.204 295.035C265.784 293.612 264.615 292.056 263.622 290.47L125.184 304.656ZM217.404 360.451L188.035 358.141L193.37 306.025L222.739 308.334L217.404 360.451Z" fill="#DCA432"/>
<path d="M125.072 303.962C125.129 304.303 125.26 304.543 125.317 304.884C112.159 327.291 112.337 356.382 116.921 381.539C121.664 407.106 129.304 432.688 126.319 458.565C124.532 473.792 159.772 462.213 150.476 472.983C142.515 482.207 111.501 467.366 119.792 480.115L115.874 506.617C107.264 500.591 113.22 506.316 103.007 509.608C92.8952 512.969 100.895 482.484 90.7833 485.845C105.972 464.18 51.3051 452.4 42.6207 446.475L125.072 303.962Z" fill="#7D6212"/>
<path d="M125.568 304.9C134.579 342.365 155.763 374.518 184.601 397.67C213.746 421.031 250.589 435.119 290.639 436.416L134.026 525.365C125.711 512.581 98.0378 503.926 100.769 488.844C103.573 473.66 99.2445 472.07 101.037 456.801C104.105 430.753 100.743 427.882 95.9121 402.346C91.1839 376.879 112.372 327.368 125.568 304.9Z" fill="#7D6212"/>
<path d="M308.254 256.36C323.175 268.27 325.086 289.966 312.561 304.7C302.736 316.274 286.875 320.076 273.418 315.514C269.635 314.279 266.06 312.225 262.86 309.657C261.781 308.729 260.702 307.801 259.717 306.744C257.914 304.937 256.429 302.962 255.168 300.947C247.825 288.82 248.634 273.02 258.553 261.318C270.985 246.712 293.203 244.362 308.254 256.36Z" fill="#662527"/>
<path d="M174.98 308.924L185.71 377.663L241.105 369.1L230.375 300.361L174.98 308.924Z" fill="white"/>
<path fill-rule="evenodd" clip-rule="evenodd" d="M357.2 388.147C357.351 388.112 357.502 388.074 357.653 388.033C365.507 385.929 370.168 377.856 368.064 370.002C365.959 362.148 357.886 357.487 350.032 359.592C349.881 359.632 349.732 359.675 349.583 359.72L350.473 363.04C350.621 362.994 350.77 362.951 350.922 362.91C356.943 361.297 363.132 364.87 364.745 370.891C366.359 376.913 362.785 383.102 356.764 384.715C356.613 384.755 356.462 384.793 356.31 384.827L357.2 388.147Z" fill="#996633"/>
<path fill-rule="evenodd" clip-rule="evenodd" d="M155.842 412.537C155.946 412.422 156.049 412.305 156.15 412.186C161.404 405.98 160.633 396.69 154.427 391.436C148.222 386.182 138.932 386.954 133.678 393.159C133.577 393.278 133.478 393.399 133.382 393.52L136.005 395.742C136.1 395.619 136.199 395.498 136.3 395.379C140.328 390.622 147.45 390.03 152.207 394.058C156.965 398.086 157.556 405.208 153.528 409.966C153.427 410.085 153.324 410.202 153.219 410.316L155.842 412.537Z" fill="#996633"/>
<path fill-rule="evenodd" clip-rule="evenodd" d="M119.747 367.02C119.799 366.962 119.849 366.904 119.9 366.845C122.509 363.763 122.126 359.149 119.044 356.54C115.962 353.93 111.348 354.313 108.739 357.395C108.689 357.454 108.64 357.514 108.592 357.575L111.216 359.797C111.262 359.735 111.31 359.675 111.361 359.615C112.744 357.981 115.19 357.778 116.824 359.162C118.458 360.545 118.661 362.991 117.278 364.625C117.227 364.684 117.176 364.742 117.123 364.798L119.747 367.02Z" fill="#996633"/>
<path fill-rule="evenodd" clip-rule="evenodd" d="M363.039 425.621C363.129 425.6 363.218 425.577 363.308 425.553C367.971 424.304 370.738 419.511 369.488 414.849C368.239 410.186 363.446 407.419 358.784 408.668C358.694 408.692 358.605 408.718 358.517 408.744L359.407 412.066C359.494 412.037 359.583 412.011 359.673 411.987C362.503 411.229 365.411 412.908 366.17 415.738C366.928 418.568 365.249 421.477 362.419 422.235C362.329 422.259 362.239 422.281 362.149 422.3L363.039 425.621Z" fill="#996633"/>
<path fill-rule="evenodd" clip-rule="evenodd" d="M387.529 454.694C387.68 454.659 387.831 454.621 387.982 454.58C395.836 452.476 400.497 444.403 398.393 436.549C396.288 428.695 388.215 424.034 380.362 426.139C380.211 426.179 380.061 426.222 379.912 426.267L380.802 429.587C380.95 429.541 381.1 429.498 381.251 429.457C387.272 427.844 393.461 431.417 395.074 437.438C396.688 443.459 393.114 449.648 387.093 451.262C386.942 451.302 386.791 451.34 386.639 451.374L387.529 454.694Z" fill="#996633"/>
<path fill-rule="evenodd" clip-rule="evenodd" d="M332.248 418.483C332.399 418.448 332.55 418.41 332.701 418.369C340.555 416.265 345.216 408.192 343.111 400.338C341.007 392.484 332.934 387.823 325.08 389.928C324.929 389.968 324.779 390.011 324.631 390.056L325.521 393.376C325.669 393.33 325.818 393.287 325.969 393.246C331.991 391.633 338.18 395.206 339.793 401.227C341.406 407.248 337.833 413.437 331.812 415.051C331.661 415.091 331.509 415.129 331.358 415.163L332.248 418.483Z" fill="#996633"/>
<path fill-rule="evenodd" clip-rule="evenodd" d="M152.627 451.7C152.731 451.584 152.834 451.467 152.935 451.348C158.189 445.142 157.418 435.852 151.212 430.598C145.007 425.344 135.717 426.116 130.463 432.321C130.362 432.44 130.263 432.561 130.167 432.682L132.79 434.904C132.886 434.781 132.984 434.66 133.085 434.541C137.113 429.784 144.235 429.192 148.992 433.22C153.75 437.248 154.341 444.37 150.313 449.128C150.212 449.247 150.109 449.364 150.004 449.478L152.627 451.7Z" fill="#996633"/>
<path fill-rule="evenodd" clip-rule="evenodd" d="M305.803 390.177C306.079 390.112 306.355 390.042 306.631 389.969C320.974 386.125 329.485 371.383 325.642 357.04C321.799 342.698 307.057 334.186 292.714 338.029C292.438 338.103 292.165 338.181 291.893 338.263L292.783 341.583C293.054 341.5 293.327 341.422 293.603 341.348C306.113 337.996 318.972 345.419 322.324 357.929C325.676 370.439 318.252 383.298 305.742 386.65C305.466 386.724 305.19 386.793 304.914 386.856L305.803 390.177Z" fill="#996633"/>
<path fill-rule="evenodd" clip-rule="evenodd" d="M114.762 443.503C114.952 443.293 115.139 443.078 115.324 442.86C124.918 431.528 123.51 414.563 112.178 404.969C100.845 395.374 83.8807 396.782 74.2858 408.114C74.1013 408.332 73.9209 408.552 73.7445 408.774L76.3679 410.995C76.5432 410.773 76.7231 410.552 76.9077 410.334C85.2766 400.45 100.074 399.222 109.958 407.59C119.842 415.959 121.07 430.756 112.702 440.641C112.517 440.859 112.329 441.072 112.139 441.282L114.762 443.503Z" fill="#996633"/>
<path fill-rule="evenodd" clip-rule="evenodd" d="M214.952 452.544C215.009 452.48 215.066 452.416 215.121 452.35C218.018 448.929 217.593 443.807 214.172 440.91C210.75 438.014 205.629 438.439 202.732 441.86C202.676 441.926 202.622 441.992 202.568 442.059L205.193 444.281C205.244 444.213 205.298 444.146 205.354 444.08C207.024 442.107 209.978 441.862 211.952 443.532C213.925 445.203 214.17 448.157 212.499 450.13C212.443 450.196 212.386 450.26 212.328 450.322L214.952 452.544Z" fill="#996633"/>
<path fill-rule="evenodd" clip-rule="evenodd" d="M308.973 450.931C309.056 450.911 309.14 450.89 309.223 450.868C313.553 449.708 316.123 445.257 314.962 440.927C313.802 436.597 309.351 434.027 305.021 435.187C304.938 435.21 304.855 435.233 304.773 435.258L305.663 438.579C305.745 438.553 305.827 438.528 305.91 438.506C308.408 437.836 310.975 439.319 311.644 441.816C312.313 444.313 310.831 446.88 308.334 447.549C308.25 447.572 308.167 447.592 308.083 447.609L308.973 450.931Z" fill="#996633"/>
<path fill-rule="evenodd" clip-rule="evenodd" d="M151.998 491.608C152.055 491.545 152.111 491.48 152.167 491.414C155.064 487.993 154.639 482.871 151.217 479.975C147.796 477.078 142.675 477.503 139.778 480.924C139.722 480.99 139.668 481.057 139.614 481.124L142.239 483.346C142.29 483.277 142.344 483.21 142.4 483.144C144.07 481.171 147.024 480.926 148.997 482.597C150.971 484.267 151.216 487.221 149.545 489.194C149.489 489.26 149.432 489.324 149.373 489.387L151.998 491.608Z" fill="#996633"/>
<path fill-rule="evenodd" clip-rule="evenodd" d="M430.057 446.555C430.209 446.52 430.36 446.482 430.511 446.442C438.365 444.337 443.025 436.264 440.921 428.41C438.817 420.557 430.744 415.896 422.89 418C422.739 418.041 422.589 418.083 422.44 418.128L423.33 421.449C423.478 421.402 423.628 421.359 423.779 421.319C429.8 419.705 435.989 423.278 437.603 429.3C439.216 435.321 435.643 441.51 429.622 443.123C429.47 443.164 429.319 443.201 429.168 443.235L430.057 446.555Z" fill="#996633"/>
<path d="M204.284 327.453L209.259 359.846L238.796 354.689L233.821 322.296L204.284 327.453Z" fill="black"/>
<path d="M666.357 431.237L505.228 580.473L472.216 608.376L212.224 608.822L177.378 581.186L127.424 535.541L12.7549 430.613L136.069 444.788L184.278 450.226L261.568 459.052L296.938 463.063H297.2L346.718 468.769L415.361 460.3L438.243 457.447L616.49 435.427L645.747 431.772L659.72 430.078L666.357 431.237Z" fill="#996633"/>
<path d="M0.310547 617.885H686.311V588.693H0.310547V617.885Z" fill="#089D94"/>
</svg>
