<svg width="756" height="180" viewBox="0 0 756 180" fill="none" xmlns="http://www.w3.org/2000/svg">
<path d="M136.355 178L114.091 143.592L92.3795 178L42.8835 178L89.4355 113.048L44.5395 49.2L93.2995 49.2L115.195 81.584L136.539 49.2L183.275 49.2L138.563 111.392L186.035 178L136.355 178ZM327.061 49.2L272.597 178L229.909 178L175.445 49.2L222.181 49.2L252.909 124.456L284.373 49.2L327.061 49.2ZM331.383 49.2L374.807 49.2L374.807 178L331.383 178L331.383 49.2ZM395.711 49.2L439.135 49.2L439.135 178L395.711 178L395.711 49.2ZM460.039 49.2L503.463 49.2L503.463 178L460.039 178L460.039 49.2ZM664.355 125.192C675.395 129.363 680.915 137.152 680.915 148.56C680.915 157.76 677.296 164.997 670.059 170.272C662.822 175.424 652.211 178 638.227 178L578.795 178L578.795 77.352L635.283 77.352C648.776 77.352 659.264 79.6827 666.747 84.344C674.23 88.8827 677.971 95.3227 677.971 103.664C677.971 108.325 676.806 112.496 674.475 116.176C672.144 119.856 668.771 122.861 664.355 125.192ZM615.227 117.096L631.603 117.096C637.614 117.096 640.619 114.704 640.619 109.92C640.619 107.589 639.883 105.872 638.411 104.768C637.062 103.664 634.792 103.112 631.603 103.112L615.227 103.112V117.096ZM634.547 152.24C640.558 152.24 643.563 149.725 643.563 144.696C643.563 139.912 640.558 137.52 634.547 137.52L615.227 137.52V152.24L634.547 152.24ZM712.73 179.84C705.738 179.84 699.911 177.632 695.25 173.216C690.711 168.677 688.442 162.912 688.442 155.92C688.442 148.928 690.711 143.285 695.25 138.992C699.911 134.576 705.738 132.368 712.73 132.368C719.722 132.368 725.487 134.576 730.026 138.992C734.687 143.285 737.018 148.928 737.018 155.92C737.018 162.912 734.687 168.677 730.026 173.216C725.487 177.632 719.722 179.84 712.73 179.84Z" fill="#2DC8C2"/>
<path d="M107.355 178L85.0915 143.592L63.3795 178L13.8835 178L60.4355 113.048L15.5395 49.2L64.2995 49.2L86.1955 81.584L107.539 49.2L154.275 49.2L109.563 111.392L157.035 178L107.355 178ZM298.061 49.2L243.597 178L200.909 178L146.445 49.2L193.181 49.2L223.909 124.456L255.373 49.2L298.061 49.2ZM302.383 49.2L345.807 49.2L345.807 178L302.383 178L302.383 49.2ZM366.711 49.2L410.135 49.2L410.135 178L366.711 178L366.711 49.2ZM431.039 49.2L474.463 49.2L474.463 178L431.039 178L431.039 49.2ZM635.355 125.192C646.395 129.363 651.915 137.152 651.915 148.56C651.915 157.76 648.296 164.997 641.059 170.272C633.822 175.424 623.211 178 609.227 178L549.795 178L549.795 77.352L606.283 77.352C619.776 77.352 630.264 79.6827 637.747 84.344C645.23 88.8827 648.971 95.3227 648.971 103.664C648.971 108.325 647.806 112.496 645.475 116.176C643.144 119.856 639.771 122.861 635.355 125.192ZM586.227 117.096L602.603 117.096C608.614 117.096 611.619 114.704 611.619 109.92C611.619 107.589 610.883 105.872 609.411 104.768C608.062 103.664 605.792 103.112 602.603 103.112L586.227 103.112V117.096ZM605.547 152.24C611.558 152.24 614.563 149.725 614.563 144.696C614.563 139.912 611.558 137.52 605.547 137.52L586.227 137.52V152.24L605.547 152.24ZM683.73 179.84C676.738 179.84 670.911 177.632 666.25 173.216C661.711 168.677 659.442 162.912 659.442 155.92C659.442 148.928 661.711 143.285 666.25 138.992C670.911 134.576 676.738 132.368 683.73 132.368C690.722 132.368 696.487 134.576 701.026 138.992C705.687 143.285 708.018 148.928 708.018 155.92C708.018 162.912 705.687 168.677 701.026 173.216C696.487 177.632 690.722 179.84 683.73 179.84Z" fill="#D73042"/>
<g style="mix-blend-mode:multiply">
<path d="M136.355 178L114.091 143.592L92.3795 178L42.8835 178L89.4355 113.048L44.5395 49.2L93.2995 49.2L115.195 81.584L136.539 49.2L183.275 49.2L138.563 111.392L186.035 178L136.355 178ZM327.061 49.2L272.597 178L229.909 178L175.445 49.2L222.181 49.2L252.909 124.456L284.373 49.2L327.061 49.2ZM331.383 49.2L374.807 49.2L374.807 178L331.383 178L331.383 49.2ZM395.711 49.2L439.135 49.2L439.135 178L395.711 178L395.711 49.2ZM460.039 49.2L503.463 49.2L503.463 178L460.039 178L460.039 49.2ZM664.355 125.192C675.395 129.363 680.915 137.152 680.915 148.56C680.915 157.76 677.296 164.997 670.059 170.272C662.822 175.424 652.211 178 638.227 178L578.795 178L578.795 77.352L635.283 77.352C648.776 77.352 659.264 79.6827 666.747 84.344C674.23 88.8827 677.971 95.3227 677.971 103.664C677.971 108.325 676.806 112.496 674.475 116.176C672.144 119.856 668.771 122.861 664.355 125.192ZM615.227 117.096L631.603 117.096C637.614 117.096 640.619 114.704 640.619 109.92C640.619 107.589 639.883 105.872 638.411 104.768C637.062 103.664 634.792 103.112 631.603 103.112L615.227 103.112V117.096ZM634.547 152.24C640.558 152.24 643.563 149.725 643.563 144.696C643.563 139.912 640.558 137.52 634.547 137.52L615.227 137.52V152.24L634.547 152.24ZM712.73 179.84C705.738 179.84 699.911 177.632 695.25 173.216C690.711 168.677 688.442 162.912 688.442 155.92C688.442 148.928 690.711 143.285 695.25 138.992C699.911 134.576 705.738 132.368 712.73 132.368C719.722 132.368 725.487 134.576 730.026 138.992C734.687 143.285 737.018 148.928 737.018 155.92C737.018 162.912 734.687 168.677 730.026 173.216C725.487 177.632 719.722 179.84 712.73 179.84Z" fill="#D73042"/>
</g>
</svg>
