<svg width="727" height="224" viewBox="0 0 727 224" fill="none" xmlns="http://www.w3.org/2000/svg">
<path d="M265.619 49.2L265.619 178L222.195 178L222.195 81.952L200.115 81.952L200.115 49.2L265.619 49.2ZM330.566 46.256C342.955 46.256 353.75 48.648 362.95 53.432C372.272 58.216 379.51 65.3307 384.662 74.776C389.814 84.2213 392.39 95.8133 392.39 109.552C392.39 124.272 389.384 137.029 383.374 147.824C377.486 158.619 369.144 166.837 358.35 172.48C347.678 178.123 335.227 180.944 320.998 180.944C313.27 180.944 305.91 180.024 298.918 178.184C291.926 176.467 285.976 174.013 281.07 170.824L296.71 140.464C303.088 145.003 310.878 147.272 320.078 147.272C327.56 147.272 333.694 145.432 338.478 141.752C343.384 137.949 346.574 132.491 348.046 125.376C341.299 130.16 332.774 132.552 322.47 132.552C314.619 132.552 307.32 130.835 300.574 127.4C293.827 123.965 288.43 119.12 284.382 112.864C280.334 106.608 278.31 99.432 278.31 91.336C278.31 82.3813 280.579 74.4693 285.118 67.6C289.779 60.7307 296.096 55.456 304.07 51.776C312.043 48.096 320.875 46.256 330.566 46.256ZM333.51 102.56C337.435 102.56 340.624 101.395 343.078 99.064C345.531 96.6107 346.758 93.36 346.758 89.312C346.758 85.264 345.531 82.0747 343.078 79.744C340.624 77.4133 337.435 76.248 333.51 76.248C329.584 76.248 326.395 77.4133 323.942 79.744C321.488 82.0747 320.262 85.264 320.262 89.312C320.262 93.36 321.488 96.6107 323.942 99.064C326.395 101.395 329.584 102.56 333.51 102.56ZM462.377 49.2L462.377 178L418.953 178L418.953 81.952L396.873 81.952V49.2L462.377 49.2ZM581.235 144.328V178L478.011 178V151.32L524.563 108.264C528.611 104.461 531.31 101.211 532.659 98.512C534.009 95.8133 534.683 93.176 534.683 90.6C534.683 87.4107 533.579 84.9573 531.371 83.24C529.286 81.4 526.219 80.48 522.171 80.48C518.246 80.48 514.566 81.5227 511.131 83.608C507.697 85.6933 505.059 88.6373 503.219 92.44L470.467 76.064C475.374 66.864 482.55 59.6267 491.995 54.352C501.441 48.9547 512.849 46.256 526.219 46.256C536.401 46.256 545.417 47.912 553.267 51.224C561.118 54.536 567.251 59.2587 571.667 65.392C576.083 71.5253 578.291 78.5787 578.291 86.552C578.291 93.6667 576.758 100.352 573.691 106.608C570.747 112.741 564.921 119.733 556.211 127.584L537.811 144.328L581.235 144.328Z" fill="#2DC8C2"/>
<path d="M237.119 49.2L237.119 178L193.695 178L193.695 81.952L171.615 81.952L171.615 49.2L237.119 49.2ZM302.066 46.256C314.455 46.256 325.25 48.648 334.45 53.432C343.772 58.216 351.01 65.3307 356.162 74.776C361.314 84.2213 363.89 95.8133 363.89 109.552C363.89 124.272 360.884 137.029 354.874 147.824C348.986 158.619 340.644 166.837 329.85 172.48C319.178 178.123 306.727 180.944 292.498 180.944C284.77 180.944 277.41 180.024 270.418 178.184C263.426 176.467 257.476 174.013 252.57 170.824L268.21 140.464C274.588 145.003 282.378 147.272 291.578 147.272C299.06 147.272 305.194 145.432 309.978 141.752C314.884 137.949 318.074 132.491 319.546 125.376C312.799 130.16 304.274 132.552 293.97 132.552C286.119 132.552 278.82 130.835 272.074 127.4C265.327 123.965 259.93 119.12 255.882 112.864C251.834 106.608 249.81 99.432 249.81 91.336C249.81 82.3813 252.079 74.4693 256.618 67.6C261.279 60.7307 267.596 55.456 275.57 51.776C283.543 48.096 292.375 46.256 302.066 46.256ZM305.01 102.56C308.935 102.56 312.124 101.395 314.578 99.064C317.031 96.6107 318.258 93.36 318.258 89.312C318.258 85.264 317.031 82.0747 314.578 79.744C312.124 77.4133 308.935 76.248 305.01 76.248C301.084 76.248 297.895 77.4133 295.442 79.744C292.988 82.0747 291.762 85.264 291.762 89.312C291.762 93.36 292.988 96.6107 295.442 99.064C297.895 101.395 301.084 102.56 305.01 102.56ZM433.877 49.2L433.877 178L390.453 178L390.453 81.952L368.373 81.952L368.373 49.2L433.877 49.2ZM552.735 144.328L552.735 178L449.511 178V151.32L496.063 108.264C500.111 104.461 502.81 101.211 504.159 98.512C505.509 95.8133 506.183 93.176 506.183 90.6C506.183 87.4107 505.079 84.9573 502.871 83.24C500.786 81.4 497.719 80.48 493.671 80.48C489.746 80.48 486.066 81.5227 482.631 83.608C479.197 85.6933 476.559 88.6373 474.719 92.44L441.967 76.064C446.874 66.864 454.05 59.6267 463.495 54.352C472.941 48.9547 484.349 46.256 497.719 46.256C507.901 46.256 516.917 47.912 524.767 51.224C532.618 54.536 538.751 59.2587 543.167 65.392C547.583 71.5253 549.791 78.5787 549.791 86.552C549.791 93.6667 548.258 100.352 545.191 106.608C542.247 112.741 536.421 119.733 527.711 127.584L509.311 144.328L552.735 144.328Z" fill="#D73042"/>
<g style="mix-blend-mode:multiply">
<path d="M265.619 49.2L265.619 178L222.195 178L222.195 81.952L200.115 81.952L200.115 49.2L265.619 49.2ZM330.566 46.256C342.955 46.256 353.75 48.648 362.95 53.432C372.272 58.216 379.51 65.3307 384.662 74.776C389.814 84.2213 392.39 95.8133 392.39 109.552C392.39 124.272 389.384 137.029 383.374 147.824C377.486 158.619 369.144 166.837 358.35 172.48C347.678 178.123 335.227 180.944 320.998 180.944C313.27 180.944 305.91 180.024 298.918 178.184C291.926 176.467 285.976 174.013 281.07 170.824L296.71 140.464C303.088 145.003 310.878 147.272 320.078 147.272C327.56 147.272 333.694 145.432 338.478 141.752C343.384 137.949 346.574 132.491 348.046 125.376C341.299 130.16 332.774 132.552 322.47 132.552C314.619 132.552 307.32 130.835 300.574 127.4C293.827 123.965 288.43 119.12 284.382 112.864C280.334 106.608 278.31 99.432 278.31 91.336C278.31 82.3813 280.579 74.4693 285.118 67.6C289.779 60.7307 296.096 55.456 304.07 51.776C312.043 48.096 320.875 46.256 330.566 46.256ZM333.51 102.56C337.435 102.56 340.624 101.395 343.078 99.064C345.531 96.6107 346.758 93.36 346.758 89.312C346.758 85.264 345.531 82.0747 343.078 79.744C340.624 77.4133 337.435 76.248 333.51 76.248C329.584 76.248 326.395 77.4133 323.942 79.744C321.488 82.0747 320.262 85.264 320.262 89.312C320.262 93.36 321.488 96.6107 323.942 99.064C326.395 101.395 329.584 102.56 333.51 102.56ZM462.377 49.2L462.377 178L418.953 178L418.953 81.952L396.873 81.952V49.2L462.377 49.2ZM581.235 144.328V178L478.011 178V151.32L524.563 108.264C528.611 104.461 531.31 101.211 532.659 98.512C534.009 95.8133 534.683 93.176 534.683 90.6C534.683 87.4107 533.579 84.9573 531.371 83.24C529.286 81.4 526.219 80.48 522.171 80.48C518.246 80.48 514.566 81.5227 511.131 83.608C507.697 85.6933 505.059 88.6373 503.219 92.44L470.467 76.064C475.374 66.864 482.55 59.6267 491.995 54.352C501.441 48.9547 512.849 46.256 526.219 46.256C536.401 46.256 545.417 47.912 553.267 51.224C561.118 54.536 567.251 59.2587 571.667 65.392C576.083 71.5253 578.291 78.5787 578.291 86.552C578.291 93.6667 576.758 100.352 573.691 106.608C570.747 112.741 564.921 119.733 556.211 127.584L537.811 144.328L581.235 144.328Z" fill="#D73042"/>
</g>
</svg>
