<svg width="727" height="224" viewBox="0 0 727 224" fill="none" xmlns="http://www.w3.org/2000/svg">
<path d="M234.444 49.2L234.444 178L191.02 178L191.02 81.952L168.94 81.952L168.94 49.2L234.444 49.2ZM347.782 110.104C353.302 113.539 357.534 117.771 360.478 122.8C363.544 127.707 365.078 133.349 365.078 139.728C365.078 147.947 362.624 155.184 357.718 161.44C352.934 167.696 346.126 172.541 337.294 175.976C328.584 179.288 318.587 180.944 307.302 180.944C296.016 180.944 285.958 179.288 277.126 175.976C268.416 172.541 261.608 167.696 256.702 161.44C251.918 155.184 249.526 147.947 249.526 139.728C249.526 133.349 250.998 127.707 253.942 122.8C257.008 117.771 261.302 113.539 266.822 110.104C258.358 103.357 254.126 94.8933 254.126 84.712C254.126 76.984 256.334 70.2373 260.75 64.472C265.288 58.7067 271.544 54.2293 279.518 51.04C287.614 47.8507 296.875 46.256 307.302 46.256C317.728 46.256 326.928 47.8507 334.902 51.04C342.998 54.2293 349.254 58.7067 353.67 64.472C358.208 70.2373 360.478 76.984 360.478 84.712C360.478 94.8933 356.246 103.357 347.782 110.104ZM307.302 75.512C304.235 75.512 301.72 76.4933 299.758 78.456C297.918 80.4187 296.998 83.1173 296.998 86.552C296.998 89.9867 297.918 92.6853 299.758 94.648C301.72 96.6107 304.235 97.592 307.302 97.592C310.368 97.592 312.822 96.6107 314.662 94.648C316.624 92.6853 317.606 89.9867 317.606 86.552C317.606 83.1173 316.624 80.4187 314.662 78.456C312.822 76.4933 310.368 75.512 307.302 75.512ZM307.302 151.688C311.472 151.688 314.846 150.461 317.422 148.008C320.12 145.555 321.47 142.304 321.47 138.256C321.47 134.208 320.12 130.957 317.422 128.504C314.846 126.051 311.472 124.824 307.302 124.824C303.131 124.824 299.696 126.051 296.998 128.504C294.422 130.957 293.134 134.208 293.134 138.256C293.134 142.304 294.422 145.555 296.998 148.008C299.696 150.461 303.131 151.688 307.302 151.688ZM472.485 110.104C478.005 113.539 482.237 117.771 485.181 122.8C488.248 127.707 489.781 133.349 489.781 139.728C489.781 147.947 487.328 155.184 482.421 161.44C477.637 167.696 470.829 172.541 461.997 175.976C453.288 179.288 443.29 180.944 432.005 180.944C420.72 180.944 410.661 179.288 401.829 175.976C393.12 172.541 386.312 167.696 381.405 161.44C376.621 155.184 374.229 147.947 374.229 139.728C374.229 133.349 375.701 127.707 378.645 122.8C381.712 117.771 386.005 113.539 391.525 110.104C383.061 103.357 378.829 94.8933 378.829 84.712C378.829 76.984 381.037 70.2373 385.453 64.472C389.992 58.7067 396.248 54.2293 404.221 51.04C412.317 47.8507 421.578 46.256 432.005 46.256C442.432 46.256 451.632 47.8507 459.605 51.04C467.701 54.2293 473.957 58.7067 478.373 64.472C482.912 70.2373 485.181 76.984 485.181 84.712C485.181 94.8933 480.949 103.357 472.485 110.104ZM432.005 75.512C428.938 75.512 426.424 76.4933 424.461 78.456C422.621 80.4187 421.701 83.1173 421.701 86.552C421.701 89.9867 422.621 92.6853 424.461 94.648C426.424 96.6107 428.938 97.592 432.005 97.592C435.072 97.592 437.525 96.6107 439.365 94.648C441.328 92.6853 442.309 89.9867 442.309 86.552C442.309 83.1173 441.328 80.4187 439.365 78.456C437.525 76.4933 435.072 75.512 432.005 75.512ZM432.005 151.688C436.176 151.688 439.549 150.461 442.125 148.008C444.824 145.555 446.173 142.304 446.173 138.256C446.173 134.208 444.824 130.957 442.125 128.504C439.549 126.051 436.176 124.824 432.005 124.824C427.834 124.824 424.4 126.051 421.701 128.504C419.125 130.957 417.837 134.208 417.837 138.256C417.837 142.304 419.125 145.555 421.701 148.008C424.4 150.461 427.834 151.688 432.005 151.688ZM548.796 46.256C561.185 46.256 571.98 48.648 581.18 53.432C590.503 58.216 597.74 65.3307 602.892 74.776C608.044 84.2213 610.62 95.8133 610.62 109.552C610.62 124.272 607.615 137.029 601.604 147.824C595.716 158.619 587.375 166.837 576.58 172.48C565.908 178.123 553.457 180.944 539.228 180.944C531.5 180.944 524.14 180.024 517.148 178.184C510.156 176.467 504.207 174.013 499.3 170.824L514.94 140.464C521.319 145.003 529.108 147.272 538.308 147.272C545.791 147.272 551.924 145.432 556.708 141.752C561.615 137.949 564.804 132.491 566.276 125.376C559.529 130.16 551.004 132.552 540.7 132.552C532.849 132.552 525.551 130.835 518.804 127.4C512.057 123.965 506.66 119.12 502.612 112.864C498.564 106.608 496.54 99.432 496.54 91.336C496.54 82.3813 498.809 74.4693 503.348 67.6C508.009 60.7307 514.327 55.456 522.3 51.776C530.273 48.096 539.105 46.256 548.796 46.256ZM551.74 102.56C555.665 102.56 558.855 101.395 561.308 99.064C563.761 96.6107 564.988 93.36 564.988 89.312C564.988 85.264 563.761 82.0747 561.308 79.744C558.855 77.4133 555.665 76.248 551.74 76.248C547.815 76.248 544.625 77.4133 542.172 79.744C539.719 82.0747 538.492 85.264 538.492 89.312C538.492 93.36 539.719 96.6107 542.172 99.064C544.625 101.395 547.815 102.56 551.74 102.56Z" fill="#2DC8C2"/>
<path d="M205.944 49.2L205.944 178L162.52 178L162.52 81.952L140.44 81.952L140.44 49.2L205.944 49.2ZM319.282 110.104C324.802 113.539 329.034 117.771 331.978 122.8C335.044 127.707 336.578 133.349 336.578 139.728C336.578 147.947 334.124 155.184 329.218 161.44C324.434 167.696 317.626 172.541 308.794 175.976C300.084 179.288 290.087 180.944 278.802 180.944C267.516 180.944 257.458 179.288 248.626 175.976C239.916 172.541 233.108 167.696 228.202 161.44C223.418 155.184 221.026 147.947 221.026 139.728C221.026 133.349 222.498 127.707 225.442 122.8C228.508 117.771 232.802 113.539 238.322 110.104C229.858 103.357 225.626 94.8933 225.626 84.712C225.626 76.984 227.834 70.2373 232.25 64.472C236.788 58.7067 243.044 54.2293 251.018 51.04C259.114 47.8507 268.375 46.256 278.802 46.256C289.228 46.256 298.428 47.8507 306.402 51.04C314.498 54.2293 320.754 58.7067 325.17 64.472C329.708 70.2373 331.978 76.984 331.978 84.712C331.978 94.8933 327.746 103.357 319.282 110.104ZM278.802 75.512C275.735 75.512 273.22 76.4933 271.258 78.456C269.418 80.4187 268.498 83.1173 268.498 86.552C268.498 89.9867 269.418 92.6853 271.258 94.648C273.22 96.6107 275.735 97.592 278.802 97.592C281.868 97.592 284.322 96.6107 286.162 94.648C288.124 92.6853 289.106 89.9867 289.106 86.552C289.106 83.1173 288.124 80.4187 286.162 78.456C284.322 76.4933 281.868 75.512 278.802 75.512ZM278.802 151.688C282.972 151.688 286.346 150.461 288.922 148.008C291.62 145.555 292.97 142.304 292.97 138.256C292.97 134.208 291.62 130.957 288.922 128.504C286.346 126.051 282.972 124.824 278.802 124.824C274.631 124.824 271.196 126.051 268.498 128.504C265.922 130.957 264.634 134.208 264.634 138.256C264.634 142.304 265.922 145.555 268.498 148.008C271.196 150.461 274.631 151.688 278.802 151.688ZM443.985 110.104C449.505 113.539 453.737 117.771 456.681 122.8C459.748 127.707 461.281 133.349 461.281 139.728C461.281 147.947 458.828 155.184 453.921 161.44C449.137 167.696 442.329 172.541 433.497 175.976C424.788 179.288 414.79 180.944 403.505 180.944C392.22 180.944 382.161 179.288 373.329 175.976C364.62 172.541 357.812 167.696 352.905 161.44C348.121 155.184 345.729 147.947 345.729 139.728C345.729 133.349 347.201 127.707 350.145 122.8C353.212 117.771 357.505 113.539 363.025 110.104C354.561 103.357 350.329 94.8933 350.329 84.712C350.329 76.984 352.537 70.2373 356.953 64.472C361.492 58.7067 367.748 54.2293 375.721 51.04C383.817 47.8507 393.078 46.256 403.505 46.256C413.932 46.256 423.132 47.8507 431.105 51.04C439.201 54.2293 445.457 58.7067 449.873 64.472C454.412 70.2373 456.681 76.984 456.681 84.712C456.681 94.8933 452.449 103.357 443.985 110.104ZM403.505 75.512C400.438 75.512 397.924 76.4933 395.961 78.456C394.121 80.4187 393.201 83.1173 393.201 86.552C393.201 89.9867 394.121 92.6853 395.961 94.648C397.924 96.6107 400.438 97.592 403.505 97.592C406.572 97.592 409.025 96.6107 410.865 94.648C412.828 92.6853 413.809 89.9867 413.809 86.552C413.809 83.1173 412.828 80.4187 410.865 78.456C409.025 76.4933 406.572 75.512 403.505 75.512ZM403.505 151.688C407.676 151.688 411.049 150.461 413.625 148.008C416.324 145.555 417.673 142.304 417.673 138.256C417.673 134.208 416.324 130.957 413.625 128.504C411.049 126.051 407.676 124.824 403.505 124.824C399.334 124.824 395.9 126.051 393.201 128.504C390.625 130.957 389.337 134.208 389.337 138.256C389.337 142.304 390.625 145.555 393.201 148.008C395.9 150.461 399.334 151.688 403.505 151.688ZM520.296 46.256C532.685 46.256 543.48 48.648 552.68 53.432C562.003 58.216 569.24 65.3307 574.392 74.776C579.544 84.2213 582.12 95.8133 582.12 109.552C582.12 124.272 579.115 137.029 573.104 147.824C567.216 158.619 558.875 166.837 548.08 172.48C537.408 178.123 524.957 180.944 510.728 180.944C503 180.944 495.64 180.024 488.648 178.184C481.656 176.467 475.707 174.013 470.8 170.824L486.44 140.464C492.819 145.003 500.608 147.272 509.808 147.272C517.291 147.272 523.424 145.432 528.208 141.752C533.115 137.949 536.304 132.491 537.776 125.376C531.029 130.16 522.504 132.552 512.2 132.552C504.349 132.552 497.051 130.835 490.304 127.4C483.557 123.965 478.16 119.12 474.112 112.864C470.064 106.608 468.04 99.432 468.04 91.336C468.04 82.3813 470.309 74.4693 474.848 67.6C479.509 60.7307 485.827 55.456 493.8 51.776C501.773 48.096 510.605 46.256 520.296 46.256ZM523.24 102.56C527.165 102.56 530.355 101.395 532.808 99.064C535.261 96.6107 536.488 93.36 536.488 89.312C536.488 85.264 535.261 82.0747 532.808 79.744C530.355 77.4133 527.165 76.248 523.24 76.248C519.315 76.248 516.125 77.4133 513.672 79.744C511.219 82.0747 509.992 85.264 509.992 89.312C509.992 93.36 511.219 96.6107 513.672 99.064C516.125 101.395 519.315 102.56 523.24 102.56Z" fill="#D73042"/>
<g style="mix-blend-mode:multiply">
<path d="M234.444 49.2L234.444 178L191.02 178L191.02 81.952L168.94 81.952L168.94 49.2L234.444 49.2ZM347.782 110.104C353.302 113.539 357.534 117.771 360.478 122.8C363.544 127.707 365.078 133.349 365.078 139.728C365.078 147.947 362.624 155.184 357.718 161.44C352.934 167.696 346.126 172.541 337.294 175.976C328.584 179.288 318.587 180.944 307.302 180.944C296.016 180.944 285.958 179.288 277.126 175.976C268.416 172.541 261.608 167.696 256.702 161.44C251.918 155.184 249.526 147.947 249.526 139.728C249.526 133.349 250.998 127.707 253.942 122.8C257.008 117.771 261.302 113.539 266.822 110.104C258.358 103.357 254.126 94.8933 254.126 84.712C254.126 76.984 256.334 70.2373 260.75 64.472C265.288 58.7067 271.544 54.2293 279.518 51.04C287.614 47.8507 296.875 46.256 307.302 46.256C317.728 46.256 326.928 47.8507 334.902 51.04C342.998 54.2293 349.254 58.7067 353.67 64.472C358.208 70.2373 360.478 76.984 360.478 84.712C360.478 94.8933 356.246 103.357 347.782 110.104ZM307.302 75.512C304.235 75.512 301.72 76.4933 299.758 78.456C297.918 80.4187 296.998 83.1173 296.998 86.552C296.998 89.9867 297.918 92.6853 299.758 94.648C301.72 96.6107 304.235 97.592 307.302 97.592C310.368 97.592 312.822 96.6107 314.662 94.648C316.624 92.6853 317.606 89.9867 317.606 86.552C317.606 83.1173 316.624 80.4187 314.662 78.456C312.822 76.4933 310.368 75.512 307.302 75.512ZM307.302 151.688C311.472 151.688 314.846 150.461 317.422 148.008C320.12 145.555 321.47 142.304 321.47 138.256C321.47 134.208 320.12 130.957 317.422 128.504C314.846 126.051 311.472 124.824 307.302 124.824C303.131 124.824 299.696 126.051 296.998 128.504C294.422 130.957 293.134 134.208 293.134 138.256C293.134 142.304 294.422 145.555 296.998 148.008C299.696 150.461 303.131 151.688 307.302 151.688ZM472.485 110.104C478.005 113.539 482.237 117.771 485.181 122.8C488.248 127.707 489.781 133.349 489.781 139.728C489.781 147.947 487.328 155.184 482.421 161.44C477.637 167.696 470.829 172.541 461.997 175.976C453.288 179.288 443.29 180.944 432.005 180.944C420.72 180.944 410.661 179.288 401.829 175.976C393.12 172.541 386.312 167.696 381.405 161.44C376.621 155.184 374.229 147.947 374.229 139.728C374.229 133.349 375.701 127.707 378.645 122.8C381.712 117.771 386.005 113.539 391.525 110.104C383.061 103.357 378.829 94.8933 378.829 84.712C378.829 76.984 381.037 70.2373 385.453 64.472C389.992 58.7067 396.248 54.2293 404.221 51.04C412.317 47.8507 421.578 46.256 432.005 46.256C442.432 46.256 451.632 47.8507 459.605 51.04C467.701 54.2293 473.957 58.7067 478.373 64.472C482.912 70.2373 485.181 76.984 485.181 84.712C485.181 94.8933 480.949 103.357 472.485 110.104ZM432.005 75.512C428.938 75.512 426.424 76.4933 424.461 78.456C422.621 80.4187 421.701 83.1173 421.701 86.552C421.701 89.9867 422.621 92.6853 424.461 94.648C426.424 96.6107 428.938 97.592 432.005 97.592C435.072 97.592 437.525 96.6107 439.365 94.648C441.328 92.6853 442.309 89.9867 442.309 86.552C442.309 83.1173 441.328 80.4187 439.365 78.456C437.525 76.4933 435.072 75.512 432.005 75.512ZM432.005 151.688C436.176 151.688 439.549 150.461 442.125 148.008C444.824 145.555 446.173 142.304 446.173 138.256C446.173 134.208 444.824 130.957 442.125 128.504C439.549 126.051 436.176 124.824 432.005 124.824C427.834 124.824 424.4 126.051 421.701 128.504C419.125 130.957 417.837 134.208 417.837 138.256C417.837 142.304 419.125 145.555 421.701 148.008C424.4 150.461 427.834 151.688 432.005 151.688ZM548.796 46.256C561.185 46.256 571.98 48.648 581.18 53.432C590.503 58.216 597.74 65.3307 602.892 74.776C608.044 84.2213 610.62 95.8133 610.62 109.552C610.62 124.272 607.615 137.029 601.604 147.824C595.716 158.619 587.375 166.837 576.58 172.48C565.908 178.123 553.457 180.944 539.228 180.944C531.5 180.944 524.14 180.024 517.148 178.184C510.156 176.467 504.207 174.013 499.3 170.824L514.94 140.464C521.319 145.003 529.108 147.272 538.308 147.272C545.791 147.272 551.924 145.432 556.708 141.752C561.615 137.949 564.804 132.491 566.276 125.376C559.529 130.16 551.004 132.552 540.7 132.552C532.849 132.552 525.551 130.835 518.804 127.4C512.057 123.965 506.66 119.12 502.612 112.864C498.564 106.608 496.54 99.432 496.54 91.336C496.54 82.3813 498.809 74.4693 503.348 67.6C508.009 60.7307 514.327 55.456 522.3 51.776C530.273 48.096 539.105 46.256 548.796 46.256ZM551.74 102.56C555.665 102.56 558.855 101.395 561.308 99.064C563.761 96.6107 564.988 93.36 564.988 89.312C564.988 85.264 563.761 82.0747 561.308 79.744C558.855 77.4133 555.665 76.248 551.74 76.248C547.815 76.248 544.625 77.4133 542.172 79.744C539.719 82.0747 538.492 85.264 538.492 89.312C538.492 93.36 539.719 96.6107 542.172 99.064C544.625 101.395 547.815 102.56 551.74 102.56Z" fill="#D73042"/>
</g>
</svg>
