<svg width="1188" height="224" viewBox="0 0 1188 224" fill="none" xmlns="http://www.w3.org/2000/svg">
<path d="M630.612 109.184L685.812 109.184V140.464L630.612 140.464V109.184ZM755.779 49.2L755.779 178L712.355 178L712.355 81.952L690.275 81.952V49.2L755.779 49.2ZM820.726 46.256C833.115 46.256 843.91 48.648 853.11 53.432C862.432 58.216 869.67 65.3307 874.822 74.776C879.974 84.2213 882.55 95.8133 882.55 109.552C882.55 124.272 879.544 137.029 873.534 147.824C867.646 158.619 859.304 166.837 848.51 172.48C837.838 178.123 825.387 180.944 811.158 180.944C803.43 180.944 796.07 180.024 789.078 178.184C782.086 176.467 776.136 174.013 771.23 170.824L786.87 140.464C793.248 145.003 801.038 147.272 810.238 147.272C817.72 147.272 823.854 145.432 828.638 141.752C833.544 137.949 836.734 132.491 838.206 125.376C831.459 130.16 822.934 132.552 812.63 132.552C804.779 132.552 797.48 130.835 790.734 127.4C783.987 123.965 778.59 119.12 774.542 112.864C770.494 106.608 768.47 99.432 768.47 91.336C768.47 82.3813 770.739 74.4693 775.278 67.6C779.939 60.7307 786.256 55.456 794.23 51.776C802.203 48.096 811.035 46.256 820.726 46.256ZM823.67 102.56C827.595 102.56 830.784 101.395 833.238 99.064C835.691 96.6107 836.918 93.36 836.918 89.312C836.918 85.264 835.691 82.0747 833.238 79.744C830.784 77.4133 827.595 76.248 823.67 76.248C819.744 76.248 816.555 77.4133 814.102 79.744C811.648 82.0747 810.422 85.264 810.422 89.312C810.422 93.36 811.648 96.6107 814.102 99.064C816.555 101.395 819.744 102.56 823.67 102.56ZM942.374 46.256C954.763 46.256 965.558 48.648 974.758 53.432C984.081 58.216 991.318 65.3307 996.47 74.776C1001.62 84.2213 1004.2 95.8133 1004.2 109.552C1004.2 124.272 1001.19 137.029 995.182 147.824C989.294 158.619 980.953 166.837 970.158 172.48C959.486 178.123 947.035 180.944 932.806 180.944C925.078 180.944 917.718 180.024 910.726 178.184C903.734 176.467 897.785 174.013 892.878 170.824L908.518 140.464C914.897 145.003 922.686 147.272 931.886 147.272C939.369 147.272 945.502 145.432 950.286 141.752C955.193 137.949 958.382 132.491 959.854 125.376C953.107 130.16 944.582 132.552 934.278 132.552C926.427 132.552 919.129 130.835 912.382 127.4C905.635 123.965 900.238 119.12 896.19 112.864C892.142 106.608 890.118 99.432 890.118 91.336C890.118 82.3813 892.387 74.4693 896.926 67.6C901.587 60.7307 907.905 55.456 915.878 51.776C923.851 48.096 932.683 46.256 942.374 46.256ZM945.318 102.56C949.243 102.56 952.433 101.395 954.886 99.064C957.339 96.6107 958.566 93.36 958.566 89.312C958.566 85.264 957.339 82.0747 954.886 79.744C952.433 77.4133 949.243 76.248 945.318 76.248C941.393 76.248 938.203 77.4133 935.75 79.744C933.297 82.0747 932.07 85.264 932.07 89.312C932.07 93.36 933.297 96.6107 935.75 99.064C938.203 101.395 941.393 102.56 945.318 102.56ZM1074.19 49.2L1074.19 178L1030.76 178L1030.76 81.952L1008.68 81.952L1008.68 49.2L1074.19 49.2Z" fill="#2DC8C2"/>
<path d="M248.6 49.2L248.6 178L205.176 178L205.176 81.952L183.096 81.952L183.096 49.2L248.6 49.2ZM313.546 46.256C325.935 46.256 336.73 48.648 345.93 53.432C355.253 58.216 362.49 65.3307 367.642 74.776C372.794 84.2213 375.37 95.8133 375.37 109.552C375.37 124.272 372.365 137.029 366.354 147.824C360.466 158.619 352.125 166.837 341.33 172.48C330.658 178.123 318.207 180.944 303.978 180.944C296.25 180.944 288.89 180.024 281.898 178.184C274.906 176.467 268.957 174.013 264.05 170.824L279.69 140.464C286.069 145.003 293.858 147.272 303.058 147.272C310.541 147.272 316.674 145.432 321.458 141.752C326.365 137.949 329.554 132.491 331.026 125.376C324.279 130.16 315.754 132.552 305.45 132.552C297.599 132.552 290.301 130.835 283.554 127.4C276.807 123.965 271.41 119.12 267.362 112.864C263.314 106.608 261.29 99.432 261.29 91.336C261.29 82.3813 263.559 74.4693 268.098 67.6C272.759 60.7307 279.077 55.456 287.05 51.776C295.023 48.096 303.855 46.256 313.546 46.256ZM316.49 102.56C320.415 102.56 323.605 101.395 326.058 99.064C328.511 96.6107 329.738 93.36 329.738 89.312C329.738 85.264 328.511 82.0747 326.058 79.744C323.605 77.4133 320.415 76.248 316.49 76.248C312.565 76.248 309.375 77.4133 306.922 79.744C304.469 82.0747 303.242 85.264 303.242 89.312C303.242 93.36 304.469 96.6107 306.922 99.064C309.375 101.395 312.565 102.56 316.49 102.56ZM487.31 144.328L487.31 178L384.086 178L384.086 151.32L430.638 108.264C434.686 104.461 437.384 101.211 438.734 98.512C440.083 95.8133 440.758 93.176 440.758 90.6C440.758 87.4107 439.654 84.9573 437.446 83.24C435.36 81.4 432.294 80.48 428.246 80.48C424.32 80.48 420.64 81.5227 417.206 83.608C413.771 85.6933 411.134 88.6373 409.294 92.44L376.542 76.064C381.448 66.864 388.624 59.6267 398.07 54.352C407.515 48.9547 418.923 46.256 432.294 46.256C442.475 46.256 451.491 47.912 459.342 51.224C467.192 54.536 473.326 59.2587 477.742 65.392C482.158 71.5253 484.366 78.5787 484.366 86.552C484.366 93.6667 482.832 100.352 479.766 106.608C476.822 112.741 470.995 119.733 462.286 127.584L443.886 144.328L487.31 144.328ZM599.255 144.328V178L496.031 178V151.32L542.583 108.264C546.631 104.461 549.33 101.211 550.679 98.512C552.028 95.8133 552.703 93.176 552.703 90.6C552.703 87.4107 551.599 84.9573 549.391 83.24C547.306 81.4 544.239 80.48 540.191 80.48C536.266 80.48 532.586 81.5227 529.151 83.608C525.716 85.6933 523.079 88.6373 521.239 92.44L488.487 76.064C493.394 66.864 500.57 59.6267 510.015 54.352C519.46 48.9547 530.868 46.256 544.239 46.256C554.42 46.256 563.436 47.912 571.287 51.224C579.138 54.536 585.271 59.2587 589.687 65.392C594.103 71.5253 596.311 78.5787 596.311 86.552C596.311 93.6667 594.778 100.352 591.711 106.608C588.767 112.741 582.94 119.733 574.231 127.584L555.831 144.328L599.255 144.328Z" fill="#2DC8C2"/>
<path d="M219.6 49.2L219.6 178L176.176 178L176.176 81.952L154.096 81.952L154.096 49.2L219.6 49.2ZM284.546 46.256C296.935 46.256 307.73 48.648 316.93 53.432C326.253 58.216 333.49 65.3307 338.642 74.776C343.794 84.2213 346.37 95.8133 346.37 109.552C346.37 124.272 343.365 137.029 337.354 147.824C331.466 158.619 323.125 166.837 312.33 172.48C301.658 178.123 289.207 180.944 274.978 180.944C267.25 180.944 259.89 180.024 252.898 178.184C245.906 176.467 239.957 174.013 235.05 170.824L250.69 140.464C257.069 145.003 264.858 147.272 274.058 147.272C281.541 147.272 287.674 145.432 292.458 141.752C297.365 137.949 300.554 132.491 302.026 125.376C295.279 130.16 286.754 132.552 276.45 132.552C268.599 132.552 261.301 130.835 254.554 127.4C247.807 123.965 242.41 119.12 238.362 112.864C234.314 106.608 232.29 99.432 232.29 91.336C232.29 82.3813 234.559 74.4693 239.098 67.6C243.759 60.7307 250.077 55.456 258.05 51.776C266.023 48.096 274.855 46.256 284.546 46.256ZM287.49 102.56C291.415 102.56 294.605 101.395 297.058 99.064C299.511 96.6107 300.738 93.36 300.738 89.312C300.738 85.264 299.511 82.0747 297.058 79.744C294.605 77.4133 291.415 76.248 287.49 76.248C283.565 76.248 280.375 77.4133 277.922 79.744C275.469 82.0747 274.242 85.264 274.242 89.312C274.242 93.36 275.469 96.6107 277.922 99.064C280.375 101.395 283.565 102.56 287.49 102.56ZM458.31 144.328L458.31 178L355.086 178V151.32L401.638 108.264C405.686 104.461 408.384 101.211 409.734 98.512C411.083 95.8133 411.758 93.176 411.758 90.6C411.758 87.4107 410.654 84.9573 408.446 83.24C406.36 81.4 403.294 80.48 399.246 80.48C395.32 80.48 391.64 81.5227 388.206 83.608C384.771 85.6933 382.134 88.6373 380.294 92.44L347.542 76.064C352.448 66.864 359.624 59.6267 369.07 54.352C378.515 48.9547 389.923 46.256 403.294 46.256C413.475 46.256 422.491 47.912 430.342 51.224C438.192 54.536 444.326 59.2587 448.742 65.392C453.158 71.5253 455.366 78.5787 455.366 86.552C455.366 93.6667 453.832 100.352 450.766 106.608C447.822 112.741 441.995 119.733 433.286 127.584L414.886 144.328L458.31 144.328ZM570.255 144.328L570.255 178L467.031 178V151.32L513.583 108.264C517.631 104.461 520.33 101.211 521.679 98.512C523.028 95.8133 523.703 93.176 523.703 90.6C523.703 87.4107 522.599 84.9573 520.391 83.24C518.306 81.4 515.239 80.48 511.191 80.48C507.266 80.48 503.586 81.5227 500.151 83.608C496.716 85.6933 494.079 88.6373 492.239 92.44L459.487 76.064C464.394 66.864 471.57 59.6267 481.015 54.352C490.46 48.9547 501.868 46.256 515.239 46.256C525.42 46.256 534.436 47.912 542.287 51.224C550.138 54.536 556.271 59.2587 560.687 65.392C565.103 71.5253 567.311 78.5787 567.311 86.552C567.311 93.6667 565.778 100.352 562.711 106.608C559.767 112.741 553.94 119.733 545.231 127.584L526.831 144.328L570.255 144.328Z" fill="#D73042"/>
<g style="mix-blend-mode:multiply">
<path d="M248.6 49.2L248.6 178L205.176 178L205.176 81.952L183.096 81.952L183.096 49.2L248.6 49.2ZM313.546 46.256C325.935 46.256 336.73 48.648 345.93 53.432C355.253 58.216 362.49 65.3307 367.642 74.776C372.794 84.2213 375.37 95.8133 375.37 109.552C375.37 124.272 372.365 137.029 366.354 147.824C360.466 158.619 352.125 166.837 341.33 172.48C330.658 178.123 318.207 180.944 303.978 180.944C296.25 180.944 288.89 180.024 281.898 178.184C274.906 176.467 268.957 174.013 264.05 170.824L279.69 140.464C286.069 145.003 293.858 147.272 303.058 147.272C310.541 147.272 316.674 145.432 321.458 141.752C326.365 137.949 329.554 132.491 331.026 125.376C324.279 130.16 315.754 132.552 305.45 132.552C297.599 132.552 290.301 130.835 283.554 127.4C276.807 123.965 271.41 119.12 267.362 112.864C263.314 106.608 261.29 99.432 261.29 91.336C261.29 82.3813 263.559 74.4693 268.098 67.6C272.759 60.7307 279.077 55.456 287.05 51.776C295.023 48.096 303.855 46.256 313.546 46.256ZM316.49 102.56C320.415 102.56 323.605 101.395 326.058 99.064C328.511 96.6107 329.738 93.36 329.738 89.312C329.738 85.264 328.511 82.0747 326.058 79.744C323.605 77.4133 320.415 76.248 316.49 76.248C312.565 76.248 309.375 77.4133 306.922 79.744C304.469 82.0747 303.242 85.264 303.242 89.312C303.242 93.36 304.469 96.6107 306.922 99.064C309.375 101.395 312.565 102.56 316.49 102.56ZM487.31 144.328L487.31 178L384.086 178L384.086 151.32L430.638 108.264C434.686 104.461 437.384 101.211 438.734 98.512C440.083 95.8133 440.758 93.176 440.758 90.6C440.758 87.4107 439.654 84.9573 437.446 83.24C435.36 81.4 432.294 80.48 428.246 80.48C424.32 80.48 420.64 81.5227 417.206 83.608C413.771 85.6933 411.134 88.6373 409.294 92.44L376.542 76.064C381.448 66.864 388.624 59.6267 398.07 54.352C407.515 48.9547 418.923 46.256 432.294 46.256C442.475 46.256 451.491 47.912 459.342 51.224C467.192 54.536 473.326 59.2587 477.742 65.392C482.158 71.5253 484.366 78.5787 484.366 86.552C484.366 93.6667 482.832 100.352 479.766 106.608C476.822 112.741 470.995 119.733 462.286 127.584L443.886 144.328L487.31 144.328ZM599.255 144.328V178L496.031 178V151.32L542.583 108.264C546.631 104.461 549.33 101.211 550.679 98.512C552.028 95.8133 552.703 93.176 552.703 90.6C552.703 87.4107 551.599 84.9573 549.391 83.24C547.306 81.4 544.239 80.48 540.191 80.48C536.266 80.48 532.586 81.5227 529.151 83.608C525.716 85.6933 523.079 88.6373 521.239 92.44L488.487 76.064C493.394 66.864 500.57 59.6267 510.015 54.352C519.46 48.9547 530.868 46.256 544.239 46.256C554.42 46.256 563.436 47.912 571.287 51.224C579.138 54.536 585.271 59.2587 589.687 65.392C594.103 71.5253 596.311 78.5787 596.311 86.552C596.311 93.6667 594.778 100.352 591.711 106.608C588.767 112.741 582.94 119.733 574.231 127.584L555.831 144.328L599.255 144.328Z" fill="#D73042"/>
</g>
<path d="M601.612 109.184L656.812 109.184V140.464L601.612 140.464V109.184ZM726.779 49.2L726.779 178L683.355 178L683.355 81.952L661.275 81.952V49.2L726.779 49.2ZM791.726 46.256C804.115 46.256 814.91 48.648 824.11 53.432C833.432 58.216 840.67 65.3307 845.822 74.776C850.974 84.2213 853.55 95.8133 853.55 109.552C853.55 124.272 850.544 137.029 844.534 147.824C838.646 158.619 830.304 166.837 819.51 172.48C808.838 178.123 796.387 180.944 782.158 180.944C774.43 180.944 767.07 180.024 760.078 178.184C753.086 176.467 747.136 174.013 742.23 170.824L757.87 140.464C764.248 145.003 772.038 147.272 781.238 147.272C788.72 147.272 794.854 145.432 799.638 141.752C804.544 137.949 807.734 132.491 809.206 125.376C802.459 130.16 793.934 132.552 783.63 132.552C775.779 132.552 768.48 130.835 761.734 127.4C754.987 123.965 749.59 119.12 745.542 112.864C741.494 106.608 739.47 99.432 739.47 91.336C739.47 82.3813 741.739 74.4693 746.278 67.6C750.939 60.7307 757.256 55.456 765.23 51.776C773.203 48.096 782.035 46.256 791.726 46.256ZM794.67 102.56C798.595 102.56 801.784 101.395 804.238 99.064C806.691 96.6107 807.918 93.36 807.918 89.312C807.918 85.264 806.691 82.0747 804.238 79.744C801.784 77.4133 798.595 76.248 794.67 76.248C790.744 76.248 787.555 77.4133 785.102 79.744C782.648 82.0747 781.422 85.264 781.422 89.312C781.422 93.36 782.648 96.6107 785.102 99.064C787.555 101.395 790.744 102.56 794.67 102.56ZM913.374 46.256C925.763 46.256 936.558 48.648 945.758 53.432C955.081 58.216 962.318 65.3307 967.47 74.776C972.622 84.2213 975.198 95.8133 975.198 109.552C975.198 124.272 972.193 137.029 966.182 147.824C960.294 158.619 951.953 166.837 941.158 172.48C930.486 178.123 918.035 180.944 903.806 180.944C896.078 180.944 888.718 180.024 881.726 178.184C874.734 176.467 868.785 174.013 863.878 170.824L879.518 140.464C885.897 145.003 893.686 147.272 902.886 147.272C910.369 147.272 916.502 145.432 921.286 141.752C926.193 137.949 929.382 132.491 930.854 125.376C924.107 130.16 915.582 132.552 905.278 132.552C897.427 132.552 890.129 130.835 883.382 127.4C876.635 123.965 871.238 119.12 867.19 112.864C863.142 106.608 861.118 99.432 861.118 91.336C861.118 82.3813 863.387 74.4693 867.926 67.6C872.587 60.7307 878.905 55.456 886.878 51.776C894.851 48.096 903.683 46.256 913.374 46.256ZM916.318 102.56C920.243 102.56 923.433 101.395 925.886 99.064C928.339 96.6107 929.566 93.36 929.566 89.312C929.566 85.264 928.339 82.0747 925.886 79.744C923.433 77.4133 920.243 76.248 916.318 76.248C912.393 76.248 909.203 77.4133 906.75 79.744C904.297 82.0747 903.07 85.264 903.07 89.312C903.07 93.36 904.297 96.6107 906.75 99.064C909.203 101.395 912.393 102.56 916.318 102.56ZM1045.19 49.2L1045.19 178L1001.76 178L1001.76 81.952L979.682 81.952V49.2L1045.19 49.2Z" fill="#D73042"/>
<g style="mix-blend-mode:multiply">
<path d="M630.612 109.184L685.812 109.184V140.464L630.612 140.464V109.184ZM755.779 49.2L755.779 178L712.355 178L712.355 81.952L690.275 81.952V49.2L755.779 49.2ZM820.726 46.256C833.115 46.256 843.91 48.648 853.11 53.432C862.432 58.216 869.67 65.3307 874.822 74.776C879.974 84.2213 882.55 95.8133 882.55 109.552C882.55 124.272 879.544 137.029 873.534 147.824C867.646 158.619 859.304 166.837 848.51 172.48C837.838 178.123 825.387 180.944 811.158 180.944C803.43 180.944 796.07 180.024 789.078 178.184C782.086 176.467 776.136 174.013 771.23 170.824L786.87 140.464C793.248 145.003 801.038 147.272 810.238 147.272C817.72 147.272 823.854 145.432 828.638 141.752C833.544 137.949 836.734 132.491 838.206 125.376C831.459 130.16 822.934 132.552 812.63 132.552C804.779 132.552 797.48 130.835 790.734 127.4C783.987 123.965 778.59 119.12 774.542 112.864C770.494 106.608 768.47 99.432 768.47 91.336C768.47 82.3813 770.739 74.4693 775.278 67.6C779.939 60.7307 786.256 55.456 794.23 51.776C802.203 48.096 811.035 46.256 820.726 46.256ZM823.67 102.56C827.595 102.56 830.784 101.395 833.238 99.064C835.691 96.6107 836.918 93.36 836.918 89.312C836.918 85.264 835.691 82.0747 833.238 79.744C830.784 77.4133 827.595 76.248 823.67 76.248C819.744 76.248 816.555 77.4133 814.102 79.744C811.648 82.0747 810.422 85.264 810.422 89.312C810.422 93.36 811.648 96.6107 814.102 99.064C816.555 101.395 819.744 102.56 823.67 102.56ZM942.374 46.256C954.763 46.256 965.558 48.648 974.758 53.432C984.081 58.216 991.318 65.3307 996.47 74.776C1001.62 84.2213 1004.2 95.8133 1004.2 109.552C1004.2 124.272 1001.19 137.029 995.182 147.824C989.294 158.619 980.953 166.837 970.158 172.48C959.486 178.123 947.035 180.944 932.806 180.944C925.078 180.944 917.718 180.024 910.726 178.184C903.734 176.467 897.785 174.013 892.878 170.824L908.518 140.464C914.897 145.003 922.686 147.272 931.886 147.272C939.369 147.272 945.502 145.432 950.286 141.752C955.193 137.949 958.382 132.491 959.854 125.376C953.107 130.16 944.582 132.552 934.278 132.552C926.427 132.552 919.129 130.835 912.382 127.4C905.635 123.965 900.238 119.12 896.19 112.864C892.142 106.608 890.118 99.432 890.118 91.336C890.118 82.3813 892.387 74.4693 896.926 67.6C901.587 60.7307 907.905 55.456 915.878 51.776C923.851 48.096 932.683 46.256 942.374 46.256ZM945.318 102.56C949.243 102.56 952.433 101.395 954.886 99.064C957.339 96.6107 958.566 93.36 958.566 89.312C958.566 85.264 957.339 82.0747 954.886 79.744C952.433 77.4133 949.243 76.248 945.318 76.248C941.393 76.248 938.203 77.4133 935.75 79.744C933.297 82.0747 932.07 85.264 932.07 89.312C932.07 93.36 933.297 96.6107 935.75 99.064C938.203 101.395 941.393 102.56 945.318 102.56ZM1074.19 49.2L1074.19 178L1030.76 178L1030.76 81.952L1008.68 81.952L1008.68 49.2L1074.19 49.2Z" fill="#D73042"/>
</g>
</svg>
