<svg width="727" height="224" viewBox="0 0 727 224" fill="none" xmlns="http://www.w3.org/2000/svg">
<path d="M262.431 144.328L262.431 178L159.207 178L159.207 151.32L205.759 108.264C209.807 104.461 212.505 101.211 213.855 98.512C215.204 95.8133 215.879 93.176 215.879 90.6C215.879 87.4107 214.775 84.9573 212.567 83.24C210.481 81.4 207.415 80.48 203.367 80.48C199.441 80.48 195.761 81.5227 192.327 83.608C188.892 85.6933 186.255 88.6373 184.415 92.44L151.663 76.064C156.569 66.864 163.745 59.6267 173.191 54.352C182.636 48.9547 194.044 46.256 207.415 46.256C217.596 46.256 226.612 47.912 234.463 51.224C242.313 54.536 248.447 59.2587 252.863 65.392C257.279 71.5253 259.487 78.5787 259.487 86.552C259.487 93.6667 257.953 100.352 254.887 106.608C251.943 112.741 246.116 119.733 237.407 127.584L219.007 144.328L262.431 144.328ZM329.664 180.944C318.256 180.944 308.136 178.307 299.304 173.032C290.595 167.635 283.725 159.907 278.696 149.848C273.789 139.667 271.336 127.584 271.336 113.6C271.336 99.616 273.789 87.5947 278.696 77.536C283.725 67.3547 290.595 59.6267 299.304 54.352C308.136 48.9547 318.256 46.256 329.664 46.256C341.072 46.256 351.131 48.9547 359.84 54.352C368.672 59.6267 375.541 67.3547 380.448 77.536C385.477 87.5947 387.992 99.616 387.992 113.6C387.992 127.584 385.477 139.667 380.448 149.848C375.541 159.907 368.672 167.635 359.84 173.032C351.131 178.307 341.072 180.944 329.664 180.944ZM329.664 146.168C339.477 146.168 344.384 135.312 344.384 113.6C344.384 91.888 339.477 81.032 329.664 81.032C319.851 81.032 314.944 91.888 314.944 113.6C314.944 135.312 319.851 146.168 329.664 146.168ZM499.978 144.328L499.978 178L396.754 178L396.754 151.32L443.306 108.264C447.354 104.461 450.052 101.211 451.402 98.512C452.751 95.8133 453.426 93.176 453.426 90.6C453.426 87.4107 452.322 84.9573 450.114 83.24C448.028 81.4 444.962 80.48 440.914 80.48C436.988 80.48 433.308 81.5227 429.874 83.608C426.439 85.6933 423.802 88.6373 421.962 92.44L389.21 76.064C394.116 66.864 401.292 59.6267 410.738 54.352C420.183 48.9547 431.591 46.256 444.962 46.256C455.143 46.256 464.159 47.912 472.01 51.224C479.86 54.536 485.994 59.2587 490.41 65.392C494.826 71.5253 497.034 78.5787 497.034 86.552C497.034 93.6667 495.5 100.352 492.434 106.608C489.49 112.741 483.663 119.733 474.954 127.584L456.554 144.328L499.978 144.328ZM567.211 180.944C555.803 180.944 545.683 178.307 536.851 173.032C528.142 167.635 521.272 159.907 516.243 149.848C511.336 139.667 508.883 127.584 508.883 113.6C508.883 99.616 511.336 87.5947 516.243 77.536C521.272 67.3547 528.142 59.6267 536.851 54.352C545.683 48.9547 555.803 46.256 567.211 46.256C578.619 46.256 588.678 48.9547 597.387 54.352C606.219 59.6267 613.088 67.3547 617.995 77.536C623.024 87.5947 625.539 99.616 625.539 113.6C625.539 127.584 623.024 139.667 617.995 149.848C613.088 159.907 606.219 167.635 597.387 173.032C588.678 178.307 578.619 180.944 567.211 180.944ZM567.211 146.168C577.024 146.168 581.931 135.312 581.931 113.6C581.931 91.888 577.024 81.032 567.211 81.032C557.398 81.032 552.491 91.888 552.491 113.6C552.491 135.312 557.398 146.168 567.211 146.168Z" fill="#2DC8C2"/>
<path d="M233.431 144.328L233.431 178L130.207 178L130.207 151.32L176.759 108.264C180.807 104.461 183.505 101.211 184.855 98.512C186.204 95.8133 186.879 93.176 186.879 90.6C186.879 87.4107 185.775 84.9573 183.567 83.24C181.481 81.4 178.415 80.48 174.367 80.48C170.441 80.48 166.761 81.5227 163.327 83.608C159.892 85.6933 157.255 88.6373 155.415 92.44L122.663 76.064C127.569 66.864 134.745 59.6267 144.191 54.352C153.636 48.9547 165.044 46.256 178.415 46.256C188.596 46.256 197.612 47.912 205.463 51.224C213.313 54.536 219.447 59.2587 223.863 65.392C228.279 71.5253 230.487 78.5787 230.487 86.552C230.487 93.6667 228.953 100.352 225.887 106.608C222.943 112.741 217.116 119.733 208.407 127.584L190.007 144.328L233.431 144.328ZM300.664 180.944C289.256 180.944 279.136 178.307 270.304 173.032C261.595 167.635 254.725 159.907 249.696 149.848C244.789 139.667 242.336 127.584 242.336 113.6C242.336 99.616 244.789 87.5947 249.696 77.536C254.725 67.3547 261.595 59.6267 270.304 54.352C279.136 48.9547 289.256 46.256 300.664 46.256C312.072 46.256 322.131 48.9547 330.84 54.352C339.672 59.6267 346.541 67.3547 351.448 77.536C356.477 87.5947 358.992 99.616 358.992 113.6C358.992 127.584 356.477 139.667 351.448 149.848C346.541 159.907 339.672 167.635 330.84 173.032C322.131 178.307 312.072 180.944 300.664 180.944ZM300.664 146.168C310.477 146.168 315.384 135.312 315.384 113.6C315.384 91.888 310.477 81.032 300.664 81.032C290.851 81.032 285.944 91.888 285.944 113.6C285.944 135.312 290.851 146.168 300.664 146.168ZM470.978 144.328L470.978 178L367.754 178V151.32L414.306 108.264C418.354 104.461 421.052 101.211 422.402 98.512C423.751 95.8133 424.426 93.176 424.426 90.6C424.426 87.4107 423.322 84.9573 421.114 83.24C419.028 81.4 415.962 80.48 411.914 80.48C407.988 80.48 404.308 81.5227 400.874 83.608C397.439 85.6933 394.802 88.6373 392.962 92.44L360.21 76.064C365.116 66.864 372.292 59.6267 381.738 54.352C391.183 48.9547 402.591 46.256 415.962 46.256C426.143 46.256 435.159 47.912 443.01 51.224C450.86 54.536 456.994 59.2587 461.41 65.392C465.826 71.5253 468.034 78.5787 468.034 86.552C468.034 93.6667 466.5 100.352 463.434 106.608C460.49 112.741 454.663 119.733 445.954 127.584L427.554 144.328L470.978 144.328ZM538.211 180.944C526.803 180.944 516.683 178.307 507.851 173.032C499.142 167.635 492.272 159.907 487.243 149.848C482.336 139.667 479.883 127.584 479.883 113.6C479.883 99.616 482.336 87.5947 487.243 77.536C492.272 67.3547 499.142 59.6267 507.851 54.352C516.683 48.9547 526.803 46.256 538.211 46.256C549.619 46.256 559.678 48.9547 568.387 54.352C577.219 59.6267 584.088 67.3547 588.995 77.536C594.024 87.5947 596.539 99.616 596.539 113.6C596.539 127.584 594.024 139.667 588.995 149.848C584.088 159.907 577.219 167.635 568.387 173.032C559.678 178.307 549.619 180.944 538.211 180.944ZM538.211 146.168C548.024 146.168 552.931 135.312 552.931 113.6C552.931 91.888 548.024 81.032 538.211 81.032C528.398 81.032 523.491 91.888 523.491 113.6C523.491 135.312 528.398 146.168 538.211 146.168Z" fill="#D73042"/>
<g style="mix-blend-mode:multiply">
<path d="M262.431 144.328L262.431 178L159.207 178L159.207 151.32L205.759 108.264C209.807 104.461 212.505 101.211 213.855 98.512C215.204 95.8133 215.879 93.176 215.879 90.6C215.879 87.4107 214.775 84.9573 212.567 83.24C210.481 81.4 207.415 80.48 203.367 80.48C199.441 80.48 195.761 81.5227 192.327 83.608C188.892 85.6933 186.255 88.6373 184.415 92.44L151.663 76.064C156.569 66.864 163.745 59.6267 173.191 54.352C182.636 48.9547 194.044 46.256 207.415 46.256C217.596 46.256 226.612 47.912 234.463 51.224C242.313 54.536 248.447 59.2587 252.863 65.392C257.279 71.5253 259.487 78.5787 259.487 86.552C259.487 93.6667 257.953 100.352 254.887 106.608C251.943 112.741 246.116 119.733 237.407 127.584L219.007 144.328L262.431 144.328ZM329.664 180.944C318.256 180.944 308.136 178.307 299.304 173.032C290.595 167.635 283.725 159.907 278.696 149.848C273.789 139.667 271.336 127.584 271.336 113.6C271.336 99.616 273.789 87.5947 278.696 77.536C283.725 67.3547 290.595 59.6267 299.304 54.352C308.136 48.9547 318.256 46.256 329.664 46.256C341.072 46.256 351.131 48.9547 359.84 54.352C368.672 59.6267 375.541 67.3547 380.448 77.536C385.477 87.5947 387.992 99.616 387.992 113.6C387.992 127.584 385.477 139.667 380.448 149.848C375.541 159.907 368.672 167.635 359.84 173.032C351.131 178.307 341.072 180.944 329.664 180.944ZM329.664 146.168C339.477 146.168 344.384 135.312 344.384 113.6C344.384 91.888 339.477 81.032 329.664 81.032C319.851 81.032 314.944 91.888 314.944 113.6C314.944 135.312 319.851 146.168 329.664 146.168ZM499.978 144.328L499.978 178L396.754 178L396.754 151.32L443.306 108.264C447.354 104.461 450.052 101.211 451.402 98.512C452.751 95.8133 453.426 93.176 453.426 90.6C453.426 87.4107 452.322 84.9573 450.114 83.24C448.028 81.4 444.962 80.48 440.914 80.48C436.988 80.48 433.308 81.5227 429.874 83.608C426.439 85.6933 423.802 88.6373 421.962 92.44L389.21 76.064C394.116 66.864 401.292 59.6267 410.738 54.352C420.183 48.9547 431.591 46.256 444.962 46.256C455.143 46.256 464.159 47.912 472.01 51.224C479.86 54.536 485.994 59.2587 490.41 65.392C494.826 71.5253 497.034 78.5787 497.034 86.552C497.034 93.6667 495.5 100.352 492.434 106.608C489.49 112.741 483.663 119.733 474.954 127.584L456.554 144.328L499.978 144.328ZM567.211 180.944C555.803 180.944 545.683 178.307 536.851 173.032C528.142 167.635 521.272 159.907 516.243 149.848C511.336 139.667 508.883 127.584 508.883 113.6C508.883 99.616 511.336 87.5947 516.243 77.536C521.272 67.3547 528.142 59.6267 536.851 54.352C545.683 48.9547 555.803 46.256 567.211 46.256C578.619 46.256 588.678 48.9547 597.387 54.352C606.219 59.6267 613.088 67.3547 617.995 77.536C623.024 87.5947 625.539 99.616 625.539 113.6C625.539 127.584 623.024 139.667 617.995 149.848C613.088 159.907 606.219 167.635 597.387 173.032C588.678 178.307 578.619 180.944 567.211 180.944ZM567.211 146.168C577.024 146.168 581.931 135.312 581.931 113.6C581.931 91.888 577.024 81.032 567.211 81.032C557.398 81.032 552.491 91.888 552.491 113.6C552.491 135.312 557.398 146.168 567.211 146.168Z" fill="#D73042"/>
</g>
</svg>
