<svg width="727" height="224" viewBox="0 0 727 224" fill="none" xmlns="http://www.w3.org/2000/svg">
<path d="M287.677 144.328L287.677 178L184.453 178L184.453 151.32L231.005 108.264C235.053 104.461 237.751 101.211 239.101 98.512C240.45 95.8133 241.125 93.176 241.125 90.6C241.125 87.4107 240.021 84.9573 237.813 83.24C235.727 81.4 232.661 80.48 228.613 80.48C224.687 80.48 221.007 81.5227 217.573 83.608C214.138 85.6933 211.501 88.6373 209.661 92.44L176.909 76.064C181.815 66.864 188.991 59.6267 198.437 54.352C207.882 48.9547 219.29 46.256 232.661 46.256C242.842 46.256 251.858 47.912 259.709 51.224C267.559 54.536 273.693 59.2587 278.109 65.392C282.525 71.5253 284.733 78.5787 284.733 86.552C284.733 93.6667 283.199 100.352 280.133 106.608C277.189 112.741 271.362 119.733 262.653 127.584L244.253 144.328L287.677 144.328ZM354.91 180.944C343.502 180.944 333.382 178.307 324.55 173.032C315.841 167.635 308.971 159.907 303.942 149.848C299.035 139.667 296.582 127.584 296.582 113.6C296.582 99.616 299.035 87.5947 303.942 77.536C308.971 67.3547 315.841 59.6267 324.55 54.352C333.382 48.9547 343.502 46.256 354.91 46.256C366.318 46.256 376.377 48.9547 385.086 54.352C393.918 59.6267 400.787 67.3547 405.694 77.536C410.723 87.5947 413.238 99.616 413.238 113.6C413.238 127.584 410.723 139.667 405.694 149.848C400.787 159.907 393.918 167.635 385.086 173.032C376.377 178.307 366.318 180.944 354.91 180.944ZM354.91 146.168C364.723 146.168 369.63 135.312 369.63 113.6C369.63 91.888 364.723 81.032 354.91 81.032C345.097 81.032 340.19 91.888 340.19 113.6C340.19 135.312 345.097 146.168 354.91 146.168ZM525.224 144.328V178L422 178L422 151.32L468.552 108.264C472.6 104.461 475.298 101.211 476.648 98.512C477.997 95.8133 478.672 93.176 478.672 90.6C478.672 87.4107 477.568 84.9573 475.36 83.24C473.274 81.4 470.208 80.48 466.16 80.48C462.234 80.48 458.554 81.5227 455.12 83.608C451.685 85.6933 449.048 88.6373 447.208 92.44L414.456 76.064C419.362 66.864 426.538 59.6267 435.984 54.352C445.429 48.9547 456.837 46.256 470.208 46.256C480.389 46.256 489.405 47.912 497.256 51.224C505.106 54.536 511.24 59.2587 515.656 65.392C520.072 71.5253 522.28 78.5787 522.28 86.552C522.28 93.6667 520.746 100.352 517.68 106.608C514.736 112.741 508.909 119.733 500.2 127.584L481.8 144.328L525.224 144.328ZM595.217 49.2L595.217 178L551.793 178L551.793 81.952L529.713 81.952L529.713 49.2L595.217 49.2Z" fill="#2DC8C2"/>
<path d="M258.677 144.328L258.677 178L155.453 178L155.453 151.32L202.005 108.264C206.053 104.461 208.751 101.211 210.101 98.512C211.45 95.8133 212.125 93.176 212.125 90.6C212.125 87.4107 211.021 84.9573 208.813 83.24C206.727 81.4 203.661 80.48 199.613 80.48C195.687 80.48 192.007 81.5227 188.573 83.608C185.138 85.6933 182.501 88.6373 180.661 92.44L147.909 76.064C152.815 66.864 159.991 59.6267 169.437 54.352C178.882 48.9547 190.29 46.256 203.661 46.256C213.842 46.256 222.858 47.912 230.709 51.224C238.559 54.536 244.693 59.2587 249.109 65.392C253.525 71.5253 255.733 78.5787 255.733 86.552C255.733 93.6667 254.199 100.352 251.133 106.608C248.189 112.741 242.362 119.733 233.653 127.584L215.253 144.328L258.677 144.328ZM325.91 180.944C314.502 180.944 304.382 178.307 295.55 173.032C286.841 167.635 279.971 159.907 274.942 149.848C270.035 139.667 267.582 127.584 267.582 113.6C267.582 99.616 270.035 87.5947 274.942 77.536C279.971 67.3547 286.841 59.6267 295.55 54.352C304.382 48.9547 314.502 46.256 325.91 46.256C337.318 46.256 347.377 48.9547 356.086 54.352C364.918 59.6267 371.787 67.3547 376.694 77.536C381.723 87.5947 384.238 99.616 384.238 113.6C384.238 127.584 381.723 139.667 376.694 149.848C371.787 159.907 364.918 167.635 356.086 173.032C347.377 178.307 337.318 180.944 325.91 180.944ZM325.91 146.168C335.723 146.168 340.63 135.312 340.63 113.6C340.63 91.888 335.723 81.032 325.91 81.032C316.097 81.032 311.19 91.888 311.19 113.6C311.19 135.312 316.097 146.168 325.91 146.168ZM496.224 144.328L496.224 178L393 178V151.32L439.552 108.264C443.6 104.461 446.298 101.211 447.648 98.512C448.997 95.8133 449.672 93.176 449.672 90.6C449.672 87.4107 448.568 84.9573 446.36 83.24C444.274 81.4 441.208 80.48 437.16 80.48C433.234 80.48 429.554 81.5227 426.12 83.608C422.685 85.6933 420.048 88.6373 418.208 92.44L385.456 76.064C390.362 66.864 397.538 59.6267 406.984 54.352C416.429 48.9547 427.837 46.256 441.208 46.256C451.389 46.256 460.405 47.912 468.256 51.224C476.106 54.536 482.24 59.2587 486.656 65.392C491.072 71.5253 493.28 78.5787 493.28 86.552C493.28 93.6667 491.746 100.352 488.68 106.608C485.736 112.741 479.909 119.733 471.2 127.584L452.8 144.328L496.224 144.328ZM566.217 49.2L566.217 178L522.793 178L522.793 81.952L500.713 81.952L500.713 49.2L566.217 49.2Z" fill="#D73042"/>
<g style="mix-blend-mode:multiply">
<path d="M287.677 144.328L287.677 178L184.453 178L184.453 151.32L231.005 108.264C235.053 104.461 237.751 101.211 239.101 98.512C240.45 95.8133 241.125 93.176 241.125 90.6C241.125 87.4107 240.021 84.9573 237.813 83.24C235.727 81.4 232.661 80.48 228.613 80.48C224.687 80.48 221.007 81.5227 217.573 83.608C214.138 85.6933 211.501 88.6373 209.661 92.44L176.909 76.064C181.815 66.864 188.991 59.6267 198.437 54.352C207.882 48.9547 219.29 46.256 232.661 46.256C242.842 46.256 251.858 47.912 259.709 51.224C267.559 54.536 273.693 59.2587 278.109 65.392C282.525 71.5253 284.733 78.5787 284.733 86.552C284.733 93.6667 283.199 100.352 280.133 106.608C277.189 112.741 271.362 119.733 262.653 127.584L244.253 144.328L287.677 144.328ZM354.91 180.944C343.502 180.944 333.382 178.307 324.55 173.032C315.841 167.635 308.971 159.907 303.942 149.848C299.035 139.667 296.582 127.584 296.582 113.6C296.582 99.616 299.035 87.5947 303.942 77.536C308.971 67.3547 315.841 59.6267 324.55 54.352C333.382 48.9547 343.502 46.256 354.91 46.256C366.318 46.256 376.377 48.9547 385.086 54.352C393.918 59.6267 400.787 67.3547 405.694 77.536C410.723 87.5947 413.238 99.616 413.238 113.6C413.238 127.584 410.723 139.667 405.694 149.848C400.787 159.907 393.918 167.635 385.086 173.032C376.377 178.307 366.318 180.944 354.91 180.944ZM354.91 146.168C364.723 146.168 369.63 135.312 369.63 113.6C369.63 91.888 364.723 81.032 354.91 81.032C345.097 81.032 340.19 91.888 340.19 113.6C340.19 135.312 345.097 146.168 354.91 146.168ZM525.224 144.328V178L422 178L422 151.32L468.552 108.264C472.6 104.461 475.298 101.211 476.648 98.512C477.997 95.8133 478.672 93.176 478.672 90.6C478.672 87.4107 477.568 84.9573 475.36 83.24C473.274 81.4 470.208 80.48 466.16 80.48C462.234 80.48 458.554 81.5227 455.12 83.608C451.685 85.6933 449.048 88.6373 447.208 92.44L414.456 76.064C419.362 66.864 426.538 59.6267 435.984 54.352C445.429 48.9547 456.837 46.256 470.208 46.256C480.389 46.256 489.405 47.912 497.256 51.224C505.106 54.536 511.24 59.2587 515.656 65.392C520.072 71.5253 522.28 78.5787 522.28 86.552C522.28 93.6667 520.746 100.352 517.68 106.608C514.736 112.741 508.909 119.733 500.2 127.584L481.8 144.328L525.224 144.328ZM595.217 49.2L595.217 178L551.793 178L551.793 81.952L529.713 81.952L529.713 49.2L595.217 49.2Z" fill="#D73042"/>
</g>
</svg>
