<svg width="727" height="224" viewBox="0 0 727 224" fill="none" xmlns="http://www.w3.org/2000/svg">
<path d="M242.709 49.2L242.709 178L199.285 178L199.285 81.952L177.205 81.952L177.205 49.2L242.709 49.2ZM307.655 46.256C320.045 46.256 330.839 48.648 340.039 53.432C349.362 58.216 356.599 65.3307 361.751 74.776C366.903 84.2213 369.479 95.8133 369.479 109.552C369.479 124.272 366.474 137.029 360.463 147.824C354.575 158.619 346.234 166.837 335.439 172.48C324.767 178.123 312.317 180.944 298.087 180.944C290.359 180.944 282.999 180.024 276.007 178.184C269.015 176.467 263.066 174.013 258.159 170.824L273.799 140.464C280.178 145.003 287.967 147.272 297.167 147.272C304.65 147.272 310.783 145.432 315.567 141.752C320.474 137.949 323.663 132.491 325.135 125.376C318.389 130.16 309.863 132.552 299.559 132.552C291.709 132.552 284.41 130.835 277.663 127.4C270.917 123.965 265.519 119.12 261.471 112.864C257.423 106.608 255.399 99.432 255.399 91.336C255.399 82.3813 257.669 74.4693 262.207 67.6C266.869 60.7307 273.186 55.456 281.159 51.776C289.133 48.096 297.965 46.256 307.655 46.256ZM310.599 102.56C314.525 102.56 317.714 101.395 320.167 99.064C322.621 96.6107 323.847 93.36 323.847 89.312C323.847 85.264 322.621 82.0747 320.167 79.744C317.714 77.4133 314.525 76.248 310.599 76.248C306.674 76.248 303.485 77.4133 301.031 79.744C298.578 82.0747 297.351 85.264 297.351 89.312C297.351 93.36 298.578 96.6107 301.031 99.064C303.485 101.395 306.674 102.56 310.599 102.56ZM429.304 46.256C441.693 46.256 452.488 48.648 461.688 53.432C471.011 58.216 478.248 65.3307 483.4 74.776C488.552 84.2213 491.128 95.8133 491.128 109.552C491.128 124.272 488.123 137.029 482.112 147.824C476.224 158.619 467.883 166.837 457.088 172.48C446.416 178.123 433.965 180.944 419.736 180.944C412.008 180.944 404.648 180.024 397.656 178.184C390.664 176.467 384.715 174.013 379.808 170.824L395.448 140.464C401.827 145.003 409.616 147.272 418.816 147.272C426.299 147.272 432.432 145.432 437.216 141.752C442.123 137.949 445.312 132.491 446.784 125.376C440.037 130.16 431.512 132.552 421.208 132.552C413.357 132.552 406.059 130.835 399.312 127.4C392.565 123.965 387.168 119.12 383.12 112.864C379.072 106.608 377.048 99.432 377.048 91.336C377.048 82.3813 379.317 74.4693 383.856 67.6C388.517 60.7307 394.835 55.456 402.808 51.776C410.781 48.096 419.613 46.256 429.304 46.256ZM432.248 102.56C436.173 102.56 439.363 101.395 441.816 99.064C444.269 96.6107 445.496 93.36 445.496 89.312C445.496 85.264 444.269 82.0747 441.816 79.744C439.363 77.4133 436.173 76.248 432.248 76.248C428.323 76.248 425.133 77.4133 422.68 79.744C420.227 82.0747 419 85.264 419 89.312C419 93.36 420.227 96.6107 422.68 99.064C425.133 101.395 428.323 102.56 432.248 102.56ZM572.339 100.168C582.275 102.621 589.881 107.099 595.155 113.6C600.553 119.979 603.251 127.707 603.251 136.784C603.251 144.512 601.105 151.749 596.811 158.496C592.641 165.12 586.139 170.517 577.307 174.688C568.475 178.859 557.497 180.944 544.371 180.944C535.294 180.944 526.217 179.963 517.139 178C508.185 176.037 500.334 173.155 493.587 169.352L508.307 137.336C513.582 140.403 519.225 142.733 525.235 144.328C531.369 145.923 537.257 146.72 542.899 146.72C547.929 146.72 551.977 145.861 555.043 144.144C558.11 142.427 559.643 139.973 559.643 136.784C559.643 130.896 554.553 127.952 544.371 127.952L527.259 127.952V101.272L546.211 81.952L500.211 81.952L500.211 49.2L596.259 49.2L596.259 75.88L572.339 100.168Z" fill="#2DC8C2"/>
<path d="M214.209 49.2L214.209 178L170.785 178L170.785 81.952L148.705 81.952L148.705 49.2L214.209 49.2ZM279.155 46.256C291.545 46.256 302.339 48.648 311.539 53.432C320.862 58.216 328.099 65.3307 333.251 74.776C338.403 84.2213 340.979 95.8133 340.979 109.552C340.979 124.272 337.974 137.029 331.963 147.824C326.075 158.619 317.734 166.837 306.939 172.48C296.267 178.123 283.817 180.944 269.587 180.944C261.859 180.944 254.499 180.024 247.507 178.184C240.515 176.467 234.566 174.013 229.659 170.824L245.299 140.464C251.678 145.003 259.467 147.272 268.667 147.272C276.15 147.272 282.283 145.432 287.067 141.752C291.974 137.949 295.163 132.491 296.635 125.376C289.889 130.16 281.363 132.552 271.059 132.552C263.209 132.552 255.91 130.835 249.163 127.4C242.417 123.965 237.019 119.12 232.971 112.864C228.923 106.608 226.899 99.432 226.899 91.336C226.899 82.3813 229.169 74.4693 233.707 67.6C238.369 60.7307 244.686 55.456 252.659 51.776C260.633 48.096 269.465 46.256 279.155 46.256ZM282.099 102.56C286.025 102.56 289.214 101.395 291.667 99.064C294.121 96.6107 295.347 93.36 295.347 89.312C295.347 85.264 294.121 82.0747 291.667 79.744C289.214 77.4133 286.025 76.248 282.099 76.248C278.174 76.248 274.985 77.4133 272.531 79.744C270.078 82.0747 268.851 85.264 268.851 89.312C268.851 93.36 270.078 96.6107 272.531 99.064C274.985 101.395 278.174 102.56 282.099 102.56ZM400.804 46.256C413.193 46.256 423.988 48.648 433.188 53.432C442.511 58.216 449.748 65.3307 454.9 74.776C460.052 84.2213 462.628 95.8133 462.628 109.552C462.628 124.272 459.623 137.029 453.612 147.824C447.724 158.619 439.383 166.837 428.588 172.48C417.916 178.123 405.465 180.944 391.236 180.944C383.508 180.944 376.148 180.024 369.156 178.184C362.164 176.467 356.215 174.013 351.308 170.824L366.948 140.464C373.327 145.003 381.116 147.272 390.316 147.272C397.799 147.272 403.932 145.432 408.716 141.752C413.623 137.949 416.812 132.491 418.284 125.376C411.537 130.16 403.012 132.552 392.708 132.552C384.857 132.552 377.559 130.835 370.812 127.4C364.065 123.965 358.668 119.12 354.62 112.864C350.572 106.608 348.548 99.432 348.548 91.336C348.548 82.3813 350.817 74.4693 355.356 67.6C360.017 60.7307 366.335 55.456 374.308 51.776C382.281 48.096 391.113 46.256 400.804 46.256ZM403.748 102.56C407.673 102.56 410.863 101.395 413.316 99.064C415.769 96.6107 416.996 93.36 416.996 89.312C416.996 85.264 415.769 82.0747 413.316 79.744C410.863 77.4133 407.673 76.248 403.748 76.248C399.823 76.248 396.633 77.4133 394.18 79.744C391.727 82.0747 390.5 85.264 390.5 89.312C390.5 93.36 391.727 96.6107 394.18 99.064C396.633 101.395 399.823 102.56 403.748 102.56ZM543.839 100.168C553.775 102.621 561.381 107.099 566.655 113.6C572.053 119.979 574.751 127.707 574.751 136.784C574.751 144.512 572.605 151.749 568.311 158.496C564.141 165.12 557.639 170.517 548.807 174.688C539.975 178.859 528.997 180.944 515.871 180.944C506.794 180.944 497.717 179.963 488.639 178C479.685 176.037 471.834 173.155 465.087 169.352L479.807 137.336C485.082 140.403 490.725 142.733 496.735 144.328C502.869 145.923 508.757 146.72 514.399 146.72C519.429 146.72 523.477 145.861 526.543 144.144C529.61 142.427 531.143 139.973 531.143 136.784C531.143 130.896 526.053 127.952 515.871 127.952L498.759 127.952L498.759 101.272L517.711 81.952L471.711 81.952L471.711 49.2L567.759 49.2V75.88L543.839 100.168Z" fill="#D73042"/>
<g style="mix-blend-mode:multiply">
<path d="M242.709 49.2L242.709 178L199.285 178L199.285 81.952L177.205 81.952L177.205 49.2L242.709 49.2ZM307.655 46.256C320.045 46.256 330.839 48.648 340.039 53.432C349.362 58.216 356.599 65.3307 361.751 74.776C366.903 84.2213 369.479 95.8133 369.479 109.552C369.479 124.272 366.474 137.029 360.463 147.824C354.575 158.619 346.234 166.837 335.439 172.48C324.767 178.123 312.317 180.944 298.087 180.944C290.359 180.944 282.999 180.024 276.007 178.184C269.015 176.467 263.066 174.013 258.159 170.824L273.799 140.464C280.178 145.003 287.967 147.272 297.167 147.272C304.65 147.272 310.783 145.432 315.567 141.752C320.474 137.949 323.663 132.491 325.135 125.376C318.389 130.16 309.863 132.552 299.559 132.552C291.709 132.552 284.41 130.835 277.663 127.4C270.917 123.965 265.519 119.12 261.471 112.864C257.423 106.608 255.399 99.432 255.399 91.336C255.399 82.3813 257.669 74.4693 262.207 67.6C266.869 60.7307 273.186 55.456 281.159 51.776C289.133 48.096 297.965 46.256 307.655 46.256ZM310.599 102.56C314.525 102.56 317.714 101.395 320.167 99.064C322.621 96.6107 323.847 93.36 323.847 89.312C323.847 85.264 322.621 82.0747 320.167 79.744C317.714 77.4133 314.525 76.248 310.599 76.248C306.674 76.248 303.485 77.4133 301.031 79.744C298.578 82.0747 297.351 85.264 297.351 89.312C297.351 93.36 298.578 96.6107 301.031 99.064C303.485 101.395 306.674 102.56 310.599 102.56ZM429.304 46.256C441.693 46.256 452.488 48.648 461.688 53.432C471.011 58.216 478.248 65.3307 483.4 74.776C488.552 84.2213 491.128 95.8133 491.128 109.552C491.128 124.272 488.123 137.029 482.112 147.824C476.224 158.619 467.883 166.837 457.088 172.48C446.416 178.123 433.965 180.944 419.736 180.944C412.008 180.944 404.648 180.024 397.656 178.184C390.664 176.467 384.715 174.013 379.808 170.824L395.448 140.464C401.827 145.003 409.616 147.272 418.816 147.272C426.299 147.272 432.432 145.432 437.216 141.752C442.123 137.949 445.312 132.491 446.784 125.376C440.037 130.16 431.512 132.552 421.208 132.552C413.357 132.552 406.059 130.835 399.312 127.4C392.565 123.965 387.168 119.12 383.12 112.864C379.072 106.608 377.048 99.432 377.048 91.336C377.048 82.3813 379.317 74.4693 383.856 67.6C388.517 60.7307 394.835 55.456 402.808 51.776C410.781 48.096 419.613 46.256 429.304 46.256ZM432.248 102.56C436.173 102.56 439.363 101.395 441.816 99.064C444.269 96.6107 445.496 93.36 445.496 89.312C445.496 85.264 444.269 82.0747 441.816 79.744C439.363 77.4133 436.173 76.248 432.248 76.248C428.323 76.248 425.133 77.4133 422.68 79.744C420.227 82.0747 419 85.264 419 89.312C419 93.36 420.227 96.6107 422.68 99.064C425.133 101.395 428.323 102.56 432.248 102.56ZM572.339 100.168C582.275 102.621 589.881 107.099 595.155 113.6C600.553 119.979 603.251 127.707 603.251 136.784C603.251 144.512 601.105 151.749 596.811 158.496C592.641 165.12 586.139 170.517 577.307 174.688C568.475 178.859 557.497 180.944 544.371 180.944C535.294 180.944 526.217 179.963 517.139 178C508.185 176.037 500.334 173.155 493.587 169.352L508.307 137.336C513.582 140.403 519.225 142.733 525.235 144.328C531.369 145.923 537.257 146.72 542.899 146.72C547.929 146.72 551.977 145.861 555.043 144.144C558.11 142.427 559.643 139.973 559.643 136.784C559.643 130.896 554.553 127.952 544.371 127.952L527.259 127.952V101.272L546.211 81.952L500.211 81.952L500.211 49.2L596.259 49.2L596.259 75.88L572.339 100.168Z" fill="#D73042"/>
</g>
</svg>
