<svg width="803" height="524" viewBox="0 0 803 524" fill="none" xmlns="http://www.w3.org/2000/svg">
<path d="M466.304 77.3707C465.733 77.8564 465.302 78.1842 464.73 78.6699C455.911 142.744 469.364 205.82 500.331 259.296C531.634 313.187 580.592 357.319 642.447 383.094L706.368 163.685C702.312 160.324 698.968 156.32 696.184 151.683C695.295 149.988 694.406 148.292 693.668 146.585C692.377 143.597 691.529 140.427 690.842 137.392L466.304 77.3707ZM576.217 219.56L531.756 198.608L571.856 120.038L616.318 140.989L576.217 219.56Z" fill="#DCA432"/>
<path fill-rule="evenodd" clip-rule="evenodd" d="M465.405 77.8573C465.372 77.4187 465.478 76.8221 465.596 76.3716L168.389 364.049C172.719 370.388 172.154 379.507 171.639 387.825C170.974 398.564 170.391 407.969 180.528 408.339C189.51 408.676 197.969 410.645 206.451 412.619C214.816 414.566 223.204 416.519 232.141 416.918C242.214 417.286 240.893 431.188 239.494 445.905C238.394 457.471 237.247 469.539 241.546 475.935L311.611 459.591C311.321 458.206 311.077 456.816 310.877 455.422L642.821 382.588C580.993 356.825 532.058 312.707 500.771 258.834C469.819 205.376 456.376 142.319 465.195 78.2624C462.655 80.2957 460.145 82.4145 457.67 84.6119C460.149 82.2564 462.726 80.0015 465.405 77.8573Z" fill="#6B540E"/>
<path d="M773.978 112.267C787.743 135.962 778.904 166.242 754.332 179.736C735.019 190.247 711.7 187.399 695.915 174.315C691.481 170.64 687.824 166.261 684.78 161.191C683.809 159.337 682.837 157.483 682.031 155.616C680.62 152.348 679.691 148.882 678.941 145.564C675.253 125.426 684.96 104.406 704.427 93.7227C728.999 80.2292 760.202 88.4128 773.978 112.267Z" fill="#662527"/>
<path d="M542.705 114.017L516.649 229.053L607.544 247.697L633.6 132.661L542.705 114.017Z" fill="white"/>
<path d="M573.003 149.531L559.63 208.571L613.886 219.7L627.259 160.659L573.003 149.531Z" fill="black"/>
<path d="M153.904 164.471C153.646 164.825 153.507 165.259 153.249 165.612C163.754 209.295 188.451 246.785 222.071 273.779C256.049 301.017 299.002 317.443 345.692 318.955L331.822 161.31C328.353 160.178 325.075 158.295 322.142 155.941C321.152 155.089 320.163 154.238 319.26 153.269C317.607 151.612 316.245 149.801 315.089 147.954L153.904 164.471ZM261.277 229.434L227.082 226.745L233.294 166.065L267.489 168.754L261.277 229.434Z" fill="#DCA432"/>
<path d="M153.771 163.664C153.837 164.061 153.99 164.34 154.056 164.737C138.737 190.826 138.943 224.697 144.28 253.988C149.803 283.756 158.699 313.542 155.223 343.67C153.142 361.4 194.173 347.918 183.35 360.458C174.08 371.197 137.97 353.918 147.624 368.761L143.062 399.618C133.036 392.602 139.972 399.268 128.08 403.1C116.307 407.014 125.621 371.52 113.848 375.433C131.532 350.208 67.883 336.493 57.7717 329.594L153.771 163.664Z" fill="#7D6212"/>
<path d="M154.348 164.742C164.839 208.363 189.504 245.8 223.081 272.755C257.015 299.955 299.912 316.358 346.543 317.868L164.196 421.433C154.514 406.549 122.294 396.472 125.474 378.911C128.739 361.233 123.699 359.381 125.786 341.603C129.358 311.274 125.443 307.932 119.819 278.2C114.314 248.549 138.984 190.902 154.348 164.742Z" fill="#7D6212"/>
<path d="M367.053 108.226C384.425 122.092 386.65 147.353 372.067 164.508C360.627 177.984 342.161 182.411 326.493 177.099C322.087 175.662 317.925 173.27 314.199 170.281C312.943 169.2 311.687 168.119 310.54 166.889C308.441 164.785 306.711 162.485 305.243 160.139C296.694 146.02 297.636 127.623 309.185 113.998C323.659 96.9923 349.528 94.2558 367.053 108.226Z" fill="#662527"/>
<path d="M211.878 169.437L224.371 249.471L288.869 239.501L276.375 159.467L211.878 169.437Z" fill="white"/>
<path fill-rule="evenodd" clip-rule="evenodd" d="M424.042 261.684C424.218 261.642 424.394 261.598 424.57 261.551C433.714 259.101 439.141 249.702 436.69 240.557C434.24 231.413 424.841 225.986 415.696 228.436C415.521 228.483 415.346 228.533 415.173 228.585L416.209 232.452C416.381 232.398 416.556 232.347 416.732 232.3C423.742 230.422 430.948 234.582 432.827 241.592C434.705 248.603 430.545 255.809 423.534 257.687C423.358 257.735 423.182 257.778 423.006 257.818L424.042 261.684Z" fill="#996633"/>
<path fill-rule="evenodd" clip-rule="evenodd" d="M189.599 290.086C189.72 289.952 189.84 289.815 189.957 289.676C196.075 282.451 195.177 271.635 187.952 265.518C180.727 259.4 169.91 260.298 163.793 267.523C163.675 267.662 163.56 267.802 163.448 267.944L166.503 270.53C166.614 270.388 166.728 270.247 166.846 270.108C171.536 264.569 179.828 263.88 185.367 268.57C190.906 273.26 191.594 281.552 186.905 287.091C186.787 287.231 186.667 287.367 186.544 287.5L189.599 290.086Z" fill="#996633"/>
<path fill-rule="evenodd" clip-rule="evenodd" d="M147.576 237.073C147.636 237.006 147.696 236.938 147.754 236.869C150.792 233.281 150.346 227.909 146.758 224.87C143.17 221.832 137.798 222.278 134.759 225.867C134.701 225.936 134.644 226.005 134.588 226.075L137.644 228.663C137.697 228.591 137.754 228.521 137.812 228.451C139.423 226.549 142.271 226.312 144.173 227.923C146.076 229.534 146.312 232.382 144.701 234.284C144.643 234.354 144.583 234.421 144.521 234.485L147.576 237.073Z" fill="#996633"/>
<path fill-rule="evenodd" clip-rule="evenodd" d="M430.837 305.298C430.942 305.274 431.046 305.248 431.151 305.22C436.58 303.765 439.801 298.185 438.347 292.756C436.892 287.327 431.312 284.106 425.883 285.56C425.779 285.588 425.675 285.618 425.572 285.649L426.608 289.516C426.71 289.483 426.814 289.452 426.918 289.424C430.213 288.541 433.6 290.497 434.483 293.792C435.366 297.086 433.41 300.473 430.115 301.356C430.011 301.384 429.906 301.409 429.801 301.432L430.837 305.298Z" fill="#996633"/>
<path fill-rule="evenodd" clip-rule="evenodd" d="M459.361 339.157C459.537 339.116 459.713 339.072 459.889 339.025C469.033 336.574 474.46 327.175 472.009 318.031C469.559 308.886 460.16 303.46 451.015 305.91C450.84 305.957 450.665 306.007 450.492 306.059L451.528 309.925C451.7 309.871 451.875 309.821 452.051 309.774C459.061 307.895 466.267 312.056 468.146 319.066C470.024 326.077 465.864 333.283 458.853 335.161C458.677 335.208 458.501 335.252 458.325 335.291L459.361 339.157Z" fill="#996633"/>
<path fill-rule="evenodd" clip-rule="evenodd" d="M394.989 297.003C395.165 296.961 395.341 296.917 395.517 296.87C404.661 294.42 410.088 285.02 407.638 275.876C405.188 266.732 395.788 261.305 386.644 263.755C386.468 263.802 386.294 263.852 386.12 263.904L387.156 267.77C387.329 267.717 387.503 267.666 387.679 267.619C394.69 265.74 401.896 269.901 403.774 276.911C405.653 283.922 401.492 291.128 394.482 293.006C394.306 293.053 394.129 293.097 393.953 293.136L394.989 297.003Z" fill="#996633"/>
<path fill-rule="evenodd" clip-rule="evenodd" d="M185.857 335.665C185.978 335.531 186.097 335.394 186.215 335.255C192.332 328.03 191.434 317.214 184.209 311.097C176.984 304.979 166.168 305.877 160.05 313.102C159.933 313.241 159.818 313.382 159.705 313.523L162.76 316.109C162.871 315.967 162.985 315.826 163.103 315.687C167.793 310.148 176.085 309.46 181.624 314.149C187.163 318.839 187.852 327.131 183.162 332.671C183.044 332.81 182.924 332.946 182.802 333.079L185.857 335.665Z" fill="#996633"/>
<path fill-rule="evenodd" clip-rule="evenodd" d="M364.2 264.037C364.522 263.961 364.843 263.88 365.164 263.794C381.863 259.32 391.773 242.155 387.299 225.455C382.824 208.756 365.659 198.846 348.96 203.32C348.639 203.407 348.32 203.497 348.004 203.593L349.04 207.458C349.356 207.362 349.674 207.27 349.995 207.184C364.561 203.281 379.532 211.925 383.435 226.491C387.338 241.056 378.694 256.028 364.129 259.931C363.807 260.017 363.486 260.097 363.164 260.171L364.2 264.037Z" fill="#996633"/>
<path fill-rule="evenodd" clip-rule="evenodd" d="M141.769 326.125C141.99 325.88 142.208 325.631 142.423 325.377C153.594 312.183 151.955 292.43 138.76 281.259C125.566 270.087 105.814 271.727 94.642 284.921C94.4272 285.175 94.2172 285.431 94.0118 285.69L97.0663 288.276C97.2704 288.017 97.4799 287.76 97.6948 287.506C107.439 275.998 124.667 274.567 136.176 284.311C147.684 294.055 149.114 311.284 139.37 322.792C139.155 323.046 138.937 323.295 138.715 323.539L141.769 326.125Z" fill="#996633"/>
<path fill-rule="evenodd" clip-rule="evenodd" d="M258.422 336.652C258.488 336.578 258.554 336.503 258.619 336.426C261.992 332.443 261.497 326.479 257.513 323.107C253.53 319.734 247.567 320.229 244.194 324.212C244.129 324.289 244.066 324.366 244.004 324.444L247.059 327.031C247.119 326.952 247.182 326.874 247.247 326.797C249.192 324.5 252.631 324.214 254.928 326.159C257.226 328.105 257.511 331.544 255.566 333.841C255.501 333.918 255.434 333.993 255.366 334.065L258.422 336.652Z" fill="#996633"/>
<path fill-rule="evenodd" clip-rule="evenodd" d="M367.891 334.776C367.988 334.753 368.085 334.729 368.182 334.703C373.223 333.352 376.215 328.17 374.864 323.128C373.513 318.087 368.331 315.095 363.29 316.446C363.193 316.472 363.097 316.499 363.001 316.528L364.037 320.395C364.132 320.364 364.228 320.336 364.325 320.31C367.233 319.53 370.222 321.256 371.001 324.164C371.78 327.071 370.054 330.06 367.146 330.839C367.049 330.865 366.952 330.889 366.855 330.909L367.891 334.776Z" fill="#996633"/>
<path fill-rule="evenodd" clip-rule="evenodd" d="M185.119 382.148C185.185 382.074 185.251 381.998 185.316 381.922C188.689 377.938 188.194 371.975 184.21 368.602C180.227 365.23 174.264 365.725 170.891 369.708C170.826 369.785 170.763 369.862 170.701 369.94L173.756 372.527C173.816 372.448 173.879 372.37 173.944 372.293C175.889 369.995 179.328 369.71 181.625 371.655C183.923 373.6 184.208 377.04 182.263 379.337C182.198 379.414 182.131 379.488 182.063 379.561L185.119 382.148Z" fill="#996633"/>
<path fill-rule="evenodd" clip-rule="evenodd" d="M508.871 329.684C509.047 329.642 509.223 329.598 509.399 329.551C518.543 327.101 523.97 317.702 521.52 308.557C519.069 299.413 509.67 293.986 500.526 296.436C500.35 296.483 500.175 296.533 500.002 296.585L501.038 300.452C501.211 300.398 501.385 300.347 501.561 300.3C508.571 298.422 515.777 302.582 517.656 309.592C519.534 316.603 515.374 323.809 508.363 325.687C508.187 325.735 508.011 325.778 507.835 325.818L508.871 329.684Z" fill="#996633"/>
<path d="M246 191.004L251.793 228.72L286.184 222.716L280.391 185L246 191.004Z" fill="black"/>
<path d="M797.337 307.004L600.868 488.97L560.616 522.993L243.604 523.537L201.115 489.839L140.205 434.184L0.386963 306.243L150.747 323.526L209.528 330.157L303.769 340.919L346.896 345.81H347.216L407.594 352.767L491.293 342.44L519.192 338.962L736.533 312.113L772.206 307.656L789.244 305.591L797.337 307.004Z" fill="#996633"/>
</svg>
