<svg width="1497" height="759" viewBox="0 0 1497 759" fill="none" xmlns="http://www.w3.org/2000/svg">
<circle cx="396.5" cy="379.5" r="379.5" fill="#089D94"/>
<path d="M1047.14 364.875L1039.21 379.604C1038.64 380.654 1037.98 381.437 1037.21 381.954C1036.46 382.454 1035.64 382.704 1034.74 382.704C1034.08 382.704 1033.36 382.546 1032.6 382.229L1033.12 380.729C1033.72 380.962 1034.27 381.079 1034.77 381.079C1035.92 381.079 1036.85 380.454 1037.59 379.204L1038.09 378.353L1031 364.875H1032.97L1039.06 376.728L1045.3 364.875H1047.14Z" fill="black"/>
<path d="M1049.08 369.226H1050.85V375.053H1059.11V369.226H1060.88V382.379H1059.11V376.578H1050.85V382.379H1049.08V369.226Z" fill="black"/>
<path d="M1065.91 369.226H1067.68V379.679L1076.44 369.226H1078.01V382.379H1076.24V371.927L1067.51 382.379H1065.91V369.226Z" fill="black"/>
<path d="M1087.86 376.528H1084.86V382.379H1083.09V369.226H1084.86V375.003H1087.88L1092.5 369.226H1094.42L1089.25 375.603L1094.79 382.379H1092.7L1087.86 376.528Z" fill="black"/>
<path d="M1101.86 369.126C1103.57 369.126 1104.89 369.56 1105.8 370.427C1106.72 371.277 1107.17 372.544 1107.17 374.227V382.379H1105.48V380.329C1105.08 381.012 1104.49 381.546 1103.71 381.929C1102.94 382.313 1102.03 382.504 1100.96 382.504C1099.5 382.504 1098.33 382.154 1097.47 381.454C1096.6 380.754 1096.17 379.829 1096.17 378.678C1096.17 377.561 1096.57 376.661 1097.37 375.978C1098.18 375.294 1099.47 374.953 1101.24 374.953H1105.4V374.152C1105.4 373.019 1105.09 372.16 1104.45 371.577C1103.82 370.977 1102.9 370.677 1101.68 370.677C1100.85 370.677 1100.05 370.818 1099.29 371.102C1098.52 371.368 1097.87 371.744 1097.32 372.227L1096.52 370.902C1097.19 370.335 1097.98 369.902 1098.91 369.601C1099.85 369.285 1100.83 369.126 1101.86 369.126ZM1101.24 381.104C1102.23 381.104 1103.09 380.879 1103.81 380.429C1104.52 379.962 1105.05 379.295 1105.4 378.428V376.278H1101.29C1099.04 376.278 1097.92 377.061 1097.92 378.628C1097.92 379.395 1098.21 380.004 1098.79 380.454C1099.37 380.887 1100.19 381.104 1101.24 381.104Z" fill="black"/>
<path d="M1122.62 369.226V382.379H1120.85V370.802H1114.56L1114.38 374.052C1114.25 376.786 1113.93 378.887 1113.44 380.354C1112.94 381.821 1112.05 382.554 1110.77 382.554C1110.42 382.554 1109.99 382.488 1109.49 382.354L1109.62 380.829C1109.92 380.896 1110.13 380.929 1110.24 380.929C1110.92 380.929 1111.44 380.612 1111.79 379.979C1112.14 379.345 1112.37 378.562 1112.49 377.628C1112.6 376.695 1112.7 375.461 1112.79 373.927L1113.01 369.226H1122.62Z" fill="black"/>
<path d="M1133.29 373.877C1134.94 373.894 1136.19 374.261 1137.03 374.978C1137.9 375.694 1138.33 376.728 1138.33 378.078C1138.33 379.479 1137.87 380.554 1136.93 381.304C1136.02 382.054 1134.69 382.421 1132.94 382.404L1127.65 382.379V369.226H1129.42V373.827L1133.29 373.877ZM1132.84 381.054C1134.06 381.071 1134.97 380.829 1135.59 380.329C1136.22 379.812 1136.53 379.062 1136.53 378.078C1136.53 377.111 1136.23 376.395 1135.61 375.928C1135 375.461 1134.07 375.219 1132.84 375.203L1129.42 375.153V381.004L1132.84 381.054Z" fill="black"/>
<path d="M1141.71 369.226H1143.48V375.053H1151.74V369.226H1153.51V382.379H1151.74V376.578H1143.48V382.379H1141.71V369.226Z" fill="black"/>
<path d="M1163.06 369.126C1164.78 369.126 1166.09 369.56 1167.01 370.427C1167.92 371.277 1168.38 372.544 1168.38 374.227V382.379H1166.68V380.329C1166.28 381.012 1165.69 381.546 1164.91 381.929C1164.14 382.313 1163.23 382.504 1162.16 382.504C1160.7 382.504 1159.54 382.154 1158.67 381.454C1157.81 380.754 1157.37 379.829 1157.37 378.678C1157.37 377.561 1157.77 376.661 1158.57 375.978C1159.39 375.294 1160.68 374.953 1162.44 374.953H1166.61V374.152C1166.61 373.019 1166.29 372.16 1165.66 371.577C1165.03 370.977 1164.1 370.677 1162.89 370.677C1162.06 370.677 1161.26 370.818 1160.49 371.102C1159.73 371.368 1159.07 371.744 1158.52 372.227L1157.72 370.902C1158.39 370.335 1159.19 369.902 1160.12 369.601C1161.05 369.285 1162.03 369.126 1163.06 369.126ZM1162.44 381.104C1163.44 381.104 1164.29 380.879 1165.01 380.429C1165.72 379.962 1166.26 379.295 1166.61 378.428V376.278H1162.49C1160.24 376.278 1159.12 377.061 1159.12 378.628C1159.12 379.395 1159.41 380.004 1159.99 380.454C1160.58 380.887 1161.39 381.104 1162.44 381.104Z" fill="black"/>
<path d="M1183.17 369.226V382.379H1181.55V378.028H1177.43H1176.94L1173.89 382.379H1171.97L1175.24 377.778C1174.22 377.495 1173.44 377.011 1172.89 376.328C1172.34 375.644 1172.07 374.778 1172.07 373.727C1172.07 372.26 1172.57 371.143 1173.57 370.377C1174.56 369.61 1175.93 369.226 1177.66 369.226H1183.17ZM1173.87 373.777C1173.87 375.728 1175.11 376.703 1177.58 376.703H1181.55V370.802H1177.71C1175.15 370.802 1173.87 371.794 1173.87 373.777Z" fill="black"/>
<path d="M1201.51 369.126C1202.75 369.126 1203.86 369.41 1204.86 369.977C1205.86 370.527 1206.64 371.31 1207.2 372.327C1207.77 373.344 1208.05 374.502 1208.05 375.803C1208.05 377.12 1207.77 378.287 1207.2 379.304C1206.64 380.32 1205.86 381.112 1204.86 381.679C1203.88 382.229 1202.76 382.504 1201.51 382.504C1200.45 382.504 1199.49 382.288 1198.62 381.854C1197.77 381.404 1197.07 380.754 1196.52 379.904V387.23H1194.75V369.226H1196.45V371.827C1196.98 370.96 1197.68 370.293 1198.55 369.826C1199.43 369.36 1200.42 369.126 1201.51 369.126ZM1201.39 380.929C1202.3 380.929 1203.14 380.721 1203.88 380.304C1204.63 379.87 1205.22 379.262 1205.63 378.478C1206.06 377.695 1206.28 376.803 1206.28 375.803C1206.28 374.803 1206.06 373.919 1205.63 373.152C1205.22 372.369 1204.63 371.76 1203.88 371.327C1203.14 370.893 1202.3 370.677 1201.39 370.677C1200.46 370.677 1199.62 370.893 1198.87 371.327C1198.14 371.76 1197.56 372.369 1197.12 373.152C1196.71 373.919 1196.5 374.803 1196.5 375.803C1196.5 376.803 1196.71 377.695 1197.12 378.478C1197.56 379.262 1198.14 379.87 1198.87 380.304C1199.62 380.721 1200.46 380.929 1201.39 380.929Z" fill="black"/>
<path d="M1217.37 373.877C1219.02 373.894 1220.27 374.261 1221.14 374.978C1222 375.694 1222.44 376.728 1222.44 378.078C1222.44 379.479 1221.97 380.554 1221.04 381.304C1220.11 382.054 1218.78 382.421 1217.05 382.404L1211.86 382.379V369.226H1213.63V373.827L1217.37 373.877ZM1224.63 369.226H1226.4V382.379H1224.63V369.226ZM1216.95 381.054C1218.16 381.071 1219.08 380.829 1219.69 380.329C1220.32 379.812 1220.64 379.062 1220.64 378.078C1220.64 377.111 1220.33 376.395 1219.72 375.928C1219.1 375.461 1218.18 375.219 1216.95 375.203L1213.63 375.153V381.004L1216.95 381.054Z" fill="black"/>
<path d="M1237.81 369.551C1239.02 369.551 1240.1 369.826 1241.05 370.377C1242.02 370.91 1242.77 371.669 1243.3 372.652C1243.83 373.619 1244.1 374.728 1244.1 375.978C1244.1 377.261 1243.81 378.403 1243.25 379.404C1242.7 380.387 1241.93 381.154 1240.93 381.704C1239.93 382.254 1238.78 382.529 1237.48 382.529C1235.31 382.529 1233.62 381.762 1232.42 380.229C1231.22 378.695 1230.62 376.578 1230.62 373.877C1230.62 371.06 1231.16 368.901 1232.22 367.401C1233.3 365.901 1234.98 364.884 1237.26 364.35L1243.15 363L1243.45 364.625L1237.91 365.901C1236.03 366.317 1234.65 367.059 1233.77 368.126C1232.89 369.176 1232.4 370.735 1232.32 372.802C1232.85 371.785 1233.59 370.993 1234.54 370.427C1235.49 369.843 1236.58 369.551 1237.81 369.551ZM1237.53 381.054C1238.45 381.054 1239.26 380.846 1239.98 380.429C1240.71 379.995 1241.28 379.395 1241.68 378.628C1242.09 377.862 1242.3 376.995 1242.3 376.028C1242.3 375.061 1242.1 374.211 1241.7 373.477C1241.3 372.744 1240.74 372.177 1240 371.777C1239.29 371.36 1238.47 371.152 1237.53 371.152C1236.6 371.152 1235.77 371.36 1235.04 371.777C1234.32 372.177 1233.76 372.744 1233.34 373.477C1232.94 374.211 1232.74 375.061 1232.74 376.028C1232.74 376.995 1232.94 377.862 1233.34 378.628C1233.76 379.395 1234.33 379.995 1235.06 380.429C1235.8 380.846 1236.62 381.054 1237.53 381.054Z" fill="black"/>
<path d="M1252.34 369.126C1254.05 369.126 1255.36 369.56 1256.28 370.427C1257.19 371.277 1257.65 372.544 1257.65 374.227V382.379H1255.95V380.329C1255.55 381.012 1254.96 381.546 1254.18 381.929C1253.42 382.313 1252.5 382.504 1251.44 382.504C1249.97 382.504 1248.81 382.154 1247.94 381.454C1247.08 380.754 1246.65 379.829 1246.65 378.678C1246.65 377.561 1247.05 376.661 1247.84 375.978C1248.66 375.294 1249.95 374.953 1251.71 374.953H1255.88V374.152C1255.88 373.019 1255.56 372.16 1254.93 371.577C1254.3 370.977 1253.37 370.677 1252.16 370.677C1251.33 370.677 1250.53 370.818 1249.77 371.102C1249 371.368 1248.34 371.744 1247.79 372.227L1247 370.902C1247.66 370.335 1248.46 369.902 1249.39 369.601C1250.32 369.285 1251.3 369.126 1252.34 369.126ZM1251.71 381.104C1252.71 381.104 1253.57 380.879 1254.28 380.429C1255 379.962 1255.53 379.295 1255.88 378.428V376.278H1251.76C1249.52 376.278 1248.39 377.061 1248.39 378.628C1248.39 379.395 1248.68 380.004 1249.27 380.454C1249.85 380.887 1250.66 381.104 1251.71 381.104Z" fill="black"/>
<path d="M1273.66 376.528H1270.67V382.379H1268.89V369.226H1270.67V375.003H1273.69L1278.3 369.226H1280.22L1275.06 375.603L1280.6 382.379H1278.5L1273.66 376.528Z" fill="black"/>
<path d="M1294.12 369.226V382.379H1292.35V370.802H1286.06L1285.89 374.052C1285.75 376.786 1285.44 378.887 1284.94 380.354C1284.44 381.821 1283.55 382.554 1282.27 382.554C1281.92 382.554 1281.5 382.488 1281 382.354L1281.12 380.829C1281.42 380.896 1281.63 380.929 1281.75 380.929C1282.43 380.929 1282.94 380.612 1283.29 379.979C1283.64 379.345 1283.87 378.562 1283.99 377.628C1284.11 376.695 1284.21 375.461 1284.29 373.927L1284.51 369.226H1294.12Z" fill="black"/>
<path d="M1304.57 382.504C1303.31 382.504 1302.17 382.221 1301.15 381.654C1300.14 381.071 1299.34 380.27 1298.76 379.254C1298.17 378.237 1297.88 377.086 1297.88 375.803C1297.88 374.519 1298.17 373.369 1298.76 372.352C1299.34 371.335 1300.14 370.543 1301.15 369.977C1302.17 369.41 1303.31 369.126 1304.57 369.126C1305.83 369.126 1306.97 369.41 1307.99 369.977C1309 370.543 1309.79 371.335 1310.36 372.352C1310.94 373.369 1311.23 374.519 1311.23 375.803C1311.23 377.086 1310.94 378.237 1310.36 379.254C1309.79 380.27 1309 381.071 1307.99 381.654C1306.97 382.221 1305.83 382.504 1304.57 382.504ZM1304.57 380.929C1305.5 380.929 1306.33 380.721 1307.06 380.304C1307.81 379.87 1308.4 379.262 1308.81 378.478C1309.23 377.695 1309.44 376.803 1309.44 375.803C1309.44 374.803 1309.23 373.911 1308.81 373.127C1308.4 372.344 1307.81 371.744 1307.06 371.327C1306.33 370.893 1305.5 370.677 1304.57 370.677C1303.64 370.677 1302.8 370.893 1302.05 371.327C1301.32 371.744 1300.74 372.344 1300.3 373.127C1299.89 373.911 1299.68 374.803 1299.68 375.803C1299.68 376.803 1299.89 377.695 1300.3 378.478C1300.74 379.262 1301.32 379.87 1302.05 380.304C1302.8 380.721 1303.64 380.929 1304.57 380.929Z" fill="black"/>
<path d="M1325.8 369.226L1319.24 383.955C1318.71 385.188 1318.09 386.063 1317.4 386.58C1316.7 387.097 1315.86 387.355 1314.88 387.355C1314.24 387.355 1313.65 387.255 1313.11 387.055C1312.56 386.855 1312.08 386.555 1311.68 386.155L1312.51 384.83C1313.17 385.497 1313.97 385.83 1314.9 385.83C1315.5 385.83 1316.01 385.663 1316.42 385.33C1316.86 384.996 1317.25 384.43 1317.62 383.629L1318.19 382.354L1312.33 369.226H1314.18L1319.12 380.404L1324.06 369.226H1325.8Z" fill="black"/>
<path d="M1328.56 369.226H1330.34V375.053H1338.59V369.226H1340.37V382.379H1338.59V376.578H1330.34V382.379H1328.56V369.226Z" fill="black"/>
<path d="M1357.34 382.504C1356.08 382.504 1354.94 382.221 1353.93 381.654C1352.91 381.071 1352.11 380.27 1351.53 379.254C1350.95 378.237 1350.66 377.086 1350.66 375.803C1350.66 374.519 1350.95 373.369 1351.53 372.352C1352.11 371.335 1352.91 370.543 1353.93 369.977C1354.94 369.41 1356.08 369.126 1357.34 369.126C1358.61 369.126 1359.75 369.41 1360.76 369.977C1361.78 370.543 1362.57 371.335 1363.13 372.352C1363.71 373.369 1364.01 374.519 1364.01 375.803C1364.01 377.086 1363.71 378.237 1363.13 379.254C1362.57 380.27 1361.78 381.071 1360.76 381.654C1359.75 382.221 1358.61 382.504 1357.34 382.504ZM1357.34 380.929C1358.28 380.929 1359.11 380.721 1359.84 380.304C1360.59 379.87 1361.17 379.262 1361.59 378.478C1362 377.695 1362.21 376.803 1362.21 375.803C1362.21 374.803 1362 373.911 1361.59 373.127C1361.17 372.344 1360.59 371.744 1359.84 371.327C1359.11 370.893 1358.28 370.677 1357.34 370.677C1356.41 370.677 1355.57 370.893 1354.82 371.327C1354.09 371.744 1353.51 372.344 1353.08 373.127C1352.66 373.911 1352.45 374.803 1352.45 375.803C1352.45 376.803 1352.66 377.695 1353.08 378.478C1353.51 379.262 1354.09 379.87 1354.82 380.304C1355.57 380.721 1356.41 380.929 1357.34 380.929Z" fill="black"/>
<path d="M1374.15 369.551C1375.37 369.551 1376.45 369.826 1377.4 370.377C1378.36 370.91 1379.11 371.669 1379.64 372.652C1380.17 373.619 1380.44 374.728 1380.44 375.978C1380.44 377.261 1380.16 378.403 1379.59 379.404C1379.04 380.387 1378.27 381.154 1377.27 381.704C1376.27 382.254 1375.13 382.529 1373.83 382.529C1371.65 382.529 1369.96 381.762 1368.76 380.229C1367.57 378.695 1366.97 376.578 1366.97 373.877C1366.97 371.06 1367.5 368.901 1368.56 367.401C1369.65 365.901 1371.33 364.884 1373.6 364.35L1379.49 363L1379.79 364.625L1374.25 365.901C1372.37 366.317 1370.99 367.059 1370.11 368.126C1369.23 369.176 1368.75 370.735 1368.66 372.802C1369.2 371.785 1369.94 370.993 1370.89 370.427C1371.83 369.843 1372.92 369.551 1374.15 369.551ZM1373.88 381.054C1374.79 381.054 1375.61 380.846 1376.32 380.429C1377.06 379.995 1377.62 379.395 1378.02 378.628C1378.44 377.862 1378.64 376.995 1378.64 376.028C1378.64 375.061 1378.44 374.211 1378.05 373.477C1377.65 372.744 1377.08 372.177 1376.35 371.777C1375.63 371.36 1374.81 371.152 1373.88 371.152C1372.95 371.152 1372.12 371.36 1371.38 371.777C1370.67 372.177 1370.1 372.744 1369.69 373.477C1369.29 374.211 1369.09 375.061 1369.09 376.028C1369.09 376.995 1369.29 377.862 1369.69 378.628C1370.1 379.395 1370.68 379.995 1371.41 380.429C1372.14 380.846 1372.96 381.054 1373.88 381.054Z" fill="black"/>
<path d="M1384.24 369.226H1386.01V379.679L1394.77 369.226H1396.34V382.379H1394.57V371.927L1385.83 382.379H1384.24V369.226Z" fill="black"/>
<path d="M1410.65 370.802H1405.68V382.379H1403.91V370.802H1398.94V369.226H1410.65V370.802Z" fill="black"/>
<path d="M1417.72 369.126C1419.44 369.126 1420.75 369.56 1421.66 370.427C1422.58 371.277 1423.04 372.544 1423.04 374.227V382.379H1421.34V380.329C1420.94 381.012 1420.35 381.546 1419.57 381.929C1418.8 382.313 1417.89 382.504 1416.82 382.504C1415.36 382.504 1414.2 382.154 1413.33 381.454C1412.47 380.754 1412.03 379.829 1412.03 378.678C1412.03 377.561 1412.43 376.661 1413.23 375.978C1414.05 375.294 1415.34 374.953 1417.1 374.953H1421.27V374.152C1421.27 373.019 1420.95 372.16 1420.32 371.577C1419.69 370.977 1418.76 370.677 1417.55 370.677C1416.72 370.677 1415.92 370.818 1415.15 371.102C1414.39 371.368 1413.73 371.744 1413.18 372.227L1412.38 370.902C1413.05 370.335 1413.85 369.902 1414.78 369.601C1415.71 369.285 1416.69 369.126 1417.72 369.126ZM1417.1 381.104C1418.1 381.104 1418.95 380.879 1419.67 380.429C1420.38 379.962 1420.92 379.295 1421.27 378.428V376.278H1417.15C1414.9 376.278 1413.78 377.061 1413.78 378.628C1413.78 379.395 1414.07 380.004 1414.65 380.454C1415.24 380.887 1416.05 381.104 1417.1 381.104Z" fill="black"/>
<path d="M1439.23 376.353H1428.25C1428.35 377.72 1428.88 378.828 1429.82 379.679C1430.77 380.512 1431.97 380.929 1433.42 380.929C1434.23 380.929 1434.98 380.787 1435.66 380.504C1436.34 380.204 1436.93 379.77 1437.43 379.204L1438.43 380.354C1437.85 381.054 1437.12 381.587 1436.24 381.954C1435.37 382.321 1434.41 382.504 1433.37 382.504C1432.02 382.504 1430.82 382.221 1429.77 381.654C1428.74 381.071 1427.94 380.27 1427.35 379.254C1426.77 378.237 1426.48 377.086 1426.48 375.803C1426.48 374.519 1426.75 373.369 1427.3 372.352C1427.87 371.335 1428.63 370.543 1429.6 369.977C1430.58 369.41 1431.68 369.126 1432.89 369.126C1434.11 369.126 1435.2 369.41 1436.16 369.977C1437.13 370.543 1437.88 371.335 1438.43 372.352C1438.98 373.352 1439.25 374.502 1439.25 375.803L1439.23 376.353ZM1432.89 370.652C1431.63 370.652 1430.56 371.06 1429.7 371.877C1428.85 372.677 1428.37 373.727 1428.25 375.028H1437.56C1437.44 373.727 1436.95 372.677 1436.09 371.877C1435.24 371.06 1434.17 370.652 1432.89 370.652Z" fill="black"/>
<path d="M1451.82 370.802H1446.86V382.379H1445.09V370.802H1440.12V369.226H1451.82V370.802Z" fill="black"/>
<path d="M1041.35 405.793C1043.13 406.209 1044.02 407.285 1044.02 409.018C1044.02 410.169 1043.6 411.052 1042.75 411.669C1041.9 412.286 1040.64 412.594 1038.96 412.594H1033V399.441H1038.78C1040.28 399.441 1041.45 399.733 1042.3 400.316C1043.15 400.9 1043.57 401.733 1043.57 402.817C1043.57 403.534 1043.37 404.151 1042.98 404.667C1042.59 405.167 1042.05 405.543 1041.35 405.793ZM1034.72 405.293H1038.66C1039.67 405.293 1040.45 405.101 1040.98 404.717C1041.53 404.334 1041.8 403.776 1041.8 403.042C1041.8 402.309 1041.53 401.758 1040.98 401.392C1040.45 401.025 1039.67 400.842 1038.66 400.842H1034.72V405.293ZM1038.88 411.194C1040.02 411.194 1040.86 411.01 1041.43 410.644C1041.99 410.277 1042.28 409.702 1042.28 408.918C1042.28 408.135 1042.02 407.56 1041.5 407.193C1040.99 406.81 1040.17 406.618 1039.06 406.618H1034.72V411.194H1038.88Z" fill="black"/>
<path d="M1063.06 405.793C1064.84 406.209 1065.73 407.285 1065.73 409.018C1065.73 410.169 1065.31 411.052 1064.46 411.669C1063.61 412.286 1062.35 412.594 1060.67 412.594H1054.7V399.441H1060.49C1061.99 399.441 1063.16 399.733 1064.01 400.316C1064.86 400.9 1065.28 401.733 1065.28 402.817C1065.28 403.534 1065.08 404.151 1064.68 404.667C1064.3 405.167 1063.76 405.543 1063.06 405.793ZM1056.43 405.293H1060.37C1061.38 405.293 1062.16 405.101 1062.69 404.717C1063.24 404.334 1063.51 403.776 1063.51 403.042C1063.51 402.309 1063.24 401.758 1062.69 401.392C1062.16 401.025 1061.38 400.842 1060.37 400.842H1056.43V405.293ZM1060.59 411.194C1061.72 411.194 1062.57 411.01 1063.14 410.644C1063.7 410.277 1063.99 409.702 1063.99 408.918C1063.99 408.135 1063.73 407.56 1063.21 407.193C1062.7 406.81 1061.88 406.618 1060.77 406.618H1056.43V411.194H1060.59Z" fill="black"/>
<path d="M1075.3 412.719C1074.03 412.719 1072.89 412.436 1071.88 411.869C1070.87 411.285 1070.07 410.485 1069.48 409.468C1068.9 408.452 1068.61 407.301 1068.61 406.018C1068.61 404.734 1068.9 403.584 1069.48 402.567C1070.07 401.55 1070.87 400.758 1071.88 400.191C1072.89 399.625 1074.03 399.341 1075.3 399.341C1076.56 399.341 1077.7 399.625 1078.72 400.191C1079.73 400.758 1080.52 401.55 1081.09 402.567C1081.67 403.584 1081.96 404.734 1081.96 406.018C1081.96 407.301 1081.67 408.452 1081.09 409.468C1080.52 410.485 1079.73 411.285 1078.72 411.869C1077.7 412.436 1076.56 412.719 1075.3 412.719ZM1075.3 411.144C1076.23 411.144 1077.06 410.935 1077.79 410.519C1078.54 410.085 1079.12 409.477 1079.54 408.693C1079.96 407.91 1080.16 407.018 1080.16 406.018C1080.16 405.017 1079.96 404.126 1079.54 403.342C1079.12 402.559 1078.54 401.958 1077.79 401.542C1077.06 401.108 1076.23 400.892 1075.3 400.892C1074.37 400.892 1073.53 401.108 1072.78 401.542C1072.05 401.958 1071.46 402.559 1071.03 403.342C1070.62 404.126 1070.41 405.017 1070.41 406.018C1070.41 407.018 1070.62 407.91 1071.03 408.693C1071.46 409.477 1072.05 410.085 1072.78 410.519C1073.53 410.935 1074.37 411.144 1075.3 411.144Z" fill="black"/>
<path d="M1098.47 411.044V415.77H1096.8V412.594H1085.05V415.77H1083.38V411.044H1084.13C1085.01 410.994 1085.61 410.344 1085.92 409.093C1086.24 407.843 1086.45 406.093 1086.57 403.842L1086.75 399.441H1096.43V411.044H1098.47ZM1088.19 403.942C1088.11 405.809 1087.95 407.351 1087.72 408.568C1087.49 409.769 1087.07 410.594 1086.47 411.044H1094.65V401.017H1088.34L1088.19 403.942Z" fill="black"/>
<path d="M1106.44 399.341C1108.15 399.341 1109.47 399.775 1110.38 400.642C1111.3 401.492 1111.75 402.759 1111.75 404.442V412.594H1110.06V410.544C1109.66 411.227 1109.07 411.761 1108.29 412.144C1107.52 412.527 1106.61 412.719 1105.54 412.719C1104.08 412.719 1102.91 412.369 1102.05 411.669C1101.18 410.969 1100.75 410.044 1100.75 408.893C1100.75 407.776 1101.15 406.876 1101.95 406.193C1102.76 405.509 1104.05 405.167 1105.82 405.167H1109.98V404.367C1109.98 403.234 1109.67 402.375 1109.03 401.792C1108.4 401.192 1107.48 400.892 1106.26 400.892C1105.43 400.892 1104.63 401.033 1103.87 401.317C1103.1 401.583 1102.45 401.958 1101.9 402.442L1101.1 401.117C1101.77 400.55 1102.56 400.116 1103.5 399.816C1104.43 399.5 1105.41 399.341 1106.44 399.341ZM1105.82 411.319C1106.81 411.319 1107.67 411.094 1108.39 410.644C1109.1 410.177 1109.63 409.51 1109.98 408.643V406.493H1105.87C1103.62 406.493 1102.5 407.276 1102.5 408.843C1102.5 409.61 1102.79 410.219 1103.37 410.669C1103.95 411.102 1104.77 411.319 1105.82 411.319Z" fill="black"/>
<path d="M1124.68 412.594L1120.51 407.093L1116.32 412.594H1114.32L1119.51 405.843L1114.57 399.441H1116.57L1120.51 404.592L1124.45 399.441H1126.4L1121.46 405.843L1126.7 412.594H1124.68Z" fill="black"/>
<path d="M1136.56 395.09H1138.38V409.593L1149.55 395.09H1151.23V412.594H1149.4V398.116L1138.23 412.594H1136.56V395.09Z" fill="black"/>
<path d="M1156.7 399.441H1158.47V405.268H1166.73V399.441H1168.5V412.594H1166.73V406.793H1158.47V412.594H1156.7V399.441Z" fill="black"/>
<path d="M1186.33 411.044V415.77H1184.66V412.594H1172.91V415.77H1171.24V411.044H1171.98C1172.87 410.994 1173.47 410.344 1173.78 409.093C1174.1 407.843 1174.31 406.093 1174.43 403.842L1174.6 399.441H1184.28V411.044H1186.33ZM1176.05 403.942C1175.97 405.809 1175.81 407.351 1175.58 408.568C1175.34 409.769 1174.93 410.594 1174.33 411.044H1182.51V401.017H1176.2L1176.05 403.942Z" fill="black"/>
<path d="M1189.78 399.441H1191.55V409.894L1200.31 399.441H1201.88V412.594H1200.11V402.142L1191.38 412.594H1189.78V399.441Z" fill="black"/>
<path d="M1206.96 399.441H1208.73V409.894L1217.49 399.441H1219.06V412.594H1217.29V402.142L1208.56 412.594H1206.96V399.441ZM1212.92 397.541C1211.79 397.541 1210.89 397.257 1210.23 396.691C1209.56 396.124 1209.22 395.324 1209.21 394.29H1210.48C1210.49 394.94 1210.73 395.465 1211.18 395.865C1211.63 396.249 1212.21 396.441 1212.92 396.441C1213.64 396.441 1214.22 396.249 1214.67 395.865C1215.13 395.465 1215.38 394.94 1215.39 394.29H1216.67C1216.65 395.324 1216.3 396.124 1215.62 396.691C1214.95 397.257 1214.05 397.541 1212.92 397.541Z" fill="black"/>
<path d="M1229.63 412.719C1228.33 412.719 1227.16 412.436 1226.13 411.869C1225.12 411.302 1224.32 410.51 1223.74 409.493C1223.16 408.46 1222.86 407.301 1222.86 406.018C1222.86 404.734 1223.16 403.584 1223.74 402.567C1224.32 401.55 1225.12 400.758 1226.13 400.191C1227.16 399.625 1228.33 399.341 1229.63 399.341C1230.76 399.341 1231.76 399.566 1232.64 400.016C1233.54 400.45 1234.25 401.092 1234.77 401.942L1233.44 402.842C1233.01 402.192 1232.46 401.708 1231.8 401.392C1231.13 401.058 1230.41 400.892 1229.63 400.892C1228.68 400.892 1227.82 401.108 1227.06 401.542C1226.31 401.958 1225.72 402.559 1225.28 403.342C1224.87 404.126 1224.66 405.017 1224.66 406.018C1224.66 407.035 1224.87 407.935 1225.28 408.718C1225.72 409.485 1226.31 410.085 1227.06 410.519C1227.82 410.935 1228.68 411.144 1229.63 411.144C1230.41 411.144 1231.13 410.985 1231.8 410.669C1232.46 410.352 1233.01 409.869 1233.44 409.218L1234.77 410.119C1234.25 410.969 1233.54 411.619 1232.64 412.069C1231.75 412.502 1230.74 412.719 1229.63 412.719Z" fill="black"/>
<path d="M1242.96 406.743H1239.97V412.594H1238.2V399.441H1239.97V405.218H1242.99L1247.6 399.441H1249.52L1244.36 405.818L1249.9 412.594H1247.8L1242.96 406.743Z" fill="black"/>
<path d="M1257.64 412.719C1256.38 412.719 1255.24 412.436 1254.23 411.869C1253.21 411.285 1252.41 410.485 1251.83 409.468C1251.25 408.452 1250.96 407.301 1250.96 406.018C1250.96 404.734 1251.25 403.584 1251.83 402.567C1252.41 401.55 1253.21 400.758 1254.23 400.191C1255.24 399.625 1256.38 399.341 1257.64 399.341C1258.91 399.341 1260.05 399.625 1261.06 400.191C1262.08 400.758 1262.87 401.55 1263.43 402.567C1264.01 403.584 1264.31 404.734 1264.31 406.018C1264.31 407.301 1264.01 408.452 1263.43 409.468C1262.87 410.485 1262.08 411.285 1261.06 411.869C1260.05 412.436 1258.91 412.719 1257.64 412.719ZM1257.64 411.144C1258.57 411.144 1259.41 410.935 1260.14 410.519C1260.89 410.085 1261.47 409.477 1261.88 408.693C1262.3 407.91 1262.51 407.018 1262.51 406.018C1262.51 405.017 1262.3 404.126 1261.88 403.342C1261.47 402.559 1260.89 401.958 1260.14 401.542C1259.41 401.108 1258.57 400.892 1257.64 400.892C1256.71 400.892 1255.87 401.108 1255.12 401.542C1254.39 401.958 1253.81 402.559 1253.38 403.342C1252.96 404.126 1252.75 405.017 1252.75 406.018C1252.75 407.018 1252.96 407.91 1253.38 408.693C1253.81 409.477 1254.39 410.085 1255.12 410.519C1255.87 410.935 1256.71 411.144 1257.64 411.144Z" fill="black"/>
<path d="M1277.37 401.017H1269.86V412.594H1268.09V399.441H1277.37V401.017Z" fill="black"/>
<path d="M1284.74 412.719C1283.47 412.719 1282.33 412.436 1281.32 411.869C1280.3 411.285 1279.51 410.485 1278.92 409.468C1278.34 408.452 1278.05 407.301 1278.05 406.018C1278.05 404.734 1278.34 403.584 1278.92 402.567C1279.51 401.55 1280.3 400.758 1281.32 400.191C1282.33 399.625 1283.47 399.341 1284.74 399.341C1286 399.341 1287.14 399.625 1288.16 400.191C1289.17 400.758 1289.96 401.55 1290.53 402.567C1291.11 403.584 1291.4 404.734 1291.4 406.018C1291.4 407.301 1291.11 408.452 1290.53 409.468C1289.96 410.485 1289.17 411.285 1288.16 411.869C1287.14 412.436 1286 412.719 1284.74 412.719ZM1284.74 411.144C1285.67 411.144 1286.5 410.935 1287.23 410.519C1287.98 410.085 1288.56 409.477 1288.98 408.693C1289.39 407.91 1289.6 407.018 1289.6 406.018C1289.6 405.017 1289.39 404.126 1288.98 403.342C1288.56 402.559 1287.98 401.958 1287.23 401.542C1286.5 401.108 1285.67 400.892 1284.74 400.892C1283.81 400.892 1282.97 401.108 1282.22 401.542C1281.49 401.958 1280.9 402.559 1280.47 403.342C1280.05 404.126 1279.85 405.017 1279.85 406.018C1279.85 407.018 1280.05 407.91 1280.47 408.693C1280.9 409.477 1281.49 410.085 1282.22 410.519C1282.97 410.935 1283.81 411.144 1284.74 411.144Z" fill="black"/>
<path d="M1307.13 412.719C1305.86 412.719 1304.72 412.436 1303.71 411.869C1302.7 411.285 1301.9 410.485 1301.32 409.468C1300.73 408.452 1300.44 407.301 1300.44 406.018C1300.44 404.734 1300.73 403.584 1301.32 402.567C1301.9 401.55 1302.7 400.758 1303.71 400.191C1304.72 399.625 1305.86 399.341 1307.13 399.341C1308.39 399.341 1309.53 399.625 1310.55 400.191C1311.56 400.758 1312.35 401.55 1312.92 402.567C1313.5 403.584 1313.79 404.734 1313.79 406.018C1313.79 407.301 1313.5 408.452 1312.92 409.468C1312.35 410.485 1311.56 411.285 1310.55 411.869C1309.53 412.436 1308.39 412.719 1307.13 412.719ZM1307.13 411.144C1308.06 411.144 1308.89 410.935 1309.62 410.519C1310.37 410.085 1310.95 409.477 1311.37 408.693C1311.79 407.91 1311.99 407.018 1311.99 406.018C1311.99 405.017 1311.79 404.126 1311.37 403.342C1310.95 402.559 1310.37 401.958 1309.62 401.542C1308.89 401.108 1308.06 400.892 1307.13 400.892C1306.2 400.892 1305.36 401.108 1304.61 401.542C1303.88 401.958 1303.29 402.559 1302.86 403.342C1302.45 404.126 1302.24 405.017 1302.24 406.018C1302.24 407.018 1302.45 407.91 1302.86 408.693C1303.29 409.477 1303.88 410.085 1304.61 410.519C1305.36 410.935 1306.2 411.144 1307.13 411.144Z" fill="black"/>
<path d="M1322.34 406.743H1319.35V412.594H1317.58V399.441H1319.35V405.218H1322.37L1326.98 399.441H1328.9L1323.74 405.818L1329.28 412.594H1327.18L1322.34 406.743Z" fill="black"/>
<path d="M1343.09 406.568H1332.11C1332.21 407.935 1332.73 409.043 1333.68 409.894C1334.63 410.727 1335.83 411.144 1337.27 411.144C1338.09 411.144 1338.84 411.002 1339.52 410.719C1340.2 410.419 1340.79 409.985 1341.29 409.418L1342.29 410.569C1341.71 411.269 1340.97 411.802 1340.09 412.169C1339.23 412.536 1338.27 412.719 1337.22 412.719C1335.88 412.719 1334.68 412.436 1333.63 411.869C1332.6 411.285 1331.79 410.485 1331.21 409.468C1330.63 408.452 1330.34 407.301 1330.34 406.018C1330.34 404.734 1330.61 403.584 1331.16 402.567C1331.73 401.55 1332.49 400.758 1333.46 400.191C1334.44 399.625 1335.54 399.341 1336.75 399.341C1337.96 399.341 1339.05 399.625 1340.02 400.191C1340.98 400.758 1341.74 401.55 1342.29 402.567C1342.84 403.567 1343.11 404.717 1343.11 406.018L1343.09 406.568ZM1336.75 400.867C1335.49 400.867 1334.42 401.275 1333.56 402.092C1332.71 402.892 1332.23 403.942 1332.11 405.243H1341.41C1341.3 403.942 1340.81 402.892 1339.94 402.092C1339.09 401.275 1338.03 400.867 1336.75 400.867Z" fill="black"/>
<path d="M1351.18 399.341C1352.9 399.341 1354.21 399.775 1355.12 400.642C1356.04 401.492 1356.5 402.759 1356.5 404.442V412.594H1354.8V410.544C1354.4 411.227 1353.81 411.761 1353.03 412.144C1352.26 412.527 1351.35 412.719 1350.28 412.719C1348.82 412.719 1347.66 412.369 1346.79 411.669C1345.93 410.969 1345.49 410.044 1345.49 408.893C1345.49 407.776 1345.89 406.876 1346.69 406.193C1347.51 405.509 1348.8 405.167 1350.56 405.167H1354.73V404.367C1354.73 403.234 1354.41 402.375 1353.78 401.792C1353.15 401.192 1352.22 400.892 1351.01 400.892C1350.18 400.892 1349.38 401.033 1348.61 401.317C1347.85 401.583 1347.19 401.958 1346.64 402.442L1345.84 401.117C1346.51 400.55 1347.31 400.116 1348.24 399.816C1349.17 399.5 1350.15 399.341 1351.18 399.341ZM1350.56 411.319C1351.56 411.319 1352.41 411.094 1353.13 410.644C1353.84 410.177 1354.38 409.51 1354.73 408.643V406.493H1350.61C1348.36 406.493 1347.24 407.276 1347.24 408.843C1347.24 409.61 1347.53 410.219 1348.11 410.669C1348.7 411.102 1349.51 411.319 1350.56 411.319Z" fill="black"/>
<path d="M1361.21 399.441H1362.98V405.268H1371.24V399.441H1373.01V412.594H1371.24V406.793H1362.98V412.594H1361.21V399.441Z" fill="black"/>
<path d="M1382.56 399.341C1384.28 399.341 1385.59 399.775 1386.51 400.642C1387.42 401.492 1387.88 402.759 1387.88 404.442V412.594H1386.18V410.544C1385.78 411.227 1385.19 411.761 1384.41 412.144C1383.65 412.527 1382.73 412.719 1381.67 412.719C1380.2 412.719 1379.04 412.369 1378.17 411.669C1377.31 410.969 1376.88 410.044 1376.88 408.893C1376.88 407.776 1377.28 406.876 1378.07 406.193C1378.89 405.509 1380.18 405.167 1381.94 405.167H1386.11V404.367C1386.11 403.234 1385.79 402.375 1385.16 401.792C1384.53 401.192 1383.6 400.892 1382.39 400.892C1381.56 400.892 1380.76 401.033 1379.99 401.317C1379.23 401.583 1378.57 401.958 1378.02 402.442L1377.23 401.117C1377.89 400.55 1378.69 400.116 1379.62 399.816C1380.55 399.5 1381.53 399.341 1382.56 399.341ZM1381.94 411.319C1382.94 411.319 1383.8 411.094 1384.51 410.644C1385.23 410.177 1385.76 409.51 1386.11 408.643V406.493H1381.99C1379.75 406.493 1378.62 407.276 1378.62 408.843C1378.62 409.61 1378.91 410.219 1379.5 410.669C1380.08 411.102 1380.89 411.319 1381.94 411.319Z" fill="black"/>
<path d="M1392.72 412.719C1392.35 412.719 1392.04 412.586 1391.77 412.319C1391.52 412.052 1391.4 411.727 1391.4 411.344C1391.4 410.96 1391.52 410.644 1391.77 410.394C1392.04 410.127 1392.35 409.994 1392.72 409.994C1393.09 409.994 1393.4 410.127 1393.67 410.394C1393.93 410.644 1394.07 410.96 1394.07 411.344C1394.07 411.727 1393.93 412.052 1393.67 412.319C1393.4 412.586 1393.09 412.719 1392.72 412.719Z" fill="black"/>
<path d="M1417.19 410.994V412.594H1404.84V395.09H1416.81V396.691H1406.68V402.917H1415.71V404.492H1406.68V410.994H1417.19Z" fill="black"/>
<path d="M1432.14 406.568H1421.16C1421.26 407.935 1421.79 409.043 1422.73 409.894C1423.68 410.727 1424.88 411.144 1426.33 411.144C1427.14 411.144 1427.89 411.002 1428.57 410.719C1429.25 410.419 1429.84 409.985 1430.34 409.418L1431.34 410.569C1430.76 411.269 1430.03 411.802 1429.15 412.169C1428.28 412.536 1427.32 412.719 1426.28 412.719C1424.93 412.719 1423.73 412.436 1422.68 411.869C1421.65 411.285 1420.85 410.485 1420.26 409.468C1419.68 408.452 1419.39 407.301 1419.39 406.018C1419.39 404.734 1419.66 403.584 1420.21 402.567C1420.78 401.55 1421.54 400.758 1422.51 400.191C1423.49 399.625 1424.59 399.341 1425.8 399.341C1427.02 399.341 1428.11 399.625 1429.07 400.191C1430.04 400.758 1430.79 401.55 1431.34 402.567C1431.89 403.567 1432.16 404.717 1432.16 406.018L1432.14 406.568ZM1425.8 400.867C1424.54 400.867 1423.47 401.275 1422.61 402.092C1421.76 402.892 1421.28 403.942 1421.16 405.243H1430.47C1430.35 403.942 1429.86 402.892 1429 402.092C1428.15 401.275 1427.08 400.867 1425.8 400.867ZM1423.58 396.816C1423.28 396.816 1423.02 396.716 1422.81 396.516C1422.61 396.316 1422.51 396.057 1422.51 395.74C1422.51 395.44 1422.61 395.19 1422.81 394.99C1423.02 394.774 1423.28 394.665 1423.58 394.665C1423.86 394.665 1424.11 394.774 1424.33 394.99C1424.55 395.19 1424.65 395.44 1424.65 395.74C1424.65 396.041 1424.55 396.299 1424.33 396.516C1424.13 396.716 1423.88 396.816 1423.58 396.816ZM1428.02 396.816C1427.72 396.816 1427.47 396.716 1427.25 396.516C1427.05 396.299 1426.95 396.041 1426.95 395.74C1426.95 395.44 1427.06 395.19 1427.27 394.99C1427.49 394.774 1427.74 394.665 1428.02 394.665C1428.32 394.665 1428.57 394.774 1428.77 394.99C1428.99 395.19 1429.1 395.44 1429.1 395.74C1429.1 396.057 1428.99 396.316 1428.77 396.516C1428.57 396.716 1428.32 396.816 1428.02 396.816Z" fill="black"/>
<path d="M1450.97 405.793C1452.75 406.209 1453.64 407.285 1453.64 409.018C1453.64 410.169 1453.22 411.052 1452.37 411.669C1451.52 412.286 1450.26 412.594 1448.58 412.594H1442.62V399.441H1448.4C1449.9 399.441 1451.07 399.733 1451.92 400.316C1452.77 400.9 1453.19 401.733 1453.19 402.817C1453.19 403.534 1452.99 404.151 1452.6 404.667C1452.21 405.167 1451.67 405.543 1450.97 405.793ZM1444.34 405.293H1448.28C1449.29 405.293 1450.07 405.101 1450.6 404.717C1451.15 404.334 1451.42 403.776 1451.42 403.042C1451.42 402.309 1451.15 401.758 1450.6 401.392C1450.07 401.025 1449.29 400.842 1448.28 400.842H1444.34V405.293ZM1448.5 411.194C1449.63 411.194 1450.48 411.01 1451.05 410.644C1451.61 410.277 1451.9 409.702 1451.9 408.918C1451.9 408.135 1451.64 407.56 1451.12 407.193C1450.61 406.81 1449.79 406.618 1448.68 406.618H1444.34V411.194H1448.5Z" fill="black"/>
<path d="M1462.56 406.743H1459.57V412.594H1457.79V399.441H1459.57V405.218H1462.58L1467.2 399.441H1469.12L1463.96 405.818L1469.5 412.594H1467.4L1462.56 406.743Z" fill="black"/>
<path d="M1482.69 399.441L1476.13 414.169C1475.59 415.403 1474.98 416.278 1474.28 416.795C1473.58 417.312 1472.74 417.57 1471.76 417.57C1471.13 417.57 1470.54 417.47 1469.99 417.27C1469.44 417.07 1468.97 416.77 1468.57 416.37L1469.39 415.045C1470.06 415.711 1470.85 416.045 1471.79 416.045C1472.38 416.045 1472.89 415.878 1473.31 415.545C1473.74 415.211 1474.14 414.645 1474.51 413.844L1475.08 412.569L1469.22 399.441H1471.06L1476 410.619L1480.94 399.441H1482.69Z" fill="black"/>
<path d="M1490.57 412.719C1489.27 412.719 1488.11 412.436 1487.08 411.869C1486.06 411.302 1485.27 410.51 1484.68 409.493C1484.1 408.46 1483.81 407.301 1483.81 406.018C1483.81 404.734 1484.1 403.584 1484.68 402.567C1485.27 401.55 1486.06 400.758 1487.08 400.191C1488.11 399.625 1489.27 399.341 1490.57 399.341C1491.7 399.341 1492.71 399.566 1493.59 400.016C1494.49 400.45 1495.2 401.092 1495.71 401.942L1494.39 402.842C1493.96 402.192 1493.41 401.708 1492.74 401.392C1492.08 401.058 1491.35 400.892 1490.57 400.892C1489.62 400.892 1488.77 401.108 1488 401.542C1487.25 401.958 1486.66 402.559 1486.23 403.342C1485.81 404.126 1485.61 405.017 1485.61 406.018C1485.61 407.035 1485.81 407.935 1486.23 408.718C1486.66 409.485 1487.25 410.085 1488 410.519C1488.77 410.935 1489.62 411.144 1490.57 411.144C1491.35 411.144 1492.08 410.985 1492.74 410.669C1493.41 410.352 1493.96 409.869 1494.39 409.218L1495.71 410.119C1495.2 410.969 1494.49 411.619 1493.59 412.069C1492.69 412.502 1491.69 412.719 1490.57 412.719Z" fill="black"/>
<path d="M1043.08 429.656V442.809H1041.45V438.458H1037.34H1036.84L1033.79 442.809H1031.87L1035.14 438.208C1034.13 437.925 1033.35 437.441 1032.8 436.758C1032.25 436.074 1031.97 435.207 1031.97 434.157C1031.97 432.69 1032.47 431.573 1033.47 430.806C1034.47 430.04 1035.83 429.656 1037.56 429.656H1043.08ZM1033.77 434.207C1033.77 436.158 1035.01 437.133 1037.49 437.133H1041.45V431.231H1037.61C1035.05 431.231 1033.77 432.223 1033.77 434.207Z" fill="black"/>
<path d="M1054.89 429.556C1056.12 429.556 1057.23 429.84 1058.23 430.406C1059.23 430.956 1060.01 431.74 1060.58 432.757C1061.14 433.774 1061.42 434.932 1061.42 436.233C1061.42 437.55 1061.14 438.716 1060.58 439.733C1060.01 440.75 1059.23 441.542 1058.23 442.109C1057.25 442.659 1056.14 442.934 1054.89 442.934C1053.82 442.934 1052.86 442.717 1051.99 442.284C1051.15 441.834 1050.45 441.184 1049.9 440.333V447.66H1048.13V429.656H1049.82V432.257C1050.36 431.39 1051.05 430.723 1051.92 430.256C1052.8 429.79 1053.79 429.556 1054.89 429.556ZM1054.76 441.359C1055.68 441.359 1056.51 441.15 1057.26 440.734C1058.01 440.3 1058.59 439.692 1059 438.908C1059.44 438.125 1059.65 437.233 1059.65 436.233C1059.65 435.232 1059.44 434.349 1059 433.582C1058.59 432.799 1058.01 432.19 1057.26 431.757C1056.51 431.323 1055.68 431.106 1054.76 431.106C1053.83 431.106 1052.99 431.323 1052.24 431.757C1051.51 432.19 1050.93 432.799 1050.5 433.582C1050.08 434.349 1049.87 435.232 1049.87 436.233C1049.87 437.233 1050.08 438.125 1050.5 438.908C1050.93 439.692 1051.51 440.3 1052.24 440.734C1052.99 441.15 1053.83 441.359 1054.76 441.359Z" fill="black"/>
<path d="M1070 436.958H1067V442.809H1065.23V429.656H1067V435.432H1070.02L1074.64 429.656H1076.56L1071.39 436.033L1076.93 442.809H1074.84L1070 436.958Z" fill="black"/>
<path d="M1079.73 429.656H1081.5V440.108L1090.26 429.656H1091.83V442.809H1090.06V432.357L1081.32 442.809H1079.73V429.656Z" fill="black"/>
<path d="M1096.9 429.656H1098.68V440.108L1107.43 429.656H1109.01V442.809H1107.23V432.357L1098.5 442.809H1096.9V429.656ZM1102.87 427.756C1101.74 427.756 1100.84 427.472 1100.17 426.906C1099.51 426.339 1099.17 425.539 1099.15 424.505H1100.42C1100.44 425.155 1100.67 425.68 1101.12 426.08C1101.57 426.464 1102.15 426.656 1102.87 426.656C1103.58 426.656 1104.16 426.464 1104.61 426.08C1105.08 425.68 1105.32 425.155 1105.34 424.505H1106.61C1106.59 425.539 1106.24 426.339 1105.56 426.906C1104.9 427.472 1104 427.756 1102.87 427.756Z" fill="black"/>
<path d="M1120.61 429.656H1122.38V440.108L1131.14 429.656H1132.71V442.809H1130.94V432.357L1122.21 442.809H1120.61V429.656Z" fill="black"/>
<path d="M1155.47 429.656L1148.91 444.384C1148.38 445.618 1147.76 446.493 1147.06 447.01C1146.36 447.527 1145.52 447.785 1144.54 447.785C1143.91 447.785 1143.32 447.685 1142.77 447.485C1142.22 447.285 1141.75 446.985 1141.35 446.585L1142.17 445.26C1142.84 445.926 1143.64 446.26 1144.57 446.26C1145.17 446.26 1145.67 446.093 1146.09 445.76C1146.52 445.426 1146.92 444.859 1147.29 444.059L1147.86 442.784L1142 429.656H1143.84L1148.78 440.834L1153.72 429.656H1155.47Z" fill="black"/>
<path d="M1172.9 429.656V442.809H1171.28V432.407L1165.96 441.209H1165.17L1159.85 432.382V442.809H1158.23V429.656H1160.03L1165.59 439.133L1171.25 429.656H1172.9Z" fill="black"/>
<path d="M1189.42 436.783H1178.44C1178.54 438.15 1179.06 439.258 1180.01 440.108C1180.96 440.942 1182.16 441.359 1183.61 441.359C1184.42 441.359 1185.17 441.217 1185.85 440.934C1186.53 440.634 1187.12 440.2 1187.62 439.633L1188.62 440.784C1188.04 441.484 1187.31 442.017 1186.42 442.384C1185.56 442.751 1184.6 442.934 1183.56 442.934C1182.21 442.934 1181.01 442.651 1179.96 442.084C1178.93 441.5 1178.12 440.7 1177.54 439.683C1176.96 438.666 1176.67 437.516 1176.67 436.233C1176.67 434.949 1176.94 433.799 1177.49 432.782C1178.06 431.765 1178.82 430.973 1179.79 430.406C1180.77 429.84 1181.87 429.556 1183.08 429.556C1184.3 429.556 1185.38 429.84 1186.35 430.406C1187.31 430.973 1188.07 431.765 1188.62 432.782C1189.17 433.782 1189.44 434.932 1189.44 436.233L1189.42 436.783ZM1183.08 431.081C1181.82 431.081 1180.75 431.49 1179.89 432.307C1179.04 433.107 1178.56 434.157 1178.44 435.457H1187.75C1187.63 434.157 1187.14 433.107 1186.27 432.307C1185.43 431.49 1184.36 431.081 1183.08 431.081Z" fill="black"/>
<path d="M1200.13 429.556C1201.36 429.556 1202.47 429.84 1203.47 430.406C1204.47 430.956 1205.25 431.74 1205.81 432.757C1206.38 433.774 1206.66 434.932 1206.66 436.233C1206.66 437.55 1206.38 438.716 1205.81 439.733C1205.25 440.75 1204.47 441.542 1203.47 442.109C1202.49 442.659 1201.37 442.934 1200.13 442.934C1199.06 442.934 1198.1 442.717 1197.23 442.284C1196.38 441.834 1195.68 441.184 1195.14 440.333V447.66H1193.36V429.656H1195.06V432.257C1195.59 431.39 1196.29 430.723 1197.16 430.256C1198.04 429.79 1199.03 429.556 1200.13 429.556ZM1200 441.359C1200.92 441.359 1201.75 441.15 1202.5 440.734C1203.24 440.3 1203.83 439.692 1204.24 438.908C1204.67 438.125 1204.89 437.233 1204.89 436.233C1204.89 435.232 1204.67 434.349 1204.24 433.582C1203.83 432.799 1203.24 432.19 1202.5 431.757C1201.75 431.323 1200.92 431.106 1200 431.106C1199.07 431.106 1198.23 431.323 1197.48 431.757C1196.75 432.19 1196.17 432.799 1195.73 433.582C1195.32 434.349 1195.11 435.232 1195.11 436.233C1195.11 437.233 1195.32 438.125 1195.73 438.908C1196.17 439.692 1196.75 440.3 1197.48 440.734C1198.23 441.15 1199.07 441.359 1200 441.359Z" fill="black"/>
<path d="M1221.95 436.783H1210.97C1211.07 438.15 1211.59 439.258 1212.54 440.108C1213.49 440.942 1214.68 441.359 1216.13 441.359C1216.95 441.359 1217.7 441.217 1218.38 440.934C1219.06 440.634 1219.65 440.2 1220.15 439.633L1221.15 440.784C1220.56 441.484 1219.83 442.017 1218.95 442.384C1218.09 442.751 1217.13 442.934 1216.08 442.934C1214.73 442.934 1213.54 442.651 1212.49 442.084C1211.46 441.5 1210.65 440.7 1210.07 439.683C1209.49 438.666 1209.2 437.516 1209.2 436.233C1209.2 434.949 1209.47 433.799 1210.02 432.782C1210.58 431.765 1211.35 430.973 1212.31 430.406C1213.3 429.84 1214.39 429.556 1215.61 429.556C1216.82 429.556 1217.91 429.84 1218.88 430.406C1219.84 430.973 1220.6 431.765 1221.15 432.782C1221.7 433.782 1221.97 434.932 1221.97 436.233L1221.95 436.783ZM1215.61 431.081C1214.34 431.081 1213.28 431.49 1212.41 432.307C1211.57 433.107 1211.08 434.157 1210.97 435.457H1220.27C1220.16 434.157 1219.67 433.107 1218.8 432.307C1217.95 431.49 1216.89 431.081 1215.61 431.081Z" fill="black"/>
<path d="M1225.89 429.656H1227.66V435.482H1235.92V429.656H1237.69V442.809H1235.92V437.008H1227.66V442.809H1225.89V429.656Z" fill="black"/>
<path d="M1242.73 429.656H1244.5V435.482H1252.76V429.656H1254.53V442.809H1252.76V437.008H1244.5V442.809H1242.73V429.656Z" fill="black"/>
<path d="M1264.98 442.934C1263.71 442.934 1262.57 442.651 1261.56 442.084C1260.54 441.5 1259.75 440.7 1259.16 439.683C1258.58 438.666 1258.29 437.516 1258.29 436.233C1258.29 434.949 1258.58 433.799 1259.16 432.782C1259.75 431.765 1260.54 430.973 1261.56 430.406C1262.57 429.84 1263.71 429.556 1264.98 429.556C1266.24 429.556 1267.38 429.84 1268.4 430.406C1269.41 430.973 1270.2 431.765 1270.77 432.782C1271.35 433.799 1271.64 434.949 1271.64 436.233C1271.64 437.516 1271.35 438.666 1270.77 439.683C1270.2 440.7 1269.41 441.5 1268.4 442.084C1267.38 442.651 1266.24 442.934 1264.98 442.934ZM1264.98 441.359C1265.91 441.359 1266.74 441.15 1267.47 440.734C1268.22 440.3 1268.8 439.692 1269.22 438.908C1269.63 438.125 1269.84 437.233 1269.84 436.233C1269.84 435.232 1269.63 434.341 1269.22 433.557C1268.8 432.773 1268.22 432.173 1267.47 431.757C1266.74 431.323 1265.91 431.106 1264.98 431.106C1264.05 431.106 1263.21 431.323 1262.46 431.757C1261.73 432.173 1261.14 432.773 1260.71 433.557C1260.3 434.341 1260.09 435.232 1260.09 436.233C1260.09 437.233 1260.3 438.125 1260.71 438.908C1261.14 439.692 1261.73 440.3 1262.46 440.734C1263.21 441.15 1264.05 441.359 1264.98 441.359Z" fill="black"/>
<path d="M1287.44 442.934C1286.15 442.934 1284.98 442.651 1283.95 442.084C1282.94 441.517 1282.14 440.725 1281.56 439.708C1280.97 438.675 1280.68 437.516 1280.68 436.233C1280.68 434.949 1280.97 433.799 1281.56 432.782C1282.14 431.765 1282.94 430.973 1283.95 430.406C1284.98 429.84 1286.15 429.556 1287.44 429.556C1288.57 429.556 1289.58 429.781 1290.46 430.231C1291.36 430.665 1292.07 431.307 1292.58 432.157L1291.26 433.057C1290.83 432.407 1290.28 431.923 1289.61 431.607C1288.95 431.273 1288.23 431.106 1287.44 431.106C1286.5 431.106 1285.64 431.323 1284.87 431.757C1284.13 432.173 1283.53 432.773 1283.1 433.557C1282.69 434.341 1282.48 435.232 1282.48 436.233C1282.48 437.249 1282.69 438.15 1283.1 438.933C1283.53 439.7 1284.13 440.3 1284.87 440.734C1285.64 441.15 1286.5 441.359 1287.44 441.359C1288.23 441.359 1288.95 441.2 1289.61 440.884C1290.28 440.567 1290.83 440.083 1291.26 439.433L1292.58 440.333C1292.07 441.184 1291.36 441.834 1290.46 442.284C1289.56 442.717 1288.56 442.934 1287.44 442.934Z" fill="black"/>
<path d="M1301.21 442.934C1299.94 442.934 1298.8 442.651 1297.79 442.084C1296.77 441.5 1295.98 440.7 1295.39 439.683C1294.81 438.666 1294.52 437.516 1294.52 436.233C1294.52 434.949 1294.81 433.799 1295.39 432.782C1295.98 431.765 1296.77 430.973 1297.79 430.406C1298.8 429.84 1299.94 429.556 1301.21 429.556C1302.47 429.556 1303.61 429.84 1304.63 430.406C1305.64 430.973 1306.43 431.765 1307 432.782C1307.58 433.799 1307.87 434.949 1307.87 436.233C1307.87 437.516 1307.58 438.666 1307 439.683C1306.43 440.7 1305.64 441.5 1304.63 442.084C1303.61 442.651 1302.47 442.934 1301.21 442.934ZM1301.21 441.359C1302.14 441.359 1302.97 441.15 1303.7 440.734C1304.45 440.3 1305.03 439.692 1305.45 438.908C1305.86 438.125 1306.07 437.233 1306.07 436.233C1306.07 435.232 1305.86 434.341 1305.45 433.557C1305.03 432.773 1304.45 432.173 1303.7 431.757C1302.97 431.323 1302.14 431.106 1301.21 431.106C1300.28 431.106 1299.44 431.323 1298.69 431.757C1297.96 432.173 1297.37 432.773 1296.94 433.557C1296.53 434.341 1296.32 435.232 1296.32 436.233C1296.32 437.233 1296.53 438.125 1296.94 438.908C1297.37 439.692 1297.96 440.3 1298.69 440.734C1299.44 441.15 1300.28 441.359 1301.21 441.359Z" fill="black"/>
<path d="M1322.31 429.656V442.809H1320.54V431.231H1314.25L1314.08 434.482C1313.94 437.216 1313.63 439.317 1313.13 440.784C1312.63 442.251 1311.74 442.984 1310.46 442.984C1310.11 442.984 1309.69 442.917 1309.19 442.784L1309.31 441.259C1309.61 441.325 1309.82 441.359 1309.94 441.359C1310.62 441.359 1311.13 441.042 1311.48 440.408C1311.83 439.775 1312.06 438.992 1312.18 438.058C1312.3 437.124 1312.4 435.891 1312.48 434.357L1312.7 429.656H1322.31Z" fill="black"/>
<path d="M1338.82 436.783H1327.84C1327.94 438.15 1328.47 439.258 1329.42 440.108C1330.36 440.942 1331.56 441.359 1333.01 441.359C1333.82 441.359 1334.57 441.217 1335.25 440.934C1335.94 440.634 1336.53 440.2 1337.03 439.633L1338.02 440.784C1337.44 441.484 1336.71 442.017 1335.83 442.384C1334.96 442.751 1334.01 442.934 1332.96 442.934C1331.61 442.934 1330.41 442.651 1329.37 442.084C1328.34 441.5 1327.53 440.7 1326.95 439.683C1326.36 438.666 1326.07 437.516 1326.07 436.233C1326.07 434.949 1326.35 433.799 1326.9 432.782C1327.46 431.765 1328.23 430.973 1329.19 430.406C1330.17 429.84 1331.27 429.556 1332.49 429.556C1333.7 429.556 1334.79 429.84 1335.75 430.406C1336.72 430.973 1337.48 431.765 1338.02 432.782C1338.57 433.782 1338.85 434.932 1338.85 436.233L1338.82 436.783ZM1332.49 431.081C1331.22 431.081 1330.16 431.49 1329.29 432.307C1328.44 433.107 1327.96 434.157 1327.84 435.457H1337.15C1337.03 434.157 1336.54 433.107 1335.68 432.307C1334.83 431.49 1333.77 431.081 1332.49 431.081Z" fill="black"/>
<path d="M1342.77 429.656H1344.54V435.482H1352.8V429.656H1354.57V442.809H1352.8V437.008H1344.54V442.809H1342.77V429.656Z" fill="black"/>
<path d="M1365.12 434.307C1366.77 434.324 1368.02 434.691 1368.89 435.407C1369.75 436.124 1370.18 437.158 1370.18 438.508C1370.18 439.908 1369.72 440.984 1368.79 441.734C1367.85 442.484 1366.52 442.851 1364.79 442.834L1359.6 442.809V429.656H1361.38V434.257L1365.12 434.307ZM1372.38 429.656H1374.15V442.809H1372.38V429.656ZM1364.69 441.484C1365.91 441.5 1366.82 441.259 1367.44 440.759C1368.07 440.242 1368.39 439.492 1368.39 438.508C1368.39 437.541 1368.08 436.824 1367.46 436.358C1366.85 435.891 1365.93 435.649 1364.69 435.632L1361.38 435.582V441.434L1364.69 441.484Z" fill="black"/>
<path d="M1379.19 429.656H1380.97V440.108L1389.72 429.656H1391.29V442.809H1389.52V432.357L1380.79 442.809H1379.19V429.656ZM1385.16 427.756C1384.03 427.756 1383.13 427.472 1382.46 426.906C1381.8 426.339 1381.46 425.539 1381.44 424.505H1382.71C1382.73 425.155 1382.96 425.68 1383.41 426.08C1383.86 426.464 1384.44 426.656 1385.16 426.656C1385.87 426.656 1386.45 426.464 1386.9 426.08C1387.37 425.68 1387.61 425.155 1387.63 424.505H1388.9C1388.88 425.539 1388.53 426.339 1387.85 426.906C1387.19 427.472 1386.29 427.756 1385.16 427.756Z" fill="black"/>
<path d="M1396.52 440.208C1396.9 440.208 1397.22 440.342 1397.47 440.609C1397.72 440.859 1397.84 441.175 1397.84 441.559C1397.84 441.759 1397.81 441.976 1397.74 442.209C1397.69 442.442 1397.61 442.709 1397.49 443.009L1396.45 446.46H1395.25L1396.1 442.834C1395.83 442.751 1395.61 442.601 1395.45 442.384C1395.28 442.151 1395.2 441.875 1395.2 441.559C1395.2 441.175 1395.32 440.859 1395.57 440.609C1395.82 440.342 1396.14 440.208 1396.52 440.208Z" fill="black"/>
<path d="M1413.68 442.934C1412.38 442.934 1411.22 442.651 1410.18 442.084C1409.17 441.517 1408.37 440.725 1407.79 439.708C1407.21 438.675 1406.92 437.516 1406.92 436.233C1406.92 434.949 1407.21 433.799 1407.79 432.782C1408.37 431.765 1409.17 430.973 1410.18 430.406C1411.22 429.84 1412.38 429.556 1413.68 429.556C1414.81 429.556 1415.81 429.781 1416.7 430.231C1417.59 430.665 1418.3 431.307 1418.82 432.157L1417.49 433.057C1417.06 432.407 1416.51 431.923 1415.85 431.607C1415.18 431.273 1414.46 431.106 1413.68 431.106C1412.73 431.106 1411.87 431.323 1411.11 431.757C1410.36 432.173 1409.77 432.773 1409.34 433.557C1408.92 434.341 1408.71 435.232 1408.71 436.233C1408.71 437.249 1408.92 438.15 1409.34 438.933C1409.77 439.7 1410.36 440.3 1411.11 440.734C1411.87 441.15 1412.73 441.359 1413.68 441.359C1414.46 441.359 1415.18 441.2 1415.85 440.884C1416.51 440.567 1417.06 440.083 1417.49 439.433L1418.82 440.333C1418.3 441.184 1417.59 441.834 1416.7 442.284C1415.8 442.717 1414.79 442.934 1413.68 442.934Z" fill="black"/>
<path d="M1427.44 442.934C1426.18 442.934 1425.04 442.651 1424.02 442.084C1423.01 441.5 1422.21 440.7 1421.63 439.683C1421.05 438.666 1420.75 437.516 1420.75 436.233C1420.75 434.949 1421.05 433.799 1421.63 432.782C1422.21 431.765 1423.01 430.973 1424.02 430.406C1425.04 429.84 1426.18 429.556 1427.44 429.556C1428.71 429.556 1429.84 429.84 1430.86 430.406C1431.87 430.973 1432.66 431.765 1433.23 432.782C1433.81 433.799 1434.1 434.949 1434.1 436.233C1434.1 437.516 1433.81 438.666 1433.23 439.683C1432.66 440.7 1431.87 441.5 1430.86 442.084C1429.84 442.651 1428.71 442.934 1427.44 442.934ZM1427.44 441.359C1428.37 441.359 1429.2 441.15 1429.94 440.734C1430.68 440.3 1431.27 439.692 1431.68 438.908C1432.1 438.125 1432.31 437.233 1432.31 436.233C1432.31 435.232 1432.1 434.341 1431.68 433.557C1431.27 432.773 1430.68 432.173 1429.94 431.757C1429.2 431.323 1428.37 431.106 1427.44 431.106C1426.51 431.106 1425.67 431.323 1424.92 431.757C1424.19 432.173 1423.61 432.773 1423.17 433.557C1422.76 434.341 1422.55 435.232 1422.55 436.233C1422.55 437.233 1422.76 438.125 1423.17 438.908C1423.61 439.692 1424.19 440.3 1424.92 440.734C1425.67 441.15 1426.51 441.359 1427.44 441.359Z" fill="black"/>
<path d="M1446.25 436.008C1448.03 436.424 1448.92 437.5 1448.92 439.233C1448.92 440.383 1448.49 441.267 1447.64 441.884C1446.8 442.501 1445.53 442.809 1443.85 442.809H1437.89V429.656H1443.68C1445.17 429.656 1446.35 429.948 1447.19 430.531C1448.04 431.115 1448.47 431.948 1448.47 433.032C1448.47 433.749 1448.27 434.366 1447.87 434.882C1447.49 435.382 1446.95 435.757 1446.25 436.008ZM1439.61 435.507H1443.55C1444.57 435.507 1445.34 435.316 1445.87 434.932C1446.42 434.549 1446.7 433.99 1446.7 433.257C1446.7 432.523 1446.42 431.973 1445.87 431.607C1445.34 431.24 1444.57 431.056 1443.55 431.056H1439.61V435.507ZM1443.78 441.409C1444.91 441.409 1445.76 441.225 1446.32 440.859C1446.89 440.492 1447.17 439.917 1447.17 439.133C1447.17 438.35 1446.91 437.775 1446.4 437.408C1445.88 437.024 1445.07 436.833 1443.95 436.833H1439.61V441.409H1443.78Z" fill="black"/>
<path d="M1458.56 442.934C1457.26 442.934 1456.09 442.651 1455.06 442.084C1454.05 441.517 1453.25 440.725 1452.67 439.708C1452.09 438.675 1451.8 437.516 1451.8 436.233C1451.8 434.949 1452.09 433.799 1452.67 432.782C1453.25 431.765 1454.05 430.973 1455.06 430.406C1456.09 429.84 1457.26 429.556 1458.56 429.556C1459.69 429.556 1460.69 429.781 1461.58 430.231C1462.47 430.665 1463.18 431.307 1463.7 432.157L1462.37 433.057C1461.94 432.407 1461.39 431.923 1460.73 431.607C1460.06 431.273 1459.34 431.106 1458.56 431.106C1457.61 431.106 1456.75 431.323 1455.99 431.757C1455.24 432.173 1454.65 432.773 1454.22 433.557C1453.8 434.341 1453.59 435.232 1453.59 436.233C1453.59 437.249 1453.8 438.15 1454.22 438.933C1454.65 439.7 1455.24 440.3 1455.99 440.734C1456.75 441.15 1457.61 441.359 1458.56 441.359C1459.34 441.359 1460.06 441.2 1460.73 440.884C1461.39 440.567 1461.94 440.083 1462.37 439.433L1463.7 440.333C1463.18 441.184 1462.47 441.834 1461.58 442.284C1460.68 442.717 1459.67 442.934 1458.56 442.934Z" fill="black"/>
<path d="M1478.38 436.783H1467.41C1467.51 438.15 1468.03 439.258 1468.98 440.108C1469.93 440.942 1471.12 441.359 1472.57 441.359C1473.39 441.359 1474.13 441.217 1474.82 440.934C1475.5 440.634 1476.09 440.2 1476.59 439.633L1477.59 440.784C1477 441.484 1476.27 442.017 1475.39 442.384C1474.52 442.751 1473.57 442.934 1472.52 442.934C1471.17 442.934 1469.98 442.651 1468.93 442.084C1467.9 441.5 1467.09 440.7 1466.51 439.683C1465.93 438.666 1465.63 437.516 1465.63 436.233C1465.63 434.949 1465.91 433.799 1466.46 432.782C1467.02 431.765 1467.79 430.973 1468.75 430.406C1469.73 429.84 1470.83 429.556 1472.05 429.556C1473.26 429.556 1474.35 429.84 1475.31 430.406C1476.28 430.973 1477.04 431.765 1477.59 432.782C1478.13 433.782 1478.41 434.932 1478.41 436.233L1478.38 436.783ZM1472.05 431.081C1470.78 431.081 1469.72 431.49 1468.85 432.307C1468 433.107 1467.52 434.157 1467.41 435.457H1476.71C1476.6 434.157 1476.1 433.107 1475.24 432.307C1474.39 431.49 1473.33 431.081 1472.05 431.081Z" fill="black"/>
<path d="M1497 429.656V442.809H1495.38V432.407L1490.06 441.209H1489.27L1483.95 432.382V442.809H1482.33V429.656H1484.13L1489.69 439.133L1495.35 429.656H1497Z" fill="black"/>
<path d="M1037.76 467.173H1034.77V473.024H1033V459.871H1034.77V465.647H1037.79L1042.4 459.871H1044.32L1039.16 466.247L1044.7 473.024H1042.6L1037.76 467.173Z" fill="black"/>
<path d="M1051.77 459.771C1053.48 459.771 1054.79 460.204 1055.71 461.071C1056.62 461.922 1057.08 463.188 1057.08 464.872V473.024H1055.38V470.973C1054.98 471.657 1054.39 472.19 1053.61 472.574C1052.85 472.957 1051.93 473.149 1050.87 473.149C1049.4 473.149 1048.24 472.799 1047.37 472.099C1046.51 471.399 1046.08 470.473 1046.08 469.323C1046.08 468.206 1046.48 467.306 1047.27 466.623C1048.09 465.939 1049.38 465.597 1051.14 465.597H1055.31V464.797C1055.31 463.664 1054.99 462.805 1054.36 462.222C1053.73 461.621 1052.8 461.321 1051.59 461.321C1050.76 461.321 1049.96 461.463 1049.2 461.746C1048.43 462.013 1047.77 462.388 1047.22 462.872L1046.43 461.546C1047.09 460.98 1047.89 460.546 1048.82 460.246C1049.75 459.929 1050.73 459.771 1051.77 459.771ZM1051.14 471.749C1052.14 471.749 1053 471.524 1053.71 471.073C1054.43 470.607 1054.96 469.94 1055.31 469.073V466.923H1051.19C1048.95 466.923 1047.82 467.706 1047.82 469.273C1047.82 470.04 1048.11 470.648 1048.7 471.098C1049.28 471.532 1050.09 471.749 1051.14 471.749Z" fill="black"/>
<path d="M1066.56 467.173H1063.57V473.024H1061.8V459.871H1063.57V465.647H1066.59L1071.2 459.871H1073.12L1067.96 466.247L1073.5 473.024H1071.4L1066.56 467.173Z" fill="black"/>
<path d="M1088.31 473.149C1087.01 473.149 1085.85 472.866 1084.82 472.299C1083.8 471.732 1083 470.94 1082.42 469.923C1081.84 468.89 1081.55 467.731 1081.55 466.447C1081.55 465.164 1081.84 464.014 1082.42 462.997C1083 461.98 1083.8 461.188 1084.82 460.621C1085.85 460.054 1087.01 459.771 1088.31 459.771C1089.44 459.771 1090.45 459.996 1091.33 460.446C1092.23 460.88 1092.93 461.521 1093.45 462.372L1092.13 463.272C1091.7 462.622 1091.15 462.138 1090.48 461.821C1089.82 461.488 1089.09 461.321 1088.31 461.321C1087.36 461.321 1086.51 461.538 1085.74 461.972C1084.99 462.388 1084.4 462.988 1083.97 463.772C1083.55 464.555 1083.35 465.447 1083.35 466.447C1083.35 467.464 1083.55 468.365 1083.97 469.148C1084.4 469.915 1084.99 470.515 1085.74 470.948C1086.51 471.365 1087.36 471.574 1088.31 471.574C1089.09 471.574 1089.82 471.415 1090.48 471.098C1091.15 470.782 1091.7 470.298 1092.13 469.648L1093.45 470.548C1092.93 471.399 1092.23 472.049 1091.33 472.499C1090.43 472.932 1089.43 473.149 1088.31 473.149Z" fill="black"/>
<path d="M1107.17 459.871V473.024H1105.4V461.446H1099.11L1098.94 464.697C1098.8 467.431 1098.49 469.531 1097.99 470.998C1097.49 472.465 1096.6 473.199 1095.32 473.199C1094.97 473.199 1094.55 473.132 1094.05 472.999L1094.17 471.474C1094.47 471.54 1094.68 471.574 1094.79 471.574C1095.48 471.574 1095.99 471.257 1096.34 470.623C1096.69 469.99 1096.92 469.206 1097.04 468.273C1097.16 467.339 1097.26 466.106 1097.34 464.572L1097.56 459.871H1107.17Z" fill="black"/>
<path d="M1123.68 466.998H1112.7C1112.8 468.365 1113.33 469.473 1114.28 470.323C1115.22 471.157 1116.42 471.574 1117.87 471.574C1118.68 471.574 1119.43 471.432 1120.11 471.148C1120.8 470.848 1121.39 470.415 1121.89 469.848L1122.88 470.998C1122.3 471.699 1121.57 472.232 1120.69 472.599C1119.82 472.966 1118.87 473.149 1117.82 473.149C1116.47 473.149 1115.27 472.866 1114.23 472.299C1113.2 471.715 1112.39 470.915 1111.81 469.898C1111.22 468.881 1110.93 467.731 1110.93 466.447C1110.93 465.164 1111.21 464.014 1111.76 462.997C1112.32 461.98 1113.09 461.188 1114.05 460.621C1115.03 460.054 1116.13 459.771 1117.35 459.771C1118.56 459.771 1119.65 460.054 1120.61 460.621C1121.58 461.188 1122.34 461.98 1122.88 462.997C1123.43 463.997 1123.71 465.147 1123.71 466.447L1123.68 466.998ZM1117.35 461.296C1116.08 461.296 1115.02 461.705 1114.15 462.522C1113.3 463.322 1112.82 464.372 1112.7 465.672H1122.01C1121.89 464.372 1121.4 463.322 1120.54 462.522C1119.69 461.705 1118.63 461.296 1117.35 461.296Z" fill="black"/>
<path d="M1133.65 466.172C1134.58 466.389 1135.3 466.764 1135.8 467.298C1136.31 467.831 1136.57 468.481 1136.57 469.248C1136.57 470.015 1136.3 470.698 1135.77 471.299C1135.26 471.899 1134.55 472.365 1133.65 472.699C1132.75 473.016 1131.76 473.174 1130.68 473.174C1129.73 473.174 1128.8 473.041 1127.89 472.774C1126.97 472.49 1126.17 472.082 1125.49 471.549L1126.09 470.223C1126.69 470.673 1127.39 471.023 1128.19 471.274C1128.98 471.524 1129.79 471.649 1130.61 471.649C1131.82 471.649 1132.81 471.424 1133.58 470.973C1134.36 470.507 1134.75 469.882 1134.75 469.098C1134.75 468.398 1134.43 467.856 1133.8 467.473C1133.17 467.073 1132.3 466.873 1131.2 466.873H1128.96V465.572H1131.11C1132.09 465.572 1132.88 465.389 1133.48 465.022C1134.07 464.639 1134.37 464.13 1134.37 463.497C1134.37 462.797 1134.03 462.247 1133.35 461.846C1132.69 461.446 1131.81 461.246 1130.73 461.246C1129.32 461.246 1127.92 461.605 1126.54 462.322L1126.04 460.946C1127.6 460.129 1129.23 459.721 1130.91 459.721C1131.9 459.721 1132.8 459.871 1133.6 460.171C1134.42 460.455 1135.05 460.863 1135.5 461.396C1135.96 461.93 1136.19 462.547 1136.19 463.247C1136.19 463.914 1135.96 464.505 1135.5 465.022C1135.05 465.539 1134.43 465.922 1133.65 466.172Z" fill="black"/>
<path d="M1146.1 464.522C1147.75 464.539 1149.01 464.905 1149.87 465.622C1150.74 466.339 1151.17 467.373 1151.17 468.723C1151.17 470.123 1150.7 471.199 1149.77 471.949C1148.84 472.699 1147.51 473.066 1145.78 473.049L1140.59 473.024V459.871H1142.36V464.472L1146.1 464.522ZM1153.36 459.871H1155.14V473.024H1153.36V459.871ZM1145.68 471.699C1146.89 471.715 1147.81 471.474 1148.42 470.973C1149.06 470.457 1149.37 469.707 1149.37 468.723C1149.37 467.756 1149.06 467.039 1148.45 466.573C1147.83 466.106 1146.91 465.864 1145.68 465.847L1142.36 465.797V471.649L1145.68 471.699Z" fill="black"/>
<path d="M1171.47 467.173H1168.48V473.024H1166.71V459.871H1168.48V465.647H1171.5L1176.12 459.871H1178.04L1172.87 466.247L1178.41 473.024H1176.31L1171.47 467.173Z" fill="black"/>
<path d="M1191.93 459.871V473.024H1190.16V461.446H1183.88L1183.7 464.697C1183.57 467.431 1183.25 469.531 1182.75 470.998C1182.25 472.465 1181.36 473.199 1180.08 473.199C1179.73 473.199 1179.31 473.132 1178.81 472.999L1178.94 471.474C1179.24 471.54 1179.44 471.574 1179.56 471.574C1180.24 471.574 1180.76 471.257 1181.11 470.623C1181.46 469.99 1181.69 469.206 1181.81 468.273C1181.92 467.339 1182.02 466.106 1182.1 464.572L1182.33 459.871H1191.93Z" fill="black"/>
<path d="M1202.38 473.149C1201.12 473.149 1199.98 472.866 1198.97 472.299C1197.95 471.715 1197.15 470.915 1196.57 469.898C1195.99 468.881 1195.7 467.731 1195.7 466.447C1195.7 465.164 1195.99 464.014 1196.57 462.997C1197.15 461.98 1197.95 461.188 1198.97 460.621C1199.98 460.054 1201.12 459.771 1202.38 459.771C1203.65 459.771 1204.79 460.054 1205.8 460.621C1206.82 461.188 1207.61 461.98 1208.17 462.997C1208.75 464.014 1209.05 465.164 1209.05 466.447C1209.05 467.731 1208.75 468.881 1208.17 469.898C1207.61 470.915 1206.82 471.715 1205.8 472.299C1204.79 472.866 1203.65 473.149 1202.38 473.149ZM1202.38 471.574C1203.32 471.574 1204.15 471.365 1204.88 470.948C1205.63 470.515 1206.21 469.907 1206.63 469.123C1207.04 468.34 1207.25 467.448 1207.25 466.447C1207.25 465.447 1207.04 464.555 1206.63 463.772C1206.21 462.988 1205.63 462.388 1204.88 461.972C1204.15 461.538 1203.32 461.321 1202.38 461.321C1201.45 461.321 1200.61 461.538 1199.86 461.972C1199.13 462.388 1198.55 462.988 1198.12 463.772C1197.7 464.555 1197.49 465.447 1197.49 466.447C1197.49 467.448 1197.7 468.34 1198.12 469.123C1198.55 469.907 1199.13 470.515 1199.86 470.948C1200.61 471.365 1201.45 471.574 1202.38 471.574Z" fill="black"/>
<path d="M1223.62 459.871L1217.06 474.599C1216.52 475.833 1215.91 476.708 1215.21 477.225C1214.51 477.742 1213.67 478 1212.69 478C1212.06 478 1211.47 477.9 1210.92 477.7C1210.37 477.5 1209.9 477.2 1209.5 476.8L1210.32 475.474C1210.99 476.141 1211.78 476.475 1212.72 476.475C1213.31 476.475 1213.82 476.308 1214.24 475.975C1214.67 475.641 1215.07 475.074 1215.44 474.274L1216.01 472.999L1210.15 459.871H1211.99L1216.93 471.048L1221.87 459.871H1223.62Z" fill="black"/>
<path d="M1226.38 459.871H1228.15V465.697H1236.41V459.871H1238.18V473.024H1236.41V467.223H1228.15V473.024H1226.38V459.871Z" fill="black"/>
<path d="M1248.63 473.149C1247.36 473.149 1246.23 472.866 1245.21 472.299C1244.2 471.715 1243.4 470.915 1242.82 469.898C1242.23 468.881 1241.94 467.731 1241.94 466.447C1241.94 465.164 1242.23 464.014 1242.82 462.997C1243.4 461.98 1244.2 461.188 1245.21 460.621C1246.23 460.054 1247.36 459.771 1248.63 459.771C1249.89 459.771 1251.03 460.054 1252.05 460.621C1253.06 461.188 1253.85 461.98 1254.42 462.997C1255 464.014 1255.29 465.164 1255.29 466.447C1255.29 467.731 1255 468.881 1254.42 469.898C1253.85 470.915 1253.06 471.715 1252.05 472.299C1251.03 472.866 1249.89 473.149 1248.63 473.149ZM1248.63 471.574C1249.56 471.574 1250.39 471.365 1251.12 470.948C1251.87 470.515 1252.45 469.907 1252.87 469.123C1253.29 468.34 1253.49 467.448 1253.49 466.447C1253.49 465.447 1253.29 464.555 1252.87 463.772C1252.45 462.988 1251.87 462.388 1251.12 461.972C1250.39 461.538 1249.56 461.321 1248.63 461.321C1247.7 461.321 1246.86 461.538 1246.11 461.972C1245.38 462.388 1244.79 462.988 1244.36 463.772C1243.95 464.555 1243.74 465.447 1243.74 466.447C1243.74 467.448 1243.95 468.34 1244.36 469.123C1244.79 469.907 1245.38 470.515 1246.11 470.948C1246.86 471.365 1247.7 471.574 1248.63 471.574Z" fill="black"/>
<path d="M1267.43 466.222C1269.21 466.639 1270.1 467.714 1270.1 469.448C1270.1 470.598 1269.68 471.482 1268.83 472.099C1267.98 472.716 1266.72 473.024 1265.04 473.024H1259.08V459.871H1264.86C1266.36 459.871 1267.53 460.163 1268.38 460.746C1269.23 461.33 1269.65 462.163 1269.65 463.247C1269.65 463.964 1269.45 464.58 1269.06 465.097C1268.67 465.597 1268.13 465.972 1267.43 466.222ZM1260.8 465.722H1264.74C1265.75 465.722 1266.53 465.531 1267.06 465.147C1267.61 464.764 1267.88 464.205 1267.88 463.472C1267.88 462.738 1267.61 462.188 1267.06 461.821C1266.53 461.455 1265.75 461.271 1264.74 461.271H1260.8V465.722ZM1264.96 471.624C1266.1 471.624 1266.94 471.44 1267.51 471.073C1268.07 470.707 1268.36 470.132 1268.36 469.348C1268.36 468.565 1268.1 467.989 1267.58 467.623C1267.07 467.239 1266.25 467.048 1265.14 467.048H1260.8V471.624H1264.96Z" fill="black"/>
<path d="M1274.38 473.149C1274.01 473.149 1273.7 473.016 1273.43 472.749C1273.18 472.482 1273.06 472.157 1273.06 471.774C1273.06 471.39 1273.18 471.073 1273.43 470.823C1273.7 470.557 1274.01 470.423 1274.38 470.423C1274.75 470.423 1275.06 470.557 1275.33 470.823C1275.59 471.073 1275.73 471.39 1275.73 471.774C1275.73 472.157 1275.59 472.482 1275.33 472.749C1275.06 473.016 1274.75 473.149 1274.38 473.149Z" fill="black"/>
<path fill-rule="evenodd" clip-rule="evenodd" d="M523.546 375.206C523.643 375.183 523.74 375.159 523.837 375.133C528.879 373.782 531.87 368.6 530.52 363.558C529.169 358.516 523.987 355.525 518.945 356.875C518.848 356.901 518.752 356.929 518.656 356.958L519.693 360.825C519.787 360.794 519.883 360.765 519.98 360.739C522.888 359.96 525.877 361.686 526.656 364.593C527.435 367.501 525.709 370.49 522.802 371.269C522.705 371.295 522.607 371.318 522.51 371.339L523.546 375.206Z" fill="#996633"/>
<path d="M458.157 306.371C457.585 306.856 457.154 307.184 456.583 307.67C447.763 371.744 461.216 434.82 492.184 488.296C523.487 542.187 572.444 586.319 634.299 612.094L698.22 392.685C694.165 389.324 690.82 385.32 688.036 380.683C687.147 378.988 686.258 377.292 685.52 375.585C684.229 372.597 683.381 369.427 682.695 366.392L458.157 306.371ZM568.07 448.56L523.608 427.608L563.709 349.038L608.17 369.989L568.07 448.56Z" fill="#DCA432"/>
<path fill-rule="evenodd" clip-rule="evenodd" d="M457.257 306.857C457.224 306.418 457.331 305.822 457.448 305.371L160.241 593.049C164.571 599.388 164.006 608.506 163.491 616.825C162.826 627.563 162.243 636.968 172.381 637.339C181.363 637.675 189.821 639.644 198.304 641.619C206.668 643.566 215.056 645.518 223.993 645.917C234.066 646.285 232.745 660.188 231.346 674.904C230.247 686.47 229.1 698.538 233.398 704.935L303.463 688.591C303.173 687.206 302.929 685.816 302.729 684.422L634.674 611.587C572.846 585.824 523.911 541.707 492.624 487.834C461.672 434.375 448.228 371.319 457.047 307.262C454.508 309.295 451.997 311.414 449.522 313.611C452.001 311.256 454.579 309.001 457.257 306.857Z" fill="#6B540E"/>
<path d="M765.831 341.267C779.595 364.962 770.756 395.242 746.184 408.736C726.871 419.247 703.552 416.399 687.767 403.315C683.333 399.64 679.677 395.261 676.633 390.191C675.661 388.337 674.69 386.483 673.883 384.616C672.472 381.348 671.544 377.882 670.793 374.564C667.105 354.426 676.812 333.406 696.279 322.723C720.851 309.229 752.054 317.413 765.831 341.267Z" fill="#662527"/>
<path d="M534.558 343.017L508.501 458.053L599.396 476.697L625.453 361.661L534.558 343.017Z" fill="white"/>
<path d="M564.855 378.531L551.482 437.571L605.738 448.7L619.111 389.659L564.855 378.531Z" fill="black"/>
<path d="M145.756 393.471C145.498 393.824 145.359 394.259 145.101 394.612C155.606 438.295 180.303 475.784 213.923 502.778C247.901 530.017 290.854 546.443 337.545 547.955L323.675 390.31C320.206 389.178 316.928 387.294 313.994 384.94C313.005 384.089 312.016 383.238 311.113 382.269C309.459 380.612 308.098 378.801 306.941 376.953L145.756 393.471ZM253.129 458.434L218.934 455.745L225.146 395.065L259.341 397.754L253.129 458.434Z" fill="#DCA432"/>
<path d="M145.623 392.664C145.689 393.06 145.842 393.34 145.908 393.737C130.589 419.825 130.795 453.697 136.132 482.987C141.655 512.755 150.551 542.541 147.075 572.67C144.994 590.399 186.025 576.918 175.202 589.457C165.932 600.197 129.822 582.917 139.476 597.761L134.914 628.618C124.889 621.602 131.824 628.267 119.932 632.1C108.159 636.014 117.473 600.519 105.7 604.433C123.385 579.207 59.7353 565.492 49.6239 558.593L145.623 392.664Z" fill="#7D6212"/>
<path d="M146.2 393.741C156.691 437.362 181.357 474.799 214.933 501.754C248.867 528.954 291.764 545.357 338.395 546.867L156.048 650.432C146.366 635.548 114.146 625.471 117.326 607.91C120.592 590.232 115.551 588.38 117.638 570.602C121.21 540.273 117.296 536.931 111.671 507.199C106.166 477.548 130.836 419.901 146.2 393.741Z" fill="#7D6212"/>
<path d="M358.905 337.225C376.277 351.092 378.503 376.353 363.919 393.508C352.48 406.984 334.013 411.411 318.345 406.099C313.94 404.661 309.777 402.27 306.052 399.28C304.795 398.199 303.539 397.119 302.392 395.889C300.293 393.784 298.564 391.485 297.095 389.139C288.546 375.019 289.488 356.623 301.037 342.997C315.511 325.992 341.381 323.255 358.905 337.225Z" fill="#662527"/>
<path d="M203.73 398.437L216.223 478.471L280.721 468.501L268.228 388.467L203.73 398.437Z" fill="white"/>
<path fill-rule="evenodd" clip-rule="evenodd" d="M415.894 490.684C416.07 490.642 416.246 490.598 416.422 490.551C425.566 488.101 430.993 478.702 428.543 469.557C426.092 460.413 416.693 454.986 407.549 457.436C407.373 457.483 407.198 457.533 407.025 457.585L408.061 461.452C408.234 461.398 408.408 461.347 408.584 461.3C415.595 459.422 422.801 463.582 424.679 470.592C426.557 477.603 422.397 484.809 415.387 486.687C415.211 486.735 415.034 486.778 414.858 486.818L415.894 490.684Z" fill="#996633"/>
<path fill-rule="evenodd" clip-rule="evenodd" d="M181.452 519.086C181.573 518.952 181.692 518.815 181.81 518.676C187.927 511.451 187.029 500.635 179.804 494.518C172.579 488.4 161.763 489.298 155.645 496.523C155.528 496.662 155.413 496.802 155.3 496.944L158.355 499.53C158.466 499.388 158.58 499.247 158.698 499.108C163.388 493.569 171.68 492.88 177.219 497.57C182.758 502.26 183.447 510.552 178.757 516.091C178.639 516.231 178.519 516.367 178.397 516.5L181.452 519.086Z" fill="#996633"/>
<path fill-rule="evenodd" clip-rule="evenodd" d="M139.429 466.072C139.489 466.005 139.548 465.938 139.607 465.869C142.645 462.28 142.199 456.908 138.611 453.87C135.022 450.832 129.65 451.278 126.612 454.866C126.554 454.935 126.496 455.005 126.441 455.075L129.496 457.662C129.55 457.591 129.606 457.52 129.665 457.451C131.275 455.548 134.123 455.312 136.026 456.923C137.928 458.533 138.165 461.381 136.554 463.284C136.495 463.353 136.435 463.42 136.373 463.485L139.429 466.072Z" fill="#996633"/>
<path fill-rule="evenodd" clip-rule="evenodd" d="M422.69 534.298C422.794 534.273 422.899 534.247 423.003 534.219C428.432 532.765 431.653 527.185 430.199 521.756C428.744 516.327 423.164 513.105 417.735 514.56C417.631 514.588 417.527 514.617 417.425 514.648L418.461 518.515C418.563 518.482 418.666 518.452 418.771 518.424C422.066 517.541 425.452 519.496 426.335 522.791C427.218 526.086 425.263 529.473 421.968 530.356C421.863 530.384 421.758 530.409 421.654 530.431L422.69 534.298Z" fill="#996633"/>
<path fill-rule="evenodd" clip-rule="evenodd" d="M451.213 568.157C451.389 568.116 451.565 568.072 451.741 568.025C460.885 565.574 466.312 556.175 463.862 547.031C461.411 537.886 452.012 532.46 442.868 534.91C442.692 534.957 442.517 535.007 442.344 535.059L443.38 538.925C443.553 538.871 443.727 538.821 443.903 538.774C450.914 536.895 458.12 541.056 459.998 548.066C461.876 555.077 457.716 562.283 450.706 564.161C450.529 564.208 450.353 564.252 450.177 564.291L451.213 568.157Z" fill="#996633"/>
<path fill-rule="evenodd" clip-rule="evenodd" d="M386.841 526.002C387.017 525.961 387.193 525.917 387.369 525.869C396.514 523.419 401.94 514.02 399.49 504.876C397.04 495.731 387.641 490.304 378.496 492.755C378.32 492.802 378.146 492.851 377.973 492.904L379.009 496.77C379.181 496.716 379.355 496.666 379.531 496.618C386.542 494.74 393.748 498.9 395.626 505.911C397.505 512.921 393.344 520.127 386.334 522.006C386.158 522.053 385.982 522.096 385.806 522.136L386.841 526.002Z" fill="#996633"/>
<path fill-rule="evenodd" clip-rule="evenodd" d="M177.709 564.665C177.83 564.531 177.949 564.394 178.067 564.255C184.184 557.03 183.286 546.214 176.061 540.097C168.836 533.979 158.02 534.877 151.903 542.102C151.785 542.241 151.67 542.382 151.558 542.523L154.612 545.109C154.723 544.967 154.838 544.826 154.955 544.687C159.645 539.148 167.937 538.46 173.477 543.149C179.016 547.839 179.704 556.131 175.014 561.671C174.896 561.81 174.776 561.946 174.654 562.079L177.709 564.665Z" fill="#996633"/>
<path fill-rule="evenodd" clip-rule="evenodd" d="M356.052 493.036C356.374 492.961 356.695 492.88 357.016 492.794C373.716 488.319 383.626 471.154 379.151 454.455C374.677 437.756 357.512 427.845 340.812 432.32C340.491 432.406 340.173 432.497 339.857 432.592L340.892 436.458C341.208 436.361 341.526 436.27 341.848 436.184C356.413 432.281 371.385 440.925 375.287 455.49C379.19 470.056 370.546 485.027 355.981 488.93C355.66 489.016 355.338 489.096 355.017 489.17L356.052 493.036Z" fill="#996633"/>
<path fill-rule="evenodd" clip-rule="evenodd" d="M133.621 555.125C133.842 554.88 134.06 554.631 134.275 554.377C145.447 541.183 143.807 521.43 130.613 510.259C117.418 499.087 97.6658 500.727 86.4944 513.921C86.2796 514.175 86.0695 514.431 85.8641 514.69L88.9186 517.276C89.1227 517.017 89.3322 516.76 89.5471 516.506C99.2911 504.998 116.519 503.567 128.028 513.311C139.536 523.055 140.966 540.284 131.223 551.792C131.008 552.046 130.789 552.295 130.567 552.539L133.621 555.125Z" fill="#996633"/>
<path fill-rule="evenodd" clip-rule="evenodd" d="M250.274 565.652C250.341 565.578 250.406 565.503 250.471 565.426C253.844 561.443 253.349 555.479 249.365 552.107C245.382 548.734 239.419 549.229 236.046 553.212C235.981 553.289 235.918 553.366 235.856 553.444L238.911 556.031C238.971 555.952 239.034 555.874 239.099 555.797C241.044 553.5 244.483 553.214 246.781 555.159C249.078 557.105 249.364 560.544 247.419 562.841C247.353 562.918 247.287 562.993 247.218 563.065L250.274 565.652Z" fill="#996633"/>
<path fill-rule="evenodd" clip-rule="evenodd" d="M359.743 563.776C359.84 563.753 359.937 563.729 360.034 563.703C365.076 562.352 368.068 557.17 366.717 552.128C365.366 547.087 360.184 544.095 355.142 545.446C355.045 545.472 354.949 545.499 354.854 545.528L355.89 549.395C355.984 549.364 356.08 549.336 356.177 549.31C359.085 548.53 362.074 550.256 362.853 553.164C363.632 556.071 361.906 559.06 358.999 559.839C358.902 559.865 358.804 559.889 358.707 559.909L359.743 563.776Z" fill="#996633"/>
<path fill-rule="evenodd" clip-rule="evenodd" d="M176.971 611.147C177.038 611.073 177.103 610.998 177.168 610.921C180.541 606.938 180.046 600.974 176.063 597.602C172.079 594.229 166.116 594.724 162.743 598.708C162.678 598.784 162.615 598.862 162.553 598.94L165.608 601.526C165.668 601.447 165.731 601.369 165.796 601.292C167.741 598.995 171.18 598.709 173.478 600.655C175.775 602.6 176.061 606.039 174.116 608.336C174.051 608.413 173.984 608.488 173.916 608.56L176.971 611.147Z" fill="#996633"/>
<path fill-rule="evenodd" clip-rule="evenodd" d="M500.723 558.684C500.899 558.642 501.075 558.598 501.251 558.551C510.395 556.101 515.822 546.702 513.372 537.557C510.922 528.413 501.522 522.986 492.378 525.436C492.202 525.483 492.028 525.533 491.854 525.585L492.89 529.452C493.063 529.398 493.237 529.347 493.413 529.3C500.424 527.422 507.63 531.582 509.508 538.592C511.387 545.603 507.226 552.809 500.216 554.687C500.04 554.735 499.863 554.778 499.687 554.818L500.723 558.684Z" fill="#996633"/>
<path d="M237.852 420.004L243.645 457.72L278.036 451.716L272.243 414L237.852 420.004Z" fill="black"/>
<path d="M775.852 540.856L588.246 714.614L549.81 747.102L247.098 747.621L206.526 715.444L148.363 662.299L14.8523 540.13L158.429 556.633L214.559 562.965L304.549 573.241L345.731 577.912H346.036L403.691 584.555L483.614 574.694L510.255 571.373L717.791 545.735L751.855 541.479L768.125 539.507L775.852 540.856Z" fill="#996633"/>
<path d="M1030 167.655H1047.1C1057.01 167.655 1061.97 173.234 1061.97 184.391C1061.97 195.063 1056.77 200.399 1046.38 200.399H1040.56V226.595H1030V167.655ZM1044.65 192.832C1047.53 192.832 1049.47 192.225 1050.47 191.012C1051.48 189.751 1051.98 187.52 1051.98 184.318C1051.98 181.99 1051.81 180.219 1051.48 179.006C1051.14 177.745 1050.45 176.799 1049.39 176.168C1048.39 175.538 1046.81 175.222 1044.65 175.222H1040.56V192.832H1044.65Z" fill="black"/>
<path d="M1068.02 167.655H1078.58V192.395H1081.17C1087.25 192.395 1091.75 193.705 1094.67 196.324C1097.59 198.944 1099.06 203.334 1099.06 209.495C1099.06 215.801 1097.52 220.24 1094.46 222.811C1091.39 225.333 1086.82 226.595 1080.74 226.595H1068.02V167.655ZM1104.51 167.655H1115.07V226.595H1104.51V167.655ZM1080.81 219.318C1083.83 219.318 1085.98 218.615 1087.27 217.208C1088.57 215.801 1089.21 213.254 1089.21 209.568C1089.21 206.269 1088.59 203.843 1087.35 202.291C1086.1 200.69 1083.87 199.89 1080.67 199.89H1078.58V219.318H1080.81Z" fill="black"/>
<path d="M1124.14 167.655H1151.15V175.659H1134.7V192.395H1137C1143.08 192.395 1147.58 193.705 1150.5 196.324C1153.43 198.944 1154.89 203.334 1154.89 209.495C1154.89 215.801 1153.35 220.24 1150.29 222.811C1147.22 225.333 1142.68 226.595 1136.64 226.595H1124.14V167.655ZM1136.71 219.318C1139.73 219.318 1141.86 218.639 1143.11 217.281C1144.4 215.874 1145.05 213.327 1145.05 209.64C1145.05 206.293 1144.42 203.843 1143.18 202.291C1141.93 200.69 1139.71 199.89 1136.5 199.89H1134.7V219.318H1136.71Z" fill="black"/>
<path d="M1170.43 167.655H1181.78L1193.42 226.595H1183.58L1181.28 212.988H1171.15L1168.78 226.595H1158.79L1170.43 167.655ZM1180.13 206.148L1176.18 181.407L1172.23 206.148H1180.13Z" fill="black"/>
<path d="M1216.88 167.655H1227.44V192.395H1229.59L1239 167.655H1249.56L1238.5 195.524L1250.42 226.595H1239.72L1229.59 199.453H1227.44V226.595H1216.88V167.655Z" fill="black"/>
<path d="M1251.57 218.881C1254.02 218.93 1255.76 218.542 1256.82 217.717C1257.92 216.844 1258.76 214.904 1259.33 211.896C1259.91 208.888 1260.46 203.722 1260.98 196.397L1262.85 167.655H1291.15V226.595H1280.59V175.732H1272.19L1270.97 197.707C1270.49 205.565 1269.84 211.411 1269.03 215.243C1268.22 219.027 1266.68 221.889 1264.43 223.83C1262.23 225.721 1258.81 226.667 1254.16 226.667C1253.06 226.667 1252.2 226.643 1251.57 226.595V218.881Z" fill="black"/>
<path d="M1316.02 227.395C1309.98 227.395 1305.67 225.77 1303.09 222.52C1300.5 219.221 1299.21 214.419 1299.21 208.112V185.992C1299.21 179.734 1300.5 175.004 1303.09 171.802C1305.67 168.601 1309.98 167 1316.02 167C1322 167 1326.29 168.601 1328.87 171.802C1331.46 175.004 1332.75 179.734 1332.75 185.992V208.112C1332.75 214.37 1331.44 219.148 1328.8 222.447C1326.22 225.746 1321.95 227.395 1316.02 227.395ZM1316.02 219.464C1318.36 219.464 1319.94 218.712 1320.76 217.208C1321.57 215.704 1321.98 213.521 1321.98 210.659V183.518C1321.98 180.656 1321.57 178.497 1320.76 177.042C1319.99 175.586 1318.41 174.859 1316.02 174.859C1313.62 174.859 1312.02 175.611 1311.2 177.114C1310.39 178.57 1309.98 180.704 1309.98 183.518V210.659C1309.98 213.521 1310.39 215.704 1311.2 217.208C1312.02 218.712 1313.62 219.464 1316.02 219.464Z" fill="black"/>
<path d="M1340.04 229.432C1340.66 229.481 1341.53 229.505 1342.63 229.505C1345.41 229.505 1347.39 229.044 1348.59 228.123C1349.79 227.249 1350.39 225.77 1350.39 223.684C1350.39 222.811 1350.27 221.695 1350.03 220.337L1337.74 167.655H1347.58L1352.54 192.322L1355.2 209.495L1357.35 192.322L1361.66 167.655H1371.65L1360.37 221.428C1359.46 225.794 1358.5 228.996 1357.5 231.033C1356.54 233.119 1354.98 234.623 1352.83 235.545C1350.67 236.515 1347.44 237 1343.13 237C1341.79 237 1340.76 236.976 1340.04 236.927V229.432Z" fill="black"/>
<path d="M1376.96 167.655H1387.52V192.249H1399.37V167.655H1410V226.595H1399.37V199.963H1387.52V226.595H1376.96V167.655Z" fill="black"/>
<path d="M1043.08 269.932C1040.61 269.932 1038.37 269.396 1036.37 268.324C1034.38 267.229 1032.83 265.738 1031.7 263.85C1030.57 261.94 1030 259.796 1030 257.419C1030 255.043 1030.57 252.911 1031.7 251.023C1032.83 249.113 1034.4 247.621 1036.4 246.55C1038.4 245.454 1040.64 244.907 1043.12 244.907C1045.05 244.907 1046.82 245.233 1048.42 245.885C1050.03 246.515 1051.39 247.458 1052.53 248.717L1050.23 250.918C1048.37 248.984 1046.04 248.017 1043.26 248.017C1041.42 248.017 1039.76 248.425 1038.27 249.241C1036.79 250.056 1035.62 251.186 1034.77 252.631C1033.95 254.052 1033.54 255.649 1033.54 257.419C1033.54 259.19 1033.95 260.798 1034.77 262.243C1035.62 263.664 1036.79 264.783 1038.27 265.598C1039.76 266.414 1041.42 266.821 1043.26 266.821C1046.02 266.821 1048.34 265.843 1050.23 263.885L1052.53 266.087C1051.39 267.346 1050.02 268.301 1048.39 268.953C1046.79 269.606 1045.02 269.932 1043.08 269.932Z" fill="black"/>
<path d="M1068.02 269.932C1065.52 269.932 1063.27 269.396 1061.27 268.324C1059.26 267.229 1057.68 265.726 1056.53 263.816C1055.39 261.905 1054.83 259.773 1054.83 257.419C1054.83 255.066 1055.39 252.934 1056.53 251.023C1057.68 249.113 1059.26 247.621 1061.27 246.55C1063.27 245.454 1065.52 244.907 1068.02 244.907C1070.49 244.907 1072.73 245.454 1074.74 246.55C1076.74 247.621 1078.31 249.113 1079.44 251.023C1080.57 252.911 1081.14 255.043 1081.14 257.419C1081.14 259.796 1080.57 261.94 1079.44 263.85C1078.31 265.738 1076.74 267.229 1074.74 268.324C1072.73 269.396 1070.49 269.932 1068.02 269.932ZM1068.02 266.821C1069.83 266.821 1071.46 266.414 1072.9 265.598C1074.36 264.783 1075.5 263.664 1076.33 262.243C1077.18 260.798 1077.6 259.19 1077.6 257.419C1077.6 255.649 1077.18 254.052 1076.33 252.631C1075.5 251.186 1074.36 250.056 1072.9 249.241C1071.46 248.425 1069.83 248.017 1068.02 248.017C1066.2 248.017 1064.55 248.425 1063.07 249.241C1061.61 250.056 1060.45 251.186 1059.6 252.631C1058.78 254.052 1058.37 255.649 1058.37 257.419C1058.37 259.19 1058.78 260.798 1059.6 262.243C1060.45 263.664 1061.61 264.783 1063.07 265.598C1064.55 266.414 1066.2 266.821 1068.02 266.821Z" fill="black"/>
<path d="M1106.39 245.186V269.652H1102.93V248.227H1091.96L1091.72 255.392C1091.6 258.771 1091.32 261.509 1090.87 263.606C1090.44 265.703 1089.76 267.287 1088.82 268.359C1087.87 269.408 1086.6 269.932 1085 269.932C1084.27 269.932 1083.52 269.839 1082.77 269.652L1083.02 266.542C1083.39 266.635 1083.77 266.682 1084.15 266.682C1085.16 266.682 1085.98 266.285 1086.59 265.493C1087.2 264.678 1087.66 263.466 1087.97 261.858C1088.28 260.25 1088.48 258.13 1088.57 255.497L1088.96 245.186H1106.39Z" fill="black"/>
<path d="M1132.07 266.612V269.652H1114.1V245.186H1131.57V248.227H1117.64V255.742H1130.05V258.713H1117.64V266.612H1132.07ZM1119.58 242.6C1119.09 242.6 1118.66 242.437 1118.31 242.111C1117.96 241.761 1117.78 241.33 1117.78 240.817C1117.78 240.305 1117.96 239.874 1118.31 239.524C1118.66 239.175 1119.09 239 1119.58 239C1120.08 239 1120.5 239.175 1120.86 239.524C1121.21 239.874 1121.39 240.305 1121.39 240.817C1121.39 241.33 1121.21 241.761 1120.86 242.111C1120.5 242.437 1120.08 242.6 1119.58 242.6ZM1126.16 242.6C1125.67 242.6 1125.24 242.437 1124.89 242.111C1124.54 241.761 1124.36 241.33 1124.36 240.817C1124.36 240.305 1124.54 239.874 1124.89 239.524C1125.24 239.175 1125.67 239 1126.16 239C1126.66 239 1127.08 239.175 1127.43 239.524C1127.79 239.874 1127.97 240.305 1127.97 240.817C1127.97 241.33 1127.79 241.761 1127.43 242.111C1127.08 242.437 1126.66 242.6 1126.16 242.6Z" fill="black"/>
<path d="M1158.91 245.186V269.652H1155.37V258.748H1141.16V269.652H1137.62V245.186H1141.16V255.707H1155.37V245.186H1158.91Z" fill="black"/>
<path d="M1182.72 263.536H1169.56L1166.84 269.652H1163.2L1174.41 245.186H1177.91L1189.16 269.652H1185.44L1182.72 263.536ZM1181.48 260.74L1176.14 248.751L1170.8 260.74H1181.48Z" fill="black"/>
<path d="M1210.39 245.186V269.652H1206.93V262.522H1200.1C1199.68 262.522 1199.36 262.511 1199.15 262.487L1194.2 269.652H1190.45L1195.93 261.893C1194.16 261.311 1192.81 260.344 1191.86 258.992C1190.92 257.617 1190.45 255.951 1190.45 253.994C1190.45 251.221 1191.35 249.066 1193.14 247.528C1194.95 245.967 1197.39 245.186 1200.46 245.186H1210.39ZM1194.02 253.959C1194.02 255.777 1194.55 257.175 1195.61 258.153C1196.7 259.109 1198.29 259.586 1200.39 259.586H1206.93V248.227H1200.6C1198.48 248.227 1196.85 248.717 1195.72 249.695C1194.59 250.674 1194.02 252.095 1194.02 253.959Z" fill="black"/>
<path d="M1251.2 266.612V275H1247.91V269.652H1227.55L1227.51 275H1224.22L1224.26 266.612H1225.46C1227.02 266.518 1228.11 265.307 1228.75 262.977C1229.38 260.623 1229.77 257.315 1229.92 253.05L1230.16 245.186H1247.56V266.612H1251.2ZM1233.03 253.365C1232.91 256.814 1232.63 259.668 1232.18 261.928C1231.75 264.188 1231.06 265.75 1230.09 266.612H1244.06V248.227H1233.2L1233.03 253.365Z" fill="black"/>
<path d="M1267.18 269.932C1264.68 269.932 1262.43 269.396 1260.42 268.324C1258.42 267.229 1256.84 265.726 1255.68 263.816C1254.55 261.905 1253.99 259.773 1253.99 257.419C1253.99 255.066 1254.55 252.934 1255.68 251.023C1256.84 249.113 1258.42 247.621 1260.42 246.55C1262.43 245.454 1264.68 244.907 1267.18 244.907C1269.65 244.907 1271.89 245.454 1273.9 246.55C1275.9 247.621 1277.47 249.113 1278.6 251.023C1279.73 252.911 1280.3 255.043 1280.3 257.419C1280.3 259.796 1279.73 261.94 1278.6 263.85C1277.47 265.738 1275.9 267.229 1273.9 268.324C1271.89 269.396 1269.65 269.932 1267.18 269.932ZM1267.18 266.821C1268.99 266.821 1270.62 266.414 1272.06 265.598C1273.52 264.783 1274.66 263.664 1275.49 262.243C1276.34 260.798 1276.76 259.19 1276.76 257.419C1276.76 255.649 1276.34 254.052 1275.49 252.631C1274.66 251.186 1273.52 250.056 1272.06 249.241C1270.62 248.425 1268.99 248.017 1267.18 248.017C1265.36 248.017 1263.71 248.425 1262.23 249.241C1260.76 250.056 1259.61 251.186 1258.76 252.631C1257.94 254.052 1257.52 255.649 1257.52 257.419C1257.52 259.19 1257.94 260.798 1258.76 262.243C1259.61 263.664 1260.76 264.783 1262.23 265.598C1263.71 266.414 1265.36 266.821 1267.18 266.821Z" fill="black"/>
<path d="M1304.14 258.887H1298.98V269.652H1295.51V245.186H1298.98V255.812H1304.21L1311.99 245.186H1315.77L1306.93 257.035L1316.2 269.652H1312.17L1304.14 258.887Z" fill="black"/>
<path d="M1330.89 269.932C1328.39 269.932 1326.14 269.396 1324.14 268.324C1322.13 267.229 1320.55 265.726 1319.4 263.816C1318.27 261.905 1317.7 259.773 1317.7 257.419C1317.7 255.066 1318.27 252.934 1319.4 251.023C1320.55 249.113 1322.13 247.621 1324.14 246.55C1326.14 245.454 1328.39 244.907 1330.89 244.907C1333.37 244.907 1335.61 245.454 1337.61 246.55C1339.62 247.621 1341.18 249.113 1342.31 251.023C1343.45 252.911 1344.01 255.043 1344.01 257.419C1344.01 259.796 1343.45 261.94 1342.31 263.85C1341.18 265.738 1339.62 267.229 1337.61 268.324C1335.61 269.396 1333.37 269.932 1330.89 269.932ZM1330.89 266.821C1332.71 266.821 1334.33 266.414 1335.77 265.598C1337.23 264.783 1338.38 263.664 1339.2 262.243C1340.05 260.798 1340.48 259.19 1340.48 257.419C1340.48 255.649 1340.05 254.052 1339.2 252.631C1338.38 251.186 1337.23 250.056 1335.77 249.241C1334.33 248.425 1332.71 248.017 1330.89 248.017C1329.08 248.017 1327.43 248.425 1325.94 249.241C1324.48 250.056 1323.32 251.186 1322.48 252.631C1321.65 254.052 1321.24 255.649 1321.24 257.419C1321.24 259.19 1321.65 260.798 1322.48 262.243C1323.32 263.664 1324.48 264.783 1325.94 265.598C1327.43 266.414 1329.08 266.821 1330.89 266.821Z" fill="black"/>
<path d="M1360.8 269.932C1358.32 269.932 1356.08 269.396 1354.08 268.324C1352.1 267.229 1350.54 265.738 1349.41 263.85C1348.28 261.94 1347.71 259.796 1347.71 257.419C1347.71 255.043 1348.28 252.911 1349.41 251.023C1350.54 249.113 1352.11 247.621 1354.11 246.55C1356.12 245.454 1358.36 244.907 1360.83 244.907C1362.77 244.907 1364.53 245.233 1366.14 245.885C1367.74 246.515 1369.11 247.458 1370.24 248.717L1367.94 250.918C1366.08 248.984 1363.76 248.017 1360.97 248.017C1359.14 248.017 1357.47 248.425 1355.99 249.241C1354.5 250.056 1353.34 251.186 1352.49 252.631C1351.66 254.052 1351.25 255.649 1351.25 257.419C1351.25 259.19 1351.66 260.798 1352.49 262.243C1353.34 263.664 1354.5 264.783 1355.99 265.598C1357.47 266.414 1359.14 266.821 1360.97 266.821C1363.73 266.821 1366.05 265.843 1367.94 263.885L1370.24 266.087C1369.11 267.346 1367.73 268.301 1366.1 268.953C1364.5 269.606 1362.73 269.932 1360.8 269.932Z" fill="black"/>
<path d="M1391.84 248.227H1383.36V269.652H1379.89V248.227H1371.44V245.186H1391.84V248.227Z" fill="black"/>
<path d="M1406.94 269.932C1404.44 269.932 1402.19 269.396 1400.18 268.324C1398.18 267.229 1396.6 265.726 1395.44 263.816C1394.31 261.905 1393.75 259.773 1393.75 257.419C1393.75 255.066 1394.31 252.934 1395.44 251.023C1396.6 249.113 1398.18 247.621 1400.18 246.55C1402.19 245.454 1404.44 244.907 1406.94 244.907C1409.41 244.907 1411.65 245.454 1413.66 246.55C1415.66 247.621 1417.23 249.113 1418.36 251.023C1419.49 252.911 1420.06 255.043 1420.06 257.419C1420.06 259.796 1419.49 261.94 1418.36 263.85C1417.23 265.738 1415.66 267.229 1413.66 268.324C1411.65 269.396 1409.41 269.932 1406.94 269.932ZM1406.94 266.821C1408.75 266.821 1410.38 266.414 1411.82 265.598C1413.28 264.783 1414.42 263.664 1415.25 262.243C1416.1 260.798 1416.52 259.19 1416.52 257.419C1416.52 255.649 1416.1 254.052 1415.25 252.631C1414.42 251.186 1413.28 250.056 1411.82 249.241C1410.38 248.425 1408.75 248.017 1406.94 248.017C1405.12 248.017 1403.47 248.425 1401.99 249.241C1400.52 250.056 1399.37 251.186 1398.52 252.631C1397.7 254.052 1397.28 255.649 1397.28 257.419C1397.28 259.19 1397.7 260.798 1398.52 262.243C1399.37 263.664 1400.52 264.783 1401.99 265.598C1403.47 266.414 1405.12 266.821 1406.94 266.821Z" fill="black"/>
<path d="M1443.57 245.186V269.652H1440.07V259.971C1437.46 260.973 1435.04 261.474 1432.82 261.474C1429.8 261.474 1427.46 260.751 1425.79 259.307C1424.14 257.862 1423.31 255.8 1423.31 253.12V245.186H1426.78V252.736C1426.78 254.553 1427.33 255.951 1428.44 256.93C1429.57 257.909 1431.16 258.398 1433.21 258.398C1435.5 258.398 1437.79 257.885 1440.07 256.86V245.186H1443.57Z" fill="black"/>
<path d="M1459.92 258.887H1454.76V269.652H1451.29V245.186H1454.76V255.812H1459.99L1467.77 245.186H1471.56L1462.72 257.035L1471.98 269.652H1467.95L1459.92 258.887Z" fill="black"/>
<path d="M1475.61 245.186H1479.11V264.06L1493.75 245.186H1497V269.652H1493.53V250.814L1478.86 269.652H1475.61V245.186Z" fill="black"/>
</svg>
