<svg width="355" height="233" viewBox="0 0 355 233" fill="none" xmlns="http://www.w3.org/2000/svg">
<circle cx="21.8985" cy="21.8985" r="21.8985" fill="black"/>
<circle cx="21.8985" cy="84.9659" r="21.8985" fill="black"/>
<circle cx="21.8985" cy="148.034" r="21.8985" fill="black"/>
<circle cx="21.8985" cy="211.102" r="21.8985" fill="black"/>
<circle cx="84.0903" cy="21.8985" r="21.8985" fill="black"/>
<circle cx="84.0903" cy="84.9659" r="21.8985" fill="black"/>
<circle cx="84.0903" cy="148.034" r="21.8985" fill="black"/>
<circle cx="84.0903" cy="211.102" r="21.8985" fill="black"/>
<circle cx="146.282" cy="21.8985" r="21.8985" fill="black"/>
<circle cx="146.282" cy="84.9659" r="21.8985" fill="black"/>
<circle cx="146.282" cy="148.034" r="21.8985" fill="black"/>
<circle cx="146.282" cy="211.102" r="21.8985" fill="black"/>
<circle cx="208.474" cy="21.8985" r="21.8985" fill="black"/>
<circle cx="208.474" cy="84.9659" r="21.8985" fill="black"/>
<circle cx="208.474" cy="148.034" r="21.8985" fill="black"/>
<circle cx="208.474" cy="211.102" r="21.8985" fill="black"/>
<circle cx="270.665" cy="21.8985" r="21.8985" fill="black"/>
<circle cx="270.665" cy="84.9659" r="21.8985" fill="black"/>
<circle cx="270.665" cy="148.034" r="21.8985" fill="black"/>
<circle cx="270.665" cy="211.102" r="21.8985" fill="black"/>
<circle cx="332.857" cy="21.8985" r="21.8985" fill="black"/>
<circle cx="332.857" cy="84.9659" r="21.8985" fill="black"/>
<circle cx="332.857" cy="148.034" r="21.8985" fill="black"/>
<circle cx="332.857" cy="211.102" r="21.8985" fill="black"/>
</svg>
