<svg width="91" height="303" viewBox="0 0 91 303" fill="none" xmlns="http://www.w3.org/2000/svg">
<circle cx="18.6476" cy="283.442" r="18.6476" transform="rotate(-90 18.6476 283.442)" fill="black"/>
<circle cx="72.3527" cy="283.442" r="18.6476" transform="rotate(-90 72.3527 283.442)" fill="black"/>
<circle cx="18.6476" cy="230.483" r="18.6476" transform="rotate(-90 18.6476 230.483)" fill="black"/>
<circle cx="72.3527" cy="230.483" r="18.6476" transform="rotate(-90 72.3527 230.483)" fill="black"/>
<circle cx="18.6476" cy="177.525" r="18.6476" transform="rotate(-90 18.6476 177.525)" fill="black"/>
<circle cx="72.3527" cy="177.525" r="18.6476" transform="rotate(-90 72.3527 177.525)" fill="black"/>
<circle cx="18.6476" cy="124.565" r="18.6476" transform="rotate(-90 18.6476 124.565)" fill="black"/>
<circle cx="72.3527" cy="124.565" r="18.6476" transform="rotate(-90 72.3527 124.565)" fill="black"/>
<circle cx="18.6476" cy="71.6054" r="18.6476" transform="rotate(-90 18.6476 71.6054)" fill="black"/>
<circle cx="72.3527" cy="71.6054" r="18.6476" transform="rotate(-90 72.3527 71.6054)" fill="black"/>
<circle cx="18.6476" cy="18.6473" r="18.6476" transform="rotate(-90 18.6476 18.6473)" fill="black"/>
<circle cx="72.3527" cy="18.6473" r="18.6476" transform="rotate(-90 72.3527 18.6473)" fill="black"/>
</svg>
