<svg width="288" height="190" viewBox="0 0 288 190" fill="none" xmlns="http://www.w3.org/2000/svg">
<circle cx="17.7778" cy="17.7778" r="17.7778" fill="black"/>
<circle cx="17.7778" cy="68.978" r="17.7778" fill="black"/>
<circle cx="17.7778" cy="120.177" r="17.7778" fill="black"/>
<circle cx="17.7778" cy="171.377" r="17.7778" fill="black"/>
<circle cx="68.2665" cy="17.7778" r="17.7778" fill="black"/>
<circle cx="68.2665" cy="68.978" r="17.7778" fill="black"/>
<circle cx="68.2665" cy="120.177" r="17.7778" fill="black"/>
<circle cx="68.2665" cy="171.377" r="17.7778" fill="black"/>
<circle cx="118.756" cy="17.7778" r="17.7778" fill="black"/>
<circle cx="118.756" cy="68.978" r="17.7778" fill="black"/>
<circle cx="118.756" cy="120.177" r="17.7778" fill="black"/>
<circle cx="118.756" cy="171.377" r="17.7778" fill="black"/>
<circle cx="169.244" cy="17.7778" r="17.7778" fill="black"/>
<circle cx="169.244" cy="68.978" r="17.7778" fill="black"/>
<circle cx="169.244" cy="120.177" r="17.7778" fill="black"/>
<circle cx="169.244" cy="171.377" r="17.7778" fill="black"/>
<circle cx="219.733" cy="17.7778" r="17.7778" fill="black"/>
<circle cx="219.733" cy="68.978" r="17.7778" fill="black"/>
<circle cx="219.733" cy="120.177" r="17.7778" fill="black"/>
<circle cx="219.733" cy="171.377" r="17.7778" fill="black"/>
<circle cx="270.222" cy="17.7778" r="17.7778" fill="black"/>
<circle cx="270.222" cy="68.978" r="17.7778" fill="black"/>
<circle cx="270.222" cy="120.177" r="17.7778" fill="black"/>
<circle cx="270.222" cy="171.377" r="17.7778" fill="black"/>
</svg>
