<svg width="690" height="560" viewBox="0 0 690 560" fill="none" xmlns="http://www.w3.org/2000/svg">
<path d="M3.68945 559.371H689.689V530.18H3.68945V559.371Z" fill="white"/>
<path d="M639.69 293.18C639.69 454.999 508.51 486.18 346.69 486.18C184.871 486.18 53.6904 454.999 53.6904 293.18C53.6904 131.36 184.871 0.179688 346.69 0.179688C508.51 0.179688 639.69 131.36 639.69 293.18Z" fill="#089D94"/>
<path fill-rule="evenodd" clip-rule="evenodd" d="M405.317 282.865C405.393 282.847 405.47 282.827 405.547 282.807C409.533 281.739 411.899 277.641 410.831 273.654C409.763 269.668 405.665 267.302 401.678 268.37C401.602 268.391 401.526 268.412 401.45 268.435L402.27 271.493C402.344 271.469 402.42 271.446 402.497 271.425C404.796 270.809 407.159 272.174 407.776 274.473C408.392 276.772 407.027 279.136 404.728 279.752C404.651 279.772 404.574 279.791 404.497 279.807L405.317 282.865Z" fill="#996633"/>
<path d="M397.755 148.295C397.259 148.717 396.885 149.001 396.389 149.423C388.732 205.05 400.412 259.81 427.296 306.236C454.472 353.022 496.976 391.336 550.676 413.712L606.17 223.23C602.649 220.312 599.745 216.836 597.328 212.81C596.556 211.338 595.785 209.866 595.144 208.384C594.023 205.79 593.287 203.038 592.691 200.403L397.755 148.295ZM493.178 271.738L454.578 253.549L489.392 185.337L527.992 203.526L493.178 271.738Z" fill="#DCA432"/>
<path fill-rule="evenodd" clip-rule="evenodd" d="M396.969 148.734C396.94 148.354 397.033 147.836 397.135 147.445L139.111 397.196C142.87 402.699 142.379 410.616 141.932 417.837C141.354 427.16 140.849 435.325 149.649 435.647C157.447 435.939 164.791 437.648 172.155 439.363C179.417 441.053 186.699 442.748 194.458 443.094C203.203 443.414 202.056 455.483 200.841 468.26C199.887 478.301 198.891 488.778 202.623 494.331L263.45 480.142C263.199 478.94 262.987 477.733 262.813 476.522L550.995 413.29C497.319 390.924 454.835 352.623 427.673 305.852C400.802 259.441 389.13 204.698 396.787 149.086C394.582 150.851 392.402 152.691 390.254 154.599C392.406 152.554 394.643 150.596 396.969 148.734Z" fill="#6B540E"/>
<path d="M664.868 178.604C676.818 199.175 669.144 225.463 647.812 237.177C631.045 246.302 610.8 243.83 597.096 232.472C593.247 229.281 590.072 225.479 587.43 221.078C586.586 219.468 585.743 217.858 585.043 216.237C583.817 213.401 583.012 210.392 582.36 207.51C579.158 190.028 587.586 171.779 604.486 162.504C625.818 150.789 652.908 157.894 664.868 178.604Z" fill="#662527"/>
<path d="M464.086 180.12L441.465 279.99L520.377 296.176L542.998 196.306L464.086 180.12Z" fill="white"/>
<path d="M490.387 210.944L478.776 262.201L525.879 271.863L537.489 220.606L490.387 210.944Z" fill="black"/>
<path d="M126.538 223.914C126.314 224.22 126.194 224.597 125.97 224.904C135.09 262.828 156.531 295.375 185.718 318.81C215.217 342.458 252.507 356.718 293.042 358.031L281.001 221.169C277.989 220.187 275.143 218.552 272.596 216.508C271.737 215.769 270.879 215.029 270.095 214.188C268.66 212.75 267.477 211.177 266.473 209.574L126.538 223.914ZM219.756 280.312L190.069 277.977L195.462 225.297L225.149 227.632L219.756 280.312Z" fill="#DCA432"/>
<path d="M126.424 223.213C126.482 223.558 126.614 223.8 126.672 224.145C113.372 246.794 113.552 276.2 118.185 301.629C122.979 327.472 130.703 353.331 127.685 379.488C125.879 394.88 161.5 383.176 152.104 394.062C144.056 403.386 112.706 388.384 121.088 401.271L117.127 428.06C108.424 421.969 114.445 427.756 104.121 431.083C93.8998 434.481 101.986 403.666 91.765 407.064C107.118 385.164 51.8598 373.257 43.0814 367.267L126.424 223.213Z" fill="#7D6212"/>
<path d="M126.926 224.16C136.034 262.031 157.448 294.532 186.597 317.934C216.058 341.548 253.3 355.788 293.782 357.099L135.476 447.01C127.071 434.088 99.0982 425.34 101.859 410.094C104.694 394.747 100.318 393.139 102.13 377.705C105.231 351.375 101.832 348.473 96.9495 322.66C92.1702 296.919 113.588 246.872 126.926 224.16Z" fill="#7D6212"/>
<path d="M311.589 175.095C326.671 187.134 328.603 209.064 315.942 223.958C306.01 235.657 289.978 239.5 276.376 234.889C272.551 233.641 268.938 231.564 265.703 228.969C264.613 228.031 263.522 227.093 262.526 226.025C260.704 224.198 259.203 222.201 257.928 220.165C250.506 207.907 251.323 191.936 261.35 180.107C273.916 165.343 296.375 162.967 311.589 175.095Z" fill="#662527"/>
<path d="M176.873 228.231L187.719 297.713L243.713 289.057L232.867 219.575L176.873 228.231Z" fill="white"/>
<path fill-rule="evenodd" clip-rule="evenodd" d="M361.064 308.31C361.216 308.274 361.369 308.236 361.522 308.195C369.461 306.068 374.172 297.908 372.045 289.969C369.918 282.03 361.757 277.319 353.819 279.446C353.666 279.487 353.514 279.53 353.364 279.575L354.264 282.932C354.413 282.885 354.565 282.841 354.717 282.8C360.804 281.17 367.06 284.781 368.69 290.868C370.321 296.954 366.709 303.21 360.623 304.841C360.47 304.882 360.317 304.919 360.164 304.954L361.064 308.31Z" fill="#996633"/>
<path fill-rule="evenodd" clip-rule="evenodd" d="M157.528 332.964C157.633 332.847 157.736 332.729 157.838 332.608C163.149 326.336 162.37 316.945 156.097 311.635C149.825 306.324 140.434 307.103 135.124 313.376C135.021 313.496 134.922 313.618 134.824 313.741L137.476 315.986C137.572 315.863 137.672 315.741 137.774 315.62C141.845 310.811 149.044 310.213 153.853 314.285C158.662 318.356 159.26 325.555 155.188 330.364C155.086 330.485 154.982 330.603 154.876 330.719L157.528 332.964Z" fill="#996633"/>
<path fill-rule="evenodd" clip-rule="evenodd" d="M121.042 286.954C121.095 286.896 121.146 286.837 121.197 286.777C123.834 283.662 123.447 278.998 120.332 276.361C117.217 273.723 112.553 274.11 109.915 277.225C109.865 277.285 109.815 277.346 109.766 277.407L112.419 279.653C112.466 279.591 112.515 279.529 112.565 279.469C113.964 277.818 116.436 277.612 118.088 279.011C119.74 280.409 119.945 282.882 118.546 284.533C118.496 284.593 118.443 284.652 118.39 284.708L121.042 286.954Z" fill="#996633"/>
<path fill-rule="evenodd" clip-rule="evenodd" d="M366.966 346.19C367.056 346.169 367.147 346.146 367.238 346.122C371.951 344.859 374.748 340.015 373.485 335.302C372.222 330.588 367.377 327.792 362.664 329.054C362.574 329.079 362.484 329.104 362.395 329.131L363.294 332.488C363.383 332.46 363.472 332.433 363.563 332.409C366.424 331.642 369.364 333.34 370.13 336.2C370.897 339.061 369.199 342.001 366.339 342.768C366.248 342.792 366.157 342.814 366.066 342.833L366.966 346.19Z" fill="#996633"/>
<path fill-rule="evenodd" clip-rule="evenodd" d="M391.721 375.578C391.874 375.542 392.026 375.504 392.179 375.463C400.118 373.335 404.829 365.175 402.702 357.237C400.575 349.298 392.415 344.586 384.476 346.714C384.323 346.755 384.172 346.798 384.021 346.843L384.921 350.2C385.07 350.153 385.222 350.109 385.375 350.068C391.461 348.437 397.717 352.049 399.348 358.135C400.978 364.222 397.367 370.478 391.28 372.108C391.127 372.149 390.975 372.187 390.822 372.221L391.721 375.578Z" fill="#996633"/>
<path fill-rule="evenodd" clip-rule="evenodd" d="M335.842 338.974C335.995 338.938 336.148 338.9 336.3 338.859C344.239 336.732 348.95 328.572 346.823 320.633C344.696 312.694 336.536 307.983 328.597 310.11C328.444 310.151 328.293 310.194 328.143 310.24L329.042 313.596C329.192 313.549 329.343 313.505 329.496 313.464C335.582 311.834 341.838 315.446 343.469 321.532C345.1 327.618 341.488 333.874 335.401 335.505C335.249 335.546 335.096 335.583 334.943 335.618L335.842 338.974Z" fill="#996633"/>
<path fill-rule="evenodd" clip-rule="evenodd" d="M154.279 372.55C154.384 372.433 154.487 372.315 154.589 372.194C159.9 365.922 159.121 356.531 152.848 351.221C146.576 345.91 137.185 346.689 131.875 352.962C131.772 353.082 131.673 353.204 131.575 353.327L134.227 355.572C134.323 355.449 134.423 355.326 134.525 355.206C138.596 350.397 145.795 349.799 150.604 353.871C155.413 357.942 156.011 365.141 151.939 369.95C151.837 370.071 151.733 370.189 151.627 370.304L154.279 372.55Z" fill="#996633"/>
<path fill-rule="evenodd" clip-rule="evenodd" d="M309.111 310.361C309.39 310.296 309.669 310.226 309.948 310.151C324.446 306.266 333.049 291.364 329.165 276.867C325.28 262.369 310.378 253.765 295.88 257.65C295.601 257.724 295.325 257.803 295.05 257.886L295.95 261.242C296.224 261.158 296.5 261.079 296.779 261.004C309.424 257.616 322.422 265.12 325.81 277.765C329.198 290.411 321.694 303.408 309.049 306.797C308.77 306.871 308.491 306.941 308.212 307.005L309.111 310.361Z" fill="#996633"/>
<path fill-rule="evenodd" clip-rule="evenodd" d="M116.004 364.266C116.196 364.053 116.385 363.836 116.571 363.616C126.27 352.161 124.846 335.013 113.391 325.314C101.937 315.616 84.7883 317.039 75.0896 328.494C74.9031 328.714 74.7208 328.937 74.5425 329.161L77.1943 331.406C77.3714 331.181 77.5533 330.958 77.7399 330.738C86.1993 320.747 101.156 319.505 111.147 327.964C121.139 336.424 122.38 351.381 113.921 361.372C113.734 361.592 113.545 361.809 113.352 362.02L116.004 364.266Z" fill="#996633"/>
<path fill-rule="evenodd" clip-rule="evenodd" d="M217.277 373.403C217.335 373.339 217.392 373.274 217.448 373.207C220.377 369.749 219.947 364.572 216.488 361.644C213.03 358.716 207.853 359.146 204.925 362.604C204.869 362.67 204.814 362.738 204.76 362.805L207.412 365.051C207.465 364.982 207.519 364.915 207.575 364.848C209.264 362.853 212.25 362.606 214.245 364.294C216.239 365.983 216.487 368.969 214.798 370.963C214.742 371.03 214.684 371.095 214.625 371.158L217.277 373.403Z" fill="#996633"/>
<path fill-rule="evenodd" clip-rule="evenodd" d="M312.315 371.774C312.4 371.754 312.484 371.733 312.568 371.711C316.945 370.538 319.542 366.039 318.37 361.662C317.197 357.285 312.698 354.688 308.321 355.86C308.237 355.883 308.153 355.907 308.07 355.932L308.97 359.289C309.052 359.262 309.135 359.237 309.22 359.215C311.744 358.538 314.339 360.036 315.015 362.561C315.692 365.085 314.194 367.68 311.669 368.356C311.585 368.379 311.5 368.399 311.416 368.417L312.315 371.774Z" fill="#996633"/>
<path fill-rule="evenodd" clip-rule="evenodd" d="M153.641 412.892C153.699 412.828 153.756 412.762 153.813 412.696C156.741 409.237 156.311 404.06 152.853 401.132C149.395 398.204 144.217 398.634 141.289 402.092C141.233 402.159 141.178 402.226 141.124 402.294L143.777 404.54C143.829 404.471 143.883 404.403 143.94 404.336C145.628 402.342 148.614 402.094 150.609 403.783C152.603 405.471 152.851 408.457 151.162 410.452C151.106 410.518 151.048 410.583 150.989 410.646L153.641 412.892Z" fill="#996633"/>
<path fill-rule="evenodd" clip-rule="evenodd" d="M434.709 367.351C434.862 367.315 435.015 367.277 435.167 367.236C443.106 365.109 447.817 356.949 445.69 349.01C443.563 341.071 435.403 336.36 427.464 338.487C427.311 338.528 427.16 338.571 427.01 338.616L427.909 341.973C428.059 341.926 428.21 341.882 428.363 341.841C434.449 340.211 440.705 343.822 442.336 349.909C443.967 355.995 440.355 362.251 434.269 363.882C434.116 363.923 433.963 363.96 433.81 363.995L434.709 367.351Z" fill="#996633"/>
<path d="M206.493 246.96L211.522 279.703L241.379 274.491L236.35 241.747L206.493 246.96Z" fill="black"/>
<path d="M673.565 351.867L510.692 502.717L459 546.5H233.5L179.297 503.437L128.802 457.299L12.8926 351.236L137.541 365.564L186.271 371.061L264.397 379.982L300.149 384.037H300.414L350.468 389.805L419.854 381.244L442.983 378.36L623.158 356.102L652.731 352.407L666.856 350.695L673.565 351.867Z" fill="#996633"/>
</svg>
