<svg width="690" height="560" viewBox="0 0 690 560" fill="none" xmlns="http://www.w3.org/2000/svg">
<path d="M3.99902 559.191H689.999V530H3.99902V559.191Z" fill="#089D94"/>
<path d="M640 293C640 454.819 508.819 486 347 486C185.181 486 54 454.819 54 293C54 131.181 185.181 0 347 0C508.819 0 640 131.181 640 293Z" fill="#089D94"/>
<path fill-rule="evenodd" clip-rule="evenodd" d="M405.626 282.684C405.703 282.666 405.78 282.647 405.856 282.626C409.843 281.558 412.208 277.46 411.14 273.474C410.072 269.487 405.974 267.121 401.988 268.19C401.911 268.21 401.835 268.232 401.76 268.255L402.579 271.312C402.654 271.288 402.73 271.265 402.807 271.245C405.106 270.629 407.469 271.993 408.085 274.292C408.701 276.592 407.337 278.955 405.038 279.571C404.961 279.592 404.884 279.61 404.807 279.626L405.626 282.684Z" fill="#996633"/>
<path d="M398.065 148.114C397.569 148.536 397.194 148.82 396.698 149.242C389.042 204.869 400.721 259.629 427.606 306.055C454.782 352.841 497.285 391.155 550.985 413.532L606.479 223.05C602.958 220.132 600.055 216.655 597.638 212.63C596.866 211.158 596.094 209.686 595.454 208.203C594.333 205.609 593.596 202.858 593 200.223L398.065 148.114ZM493.487 271.558L454.887 253.368L489.701 185.156L528.301 203.346L493.487 271.558Z" fill="#DCA432"/>
<path fill-rule="evenodd" clip-rule="evenodd" d="M397.279 148.554C397.25 148.173 397.342 147.655 397.445 147.264L139.42 397.015C143.179 402.519 142.689 410.435 142.241 417.657C141.664 426.979 141.158 435.144 149.959 435.466C157.757 435.758 165.1 437.468 172.465 439.182C179.726 440.872 187.008 442.567 194.767 442.913C203.512 443.233 202.365 455.303 201.151 468.079C200.196 478.12 199.201 488.597 202.932 494.15L263.76 479.961C263.508 478.759 263.296 477.552 263.123 476.342L551.305 413.11C497.628 390.743 455.144 352.442 427.982 305.671C401.111 259.26 389.44 204.517 397.096 148.905C394.891 150.671 392.712 152.51 390.563 154.418C392.716 152.373 394.953 150.415 397.279 148.554Z" fill="#6B540E"/>
<path d="M665.178 178.423C677.127 198.994 669.454 225.282 648.121 236.997C631.354 246.122 611.11 243.65 597.406 232.291C593.556 229.1 590.382 225.299 587.739 220.897C586.896 219.287 586.052 217.677 585.352 216.057C584.127 213.22 583.321 210.211 582.67 207.33C579.467 189.847 587.895 171.598 604.795 162.323C626.128 150.609 653.217 157.713 665.178 178.423Z" fill="#662527"/>
<path d="M464.396 179.942L441.774 279.812L520.686 295.998L543.308 196.128L464.396 179.942Z" fill="white"/>
<path d="M490.696 210.765L479.086 262.021L526.189 271.683L537.799 220.426L490.696 210.765Z" fill="black"/>
<path d="M126.848 223.735C126.624 224.041 126.504 224.419 126.279 224.725C135.399 262.649 156.841 295.196 186.028 318.631C215.526 342.279 252.817 356.54 293.352 357.852L281.31 220.991C278.299 220.008 275.453 218.373 272.906 216.329C272.047 215.59 271.188 214.851 270.404 214.01C268.969 212.571 267.787 210.999 266.783 209.395L126.848 223.735ZM220.065 280.133L190.379 277.799L195.771 225.118L225.458 227.453L220.065 280.133Z" fill="#DCA432"/>
<path d="M126.734 223.033C126.792 223.378 126.924 223.621 126.982 223.965C113.682 246.614 113.861 276.02 118.495 301.449C123.289 327.293 131.012 353.152 127.995 379.309C126.188 394.7 161.81 382.996 152.413 393.882C144.365 403.206 113.016 388.205 121.397 401.091L117.437 427.88C108.733 421.789 114.754 427.576 104.43 430.903C94.2093 434.301 102.295 403.486 92.0746 406.884C107.428 384.984 52.1694 373.077 43.391 367.088L126.734 223.033Z" fill="#7D6212"/>
<path d="M127.236 223.981C136.344 261.851 157.757 294.352 186.907 317.754C216.367 341.368 253.609 355.609 294.092 356.92L135.786 446.831C127.38 433.909 99.4077 425.16 102.168 409.915C105.003 394.567 100.627 392.959 102.439 377.525C105.54 351.195 102.142 348.293 97.259 322.481C92.4797 296.739 113.897 246.692 127.236 223.981Z" fill="#7D6212"/>
<path d="M311.898 174.917C326.98 186.955 328.912 208.886 316.251 223.779C306.32 235.478 290.288 239.322 276.686 234.71C272.861 233.462 269.247 231.386 266.013 228.79C264.922 227.852 263.832 226.914 262.836 225.846C261.013 224.019 259.512 222.023 258.237 219.986C250.815 207.728 251.633 191.757 261.659 179.928C274.225 165.164 296.684 162.788 311.898 174.917Z" fill="#662527"/>
<path d="M177.182 228.05L188.028 297.532L244.023 288.877L233.177 219.394L177.182 228.05Z" fill="white"/>
<path fill-rule="evenodd" clip-rule="evenodd" d="M361.373 308.131C361.526 308.095 361.679 308.056 361.831 308.015C369.77 305.888 374.482 297.728 372.354 289.789C370.227 281.85 362.067 277.139 354.128 279.266C353.976 279.307 353.824 279.35 353.674 279.396L354.573 282.752C354.723 282.706 354.874 282.662 355.027 282.621C361.113 280.99 367.369 284.602 369 290.688C370.631 296.774 367.019 303.03 360.933 304.661C360.78 304.702 360.627 304.74 360.474 304.774L361.373 308.131Z" fill="#996633"/>
<path fill-rule="evenodd" clip-rule="evenodd" d="M157.837 332.784C157.942 332.668 158.046 332.549 158.148 332.428C163.459 326.156 162.679 316.766 156.407 311.455C150.134 306.144 140.744 306.924 135.433 313.196C135.331 313.317 135.231 313.439 135.134 313.561L137.786 315.807C137.882 315.683 137.981 315.561 138.083 315.44C142.155 310.631 149.354 310.034 154.163 314.105C158.972 318.177 159.569 325.376 155.498 330.185C155.395 330.305 155.291 330.423 155.185 330.539L157.837 332.784Z" fill="#996633"/>
<path fill-rule="evenodd" clip-rule="evenodd" d="M121.352 286.774C121.404 286.716 121.456 286.657 121.506 286.598C124.144 283.482 123.757 278.819 120.642 276.181C117.526 273.543 112.862 273.93 110.225 277.046C110.174 277.106 110.124 277.166 110.076 277.227L112.729 279.473C112.775 279.411 112.824 279.35 112.875 279.29C114.273 277.638 116.746 277.433 118.398 278.831C120.049 280.229 120.254 282.702 118.856 284.354C118.805 284.414 118.753 284.472 118.699 284.528L121.352 286.774Z" fill="#996633"/>
<path fill-rule="evenodd" clip-rule="evenodd" d="M367.275 346.011C367.366 345.989 367.457 345.966 367.547 345.942C372.26 344.679 375.057 339.835 373.794 335.122C372.531 330.409 367.687 327.612 362.974 328.875C362.883 328.899 362.793 328.925 362.704 328.951L363.604 332.309C363.692 332.28 363.782 332.253 363.873 332.229C366.733 331.463 369.674 333.16 370.44 336.021C371.206 338.881 369.509 341.821 366.648 342.588C366.558 342.612 366.467 342.634 366.376 342.653L367.275 346.011Z" fill="#996633"/>
<path fill-rule="evenodd" clip-rule="evenodd" d="M392.03 375.397C392.183 375.361 392.336 375.323 392.489 375.282C400.427 373.155 405.139 364.995 403.012 357.056C400.884 349.117 392.724 344.406 384.785 346.533C384.633 346.574 384.481 346.617 384.331 346.662L385.23 350.019C385.38 349.972 385.531 349.928 385.684 349.887C391.77 348.257 398.026 351.868 399.657 357.955C401.288 364.041 397.676 370.297 391.59 371.928C391.437 371.969 391.284 372.006 391.131 372.041L392.03 375.397Z" fill="#996633"/>
<path fill-rule="evenodd" clip-rule="evenodd" d="M336.152 338.795C336.304 338.759 336.457 338.72 336.61 338.679C344.549 336.552 349.26 328.392 347.133 320.453C345.005 312.515 336.845 307.803 328.906 309.93C328.754 309.971 328.602 310.015 328.452 310.06L329.351 313.416C329.501 313.37 329.652 313.326 329.805 313.285C335.892 311.654 342.148 315.266 343.778 321.352C345.409 327.438 341.797 333.694 335.711 335.325C335.558 335.366 335.405 335.404 335.252 335.438L336.152 338.795Z" fill="#996633"/>
<path fill-rule="evenodd" clip-rule="evenodd" d="M154.588 372.369C154.693 372.253 154.797 372.134 154.899 372.013C160.21 365.741 159.43 356.351 153.158 351.04C146.885 345.729 137.495 346.509 132.184 352.781C132.082 352.902 131.982 353.023 131.885 353.146L134.537 355.392C134.633 355.268 134.732 355.146 134.834 355.025C138.906 350.216 146.105 349.619 150.914 353.69C155.723 357.762 156.32 364.961 152.249 369.769C152.146 369.89 152.042 370.008 151.936 370.124L154.588 372.369Z" fill="#996633"/>
<path fill-rule="evenodd" clip-rule="evenodd" d="M309.421 310.182C309.7 310.116 309.979 310.046 310.257 309.971C324.755 306.087 333.359 291.185 329.474 276.687C325.589 262.189 310.687 253.585 296.19 257.47C295.911 257.545 295.634 257.624 295.36 257.706L296.259 261.063C296.533 260.979 296.81 260.899 297.088 260.824C309.734 257.436 322.731 264.94 326.12 277.586C329.508 290.231 322.004 303.229 309.359 306.617C309.08 306.692 308.8 306.761 308.521 306.825L309.421 310.182Z" fill="#996633"/>
<path fill-rule="evenodd" clip-rule="evenodd" d="M116.313 364.086C116.505 363.873 116.694 363.657 116.881 363.436C126.579 351.981 125.156 334.833 113.701 325.134C102.246 315.436 85.0979 316.859 75.3992 328.314C75.2127 328.535 75.0303 328.757 74.852 328.981L77.5038 331.227C77.681 331.001 77.8629 330.779 78.0495 330.558C86.5088 320.567 101.466 319.325 111.457 327.785C121.448 336.244 122.69 351.201 114.231 361.192C114.044 361.413 113.854 361.629 113.661 361.841L116.313 364.086Z" fill="#996633"/>
<path fill-rule="evenodd" clip-rule="evenodd" d="M217.587 373.223C217.645 373.159 217.702 373.093 217.758 373.027C220.686 369.568 220.256 364.391 216.798 361.463C213.34 358.535 208.163 358.965 205.235 362.423C205.178 362.49 205.123 362.557 205.07 362.625L207.722 364.871C207.774 364.802 207.829 364.734 207.885 364.667C209.574 362.673 212.56 362.425 214.554 364.114C216.549 365.802 216.797 368.788 215.108 370.783C215.051 370.849 214.993 370.914 214.934 370.977L217.587 373.223Z" fill="#996633"/>
<path fill-rule="evenodd" clip-rule="evenodd" d="M312.625 371.594C312.709 371.575 312.793 371.553 312.878 371.531C317.254 370.358 319.852 365.859 318.679 361.482C317.506 357.105 313.007 354.508 308.63 355.681C308.546 355.703 308.463 355.727 308.38 355.752L309.28 359.109C309.362 359.082 309.445 359.058 309.529 359.035C312.054 358.359 314.648 359.857 315.325 362.381C316.001 364.905 314.503 367.5 311.979 368.177C311.894 368.199 311.81 368.219 311.725 368.237L312.625 371.594Z" fill="#996633"/>
<path fill-rule="evenodd" clip-rule="evenodd" d="M153.951 412.712C154.009 412.648 154.066 412.582 154.122 412.516C157.05 409.058 156.621 403.881 153.162 400.953C149.704 398.025 144.527 398.454 141.599 401.913C141.543 401.979 141.488 402.046 141.434 402.114L144.086 404.36C144.138 404.291 144.193 404.223 144.249 404.157C145.938 402.162 148.924 401.914 150.918 403.603C152.913 405.292 153.161 408.277 151.472 410.272C151.416 410.339 151.358 410.403 151.298 410.466L153.951 412.712Z" fill="#996633"/>
<path fill-rule="evenodd" clip-rule="evenodd" d="M435.019 367.172C435.172 367.136 435.324 367.097 435.477 367.056C443.416 364.929 448.127 356.769 446 348.83C443.873 340.891 435.713 336.18 427.774 338.307C427.621 338.348 427.47 338.391 427.319 338.437L428.219 341.793C428.368 341.747 428.52 341.703 428.672 341.662C434.759 340.031 441.015 343.643 442.646 349.729C444.276 355.815 440.664 362.071 434.578 363.702C434.425 363.743 434.272 363.781 434.119 363.815L435.019 367.172Z" fill="#996633"/>
<path d="M206.803 246.779L211.832 279.522L241.689 274.31L236.66 241.567L206.803 246.779Z" fill="black"/>
<path d="M673.874 351.687L511.002 502.537L477.633 530.742L214.829 531.193L179.606 503.258L129.111 457.12L13.2021 351.056L137.851 365.384L186.58 370.881L264.706 379.802L300.459 383.858H300.724L350.777 389.625L420.164 381.064L443.292 378.18L623.468 355.922L653.041 352.228L667.166 350.516L673.874 351.687Z" fill="#996633"/>
</svg>
