<svg width="687" height="560" viewBox="0 0 687 560" fill="none" xmlns="http://www.w3.org/2000/svg">
<path fill-rule="evenodd" clip-rule="evenodd" d="M437.095 539C525.716 488.694 637 405.133 637 293.18C637 131.36 505.819 0.179688 344 0.179688C182.181 0.179688 51 131.36 51 293.18C51 408.113 153.31 488.582 244.912 539H437.095Z" fill="#089D94"/>
<path d="M0.689453 559.371H686.689V530.18H0.689453V559.371Z" fill="#089D94"/>
<path d="M1 559.371H687V530.18H1V559.371Z" fill="#089D94"/>
<path fill-rule="evenodd" clip-rule="evenodd" d="M402.627 282.865C402.704 282.847 402.78 282.827 402.857 282.807C406.844 281.739 409.209 277.641 408.141 273.654C407.073 269.668 402.975 267.302 398.989 268.37C398.912 268.391 398.836 268.412 398.761 268.435L399.58 271.493C399.655 271.469 399.731 271.446 399.808 271.425C402.107 270.809 404.47 272.174 405.086 274.473C405.702 276.772 404.338 279.136 402.039 279.752C401.962 279.772 401.885 279.791 401.808 279.807L402.627 282.865Z" fill="#996633"/>
<path fill-rule="evenodd" clip-rule="evenodd" d="M410.317 282.865C410.393 282.847 410.47 282.827 410.547 282.807C414.533 281.739 416.899 277.641 415.831 273.654C414.763 269.668 410.665 267.302 406.678 268.37C406.602 268.391 406.526 268.412 406.45 268.435L407.27 271.493C407.344 271.469 407.42 271.446 407.497 271.425C409.796 270.809 412.159 272.174 412.776 274.473C413.392 276.772 412.027 279.136 409.728 279.752C409.651 279.772 409.574 279.791 409.497 279.807L410.317 282.865Z" fill="#996633"/>
<path d="M590.371 279.022C590.371 309.42 479.429 335.868 343.16 335.868C206.891 335.868 95 311.225 95 280.826C95 250.428 206.891 225.785 343.16 225.785C479.429 225.785 590.371 248.623 590.371 279.022Z" fill="#FFD7CA"/>
<path d="M453.311 279.197C453.311 309.572 373.134 336 274.653 336C176.173 336 95.3105 311.376 95.3105 281C95.3105 250.624 176.173 226 274.653 226C373.134 226 453.311 248.821 453.311 279.197Z" fill="#77AAA3"/>
<path d="M396.897 14L564.115 53.1275L492.028 361.204L324.81 322.076L396.897 14Z" fill="#852E31"/>
<path fill-rule="evenodd" clip-rule="evenodd" d="M375.527 333.724L445.353 25.9254L452.06 27.447L382.234 335.246L375.527 333.724Z" fill="#4D1112"/>
<path fill-rule="evenodd" clip-rule="evenodd" d="M434.748 347.259L504.574 39.4606L511.281 40.9821L441.455 348.781L434.748 347.259Z" fill="#4D1112"/>
<path fill-rule="evenodd" clip-rule="evenodd" d="M549.84 114.67L383.181 74.9086L384.777 68.2188L551.436 107.98L549.84 114.67Z" fill="#4D1112"/>
<path fill-rule="evenodd" clip-rule="evenodd" d="M520.232 238.181L353.573 198.42L355.169 191.73L521.828 231.492L520.232 238.181Z" fill="#4D1112"/>
<path fill-rule="evenodd" clip-rule="evenodd" d="M534.612 177.269L367.954 137.508L369.55 130.818L536.209 170.58L534.612 177.269Z" fill="#4D1112"/>
<path fill-rule="evenodd" clip-rule="evenodd" d="M504.158 309.245L337.499 269.484L339.963 259.156L506.622 298.917L504.158 309.245Z" fill="#4D1112"/>
<path d="M370.207 296.806C370.207 365.448 314.562 421.093 245.92 421.093C177.279 421.093 121.634 365.448 121.634 296.806C121.634 228.165 177.279 172.52 245.92 172.52C314.562 172.52 370.207 228.165 370.207 296.806Z" fill="#77AAA3"/>
<path d="M567.29 282.599C567.29 346.337 515.619 398.008 451.881 398.008C388.142 398.008 336.472 346.337 336.472 282.599C336.472 218.86 388.142 167.189 451.881 167.189C515.619 167.189 567.29 218.86 567.29 282.599Z" fill="#FFD7CA"/>
<path d="M450.105 334.091C450.105 397.829 398.435 449.5 334.696 449.5C270.958 449.5 219.287 397.829 219.287 334.091C219.287 270.352 270.958 218.682 334.696 218.682C398.435 218.682 450.105 270.352 450.105 334.091Z" fill="#AC5D0E"/>
<path d="M592.147 279.049C412.569 365.335 166.831 319.264 95 279.049V404.003C243.388 490.3 467.388 466.497 592.147 404.003V279.049Z" fill="#A22A2F"/>
<path d="M245.749 530C235.05 530 224.939 525.107 218.301 516.716L148.266 428.197C305.958 477.829 463.728 450.675 522.901 429.996L462.275 515.279C455.71 524.514 445.08 530 433.749 530H245.749Z" fill="#662527"/>
<rect x="321.811" y="248" width="35.6642" height="13" rx="6.5" transform="rotate(30 321.811 248)" fill="#EDA2D8"/>
<rect x="511.811" y="263" width="35.6642" height="13" rx="6.5" transform="rotate(30 511.811 263)" fill="#75C3C8"/>
<rect x="268.246" y="182.941" width="35.6642" height="13" rx="6.5" transform="rotate(58.5548 268.246 182.941)" fill="#EDA2D8"/>
<rect x="424.34" y="221.451" width="35.6642" height="13" rx="6.5" transform="rotate(-105 424.34 221.451)" fill="white"/>
<rect x="176.311" y="215.23" width="35.6642" height="13" rx="6.5" transform="rotate(-15 176.311 215.23)" fill="#FCFCFC"/>
<rect x="200.311" y="281.475" width="34.0143" height="12.3986" rx="6.1993" transform="rotate(-56.8391 200.311 281.475)" fill="#75C3C8"/>
<circle cx="282.811" cy="293.5" r="13.5" fill="#75C3C8"/>
<circle cx="479.811" cy="207.5" r="13.5" fill="#EDA2D8"/>
<circle cx="395.811" cy="294.5" r="13.5" fill="white"/>
<circle cx="459.811" cy="272.5" r="13.5" fill="#AC5D0E"/>
<circle cx="147.811" cy="272.5" r="13.5" fill="#AC5D0E"/>
<path d="M516.311 391.397V306.441L592.311 279V346.825C592.311 350.994 588.93 354.374 584.761 354.374C580.591 354.374 577.211 357.754 577.211 361.924V372.978C577.211 383.252 568.882 391.581 558.608 391.581H547.516C547.516 400.097 540.521 407 532.006 407C523.388 407 516.311 400.014 516.311 391.397Z" fill="#FEC0AB"/>
</svg>
