<svg width="337" height="92" viewBox="0 0 337 92" fill="none" xmlns="http://www.w3.org/2000/svg">
<path d="M6.30037 76.1348C7.3117 76.1348 8.22737 76.3671 9.04737 76.8318C9.86737 77.2828 10.5097 77.9251 10.9744 78.7588C11.439 79.5924 11.6714 80.5423 11.6714 81.6083C11.6714 82.6879 11.439 83.6446 10.9744 84.4783C10.5097 85.3119 9.86737 85.9611 9.04737 86.4258C8.24104 86.8768 7.32537 87.1023 6.30037 87.1023C5.4257 87.1023 4.63304 86.9246 3.92237 86.5693C3.22537 86.2003 2.65137 85.6673 2.20037 84.9703V90.9768H0.744873V76.2168H2.13887V78.3488C2.5762 77.6381 3.1502 77.0914 3.86087 76.7088C4.5852 76.3261 5.39837 76.1348 6.30037 76.1348ZM6.19787 85.8108C6.94954 85.8108 7.63287 85.6399 8.24787 85.2983C8.86287 84.9429 9.3412 84.4441 9.68287 83.8018C10.0382 83.1594 10.2159 82.4283 10.2159 81.6083C10.2159 80.7883 10.0382 80.0639 9.68287 79.4353C9.3412 78.7929 8.86287 78.2941 8.24787 77.9388C7.63287 77.5834 6.94954 77.4058 6.19787 77.4058C5.43254 77.4058 4.74237 77.5834 4.12737 77.9388C3.52604 78.2941 3.0477 78.7929 2.69237 79.4353C2.3507 80.0639 2.17987 80.7883 2.17987 81.6083C2.17987 82.4283 2.3507 83.1594 2.69237 83.8018C3.0477 84.4441 3.52604 84.9429 4.12737 85.2983C4.74237 85.6399 5.43254 85.8108 6.19787 85.8108Z" fill="black"/>
<path d="M24.2286 82.0593H15.2086C15.2906 83.1799 15.7211 84.0888 16.5001 84.7858C17.2791 85.4691 18.2631 85.8108 19.4521 85.8108C20.1217 85.8108 20.7367 85.6946 21.2971 85.4623C21.8574 85.2163 22.3426 84.8609 22.7526 84.3963L23.5726 85.3393C23.0942 85.9133 22.4929 86.3506 21.7686 86.6513C21.0579 86.9519 20.2721 87.1023 19.4111 87.1023C18.3041 87.1023 17.3201 86.8699 16.4591 86.4053C15.6118 85.9269 14.9489 85.2709 14.4706 84.4373C13.9922 83.6036 13.7531 82.6606 13.7531 81.6083C13.7531 80.5559 13.9786 79.6129 14.4296 78.7793C14.8942 77.9456 15.5229 77.2964 16.3156 76.8318C17.1219 76.3671 18.0239 76.1348 19.0216 76.1348C20.0193 76.1348 20.9144 76.3671 21.7071 76.8318C22.4998 77.2964 23.1216 77.9456 23.5726 78.7793C24.0236 79.5993 24.2491 80.5423 24.2491 81.6083L24.2286 82.0593ZM19.0216 77.3853C17.9829 77.3853 17.1082 77.7201 16.3976 78.3898C15.7006 79.0458 15.3042 79.9068 15.2086 80.9728H22.8551C22.7594 79.9068 22.3563 79.0458 21.6456 78.3898C20.9486 77.7201 20.0739 77.3853 19.0216 77.3853Z" fill="black"/>
<path d="M31.9809 87.1023C30.9149 87.1023 29.9583 86.8699 29.1109 86.4053C28.2773 85.9406 27.6213 85.2914 27.1429 84.4578C26.6646 83.6104 26.4254 82.6606 26.4254 81.6083C26.4254 80.5559 26.6646 79.6129 27.1429 78.7793C27.6213 77.9456 28.2773 77.2964 29.1109 76.8318C29.9583 76.3671 30.9149 76.1348 31.9809 76.1348C32.9103 76.1348 33.7371 76.3193 34.4614 76.6883C35.1994 77.0436 35.7803 77.5698 36.2039 78.2668L35.1174 79.0048C34.7621 78.4718 34.3111 78.0754 33.7644 77.8158C33.2178 77.5424 32.6233 77.4058 31.9809 77.4058C31.2019 77.4058 30.4981 77.5834 29.8694 77.9388C29.2544 78.2804 28.7693 78.7724 28.4139 79.4148C28.0723 80.0571 27.9014 80.7883 27.9014 81.6083C27.9014 82.4419 28.0723 83.1799 28.4139 83.8223C28.7693 84.4509 29.2544 84.9429 29.8694 85.2983C30.4981 85.6399 31.2019 85.8108 31.9809 85.8108C32.6233 85.8108 33.2178 85.6809 33.7644 85.4213C34.3111 85.1616 34.7621 84.7653 35.1174 84.2323L36.2039 84.9703C35.7803 85.6673 35.1994 86.2003 34.4614 86.5693C33.7234 86.9246 32.8966 87.1023 31.9809 87.1023Z" fill="black"/>
<path d="M46.407 77.5083H42.3275V86.9998H40.872V77.5083H36.7925V76.2168H46.407V77.5083Z" fill="black"/>
<path d="M52.4595 87.1023C51.4208 87.1023 50.4847 86.8699 49.651 86.4053C48.8173 85.9269 48.1613 85.2709 47.683 84.4373C47.2047 83.6036 46.9655 82.6606 46.9655 81.6083C46.9655 80.5559 47.2047 79.6129 47.683 78.7793C48.1613 77.9456 48.8173 77.2964 49.651 76.8318C50.4847 76.3671 51.4208 76.1348 52.4595 76.1348C53.4981 76.1348 54.4343 76.3671 55.268 76.8318C56.1016 77.2964 56.7508 77.9456 57.2155 78.7793C57.6938 79.6129 57.933 80.5559 57.933 81.6083C57.933 82.6606 57.6938 83.6036 57.2155 84.4373C56.7508 85.2709 56.1016 85.9269 55.268 86.4053C54.4343 86.8699 53.4981 87.1023 52.4595 87.1023ZM52.4595 85.8108C53.2248 85.8108 53.9082 85.6399 54.5095 85.2983C55.1245 84.9429 55.6028 84.4441 55.9445 83.8018C56.2861 83.1594 56.457 82.4283 56.457 81.6083C56.457 80.7883 56.2861 80.0571 55.9445 79.4148C55.6028 78.7724 55.1245 78.2804 54.5095 77.9388C53.9082 77.5834 53.2248 77.4058 52.4595 77.4058C51.6941 77.4058 51.004 77.5834 50.389 77.9388C49.7877 78.2804 49.3093 78.7724 48.954 79.4148C48.6123 80.0571 48.4415 80.7883 48.4415 81.6083C48.4415 82.4283 48.6123 83.1594 48.954 83.8018C49.3093 84.4441 49.7877 84.9429 50.389 85.2983C51.004 85.6399 51.6941 85.8108 52.4595 85.8108Z" fill="black"/>
<path d="M66.5992 76.1348C67.6105 76.1348 68.5262 76.3671 69.3462 76.8318C70.1662 77.2828 70.8085 77.9251 71.2732 78.7588C71.7379 79.5924 71.9702 80.5423 71.9702 81.6083C71.9702 82.6879 71.7379 83.6446 71.2732 84.4783C70.8085 85.3119 70.1662 85.9611 69.3462 86.4258C68.5399 86.8768 67.6242 87.1023 66.5992 87.1023C65.7245 87.1023 64.9319 86.9246 64.2212 86.5693C63.5242 86.2003 62.9502 85.6673 62.4992 84.9703V90.9768H61.0437V76.2168H62.4377V78.3488C62.875 77.6381 63.449 77.0914 64.1597 76.7088C64.884 76.3261 65.6972 76.1348 66.5992 76.1348ZM66.4967 85.8108C67.2484 85.8108 67.9317 85.6399 68.5467 85.2983C69.1617 84.9429 69.64 84.4441 69.9817 83.8018C70.337 83.1594 70.5147 82.4283 70.5147 81.6083C70.5147 80.7883 70.337 80.0639 69.9817 79.4353C69.64 78.7929 69.1617 78.2941 68.5467 77.9388C67.9317 77.5834 67.2484 77.4058 66.4967 77.4058C65.7314 77.4058 65.0412 77.5834 64.4262 77.9388C63.8249 78.2941 63.3465 78.7929 62.9912 79.4353C62.6495 80.0639 62.4787 80.7883 62.4787 81.6083C62.4787 82.4283 62.6495 83.1594 62.9912 83.8018C63.3465 84.4441 63.8249 84.9429 64.4262 85.2983C65.0412 85.6399 65.7314 85.8108 66.4967 85.8108Z" fill="black"/>
<path d="M78.7479 76.1348C80.1555 76.1348 81.2352 76.4901 81.9869 77.2008C82.7385 77.8978 83.1144 78.9364 83.1144 80.3168V86.9998H81.7203V85.3188C81.3923 85.8791 80.9072 86.3164 80.2649 86.6308C79.6362 86.9451 78.8845 87.1023 78.0098 87.1023C76.8072 87.1023 75.8505 86.8153 75.1399 86.2413C74.4292 85.6673 74.0738 84.9088 74.0738 83.9658C74.0738 83.0501 74.4019 82.3121 75.0579 81.7518C75.7275 81.1914 76.7867 80.9113 78.2353 80.9113H81.6589V80.2553C81.6589 79.3259 81.3992 78.6221 80.8798 78.1438C80.3605 77.6518 79.602 77.4058 78.6043 77.4058C77.921 77.4058 77.265 77.5219 76.6363 77.7543C76.0077 77.9729 75.4679 78.2804 75.0169 78.6768L74.3608 77.5903C74.9075 77.1256 75.5635 76.7703 76.3288 76.5243C77.0942 76.2646 77.9005 76.1348 78.7479 76.1348ZM78.2353 85.9543C79.0553 85.9543 79.7592 85.7698 80.3469 85.4008C80.9345 85.0181 81.3719 84.4714 81.6589 83.7608V81.9978H78.2763C76.4313 81.9978 75.5089 82.6401 75.5089 83.9248C75.5089 84.5534 75.748 85.0523 76.2264 85.4213C76.7047 85.7766 77.3743 85.9543 78.2353 85.9543Z" fill="black"/>
<path d="M86.989 76.2168H88.4445V80.9933H95.23V76.2168H96.6855V86.9998H95.23V82.2438H88.4445V86.9998H86.989V76.2168Z" fill="black"/>
<path d="M116.704 85.7288V89.6033H115.331V86.9998H105.675V89.6033H104.302V85.7288H104.917C105.641 85.6878 106.133 85.1548 106.393 84.1298C106.652 83.1048 106.83 81.6698 106.926 79.8248L107.069 76.2168H115.023V85.7288H116.704ZM108.258 79.9068C108.19 81.4374 108.06 82.7016 107.869 83.6993C107.677 84.6833 107.336 85.3598 106.844 85.7288H113.568V77.5083H108.381L108.258 79.9068Z" fill="black"/>
<path d="M128.356 76.2168V86.9998H126.9V77.5083H121.734L121.591 80.1733C121.481 82.4146 121.222 84.1366 120.812 85.3393C120.402 86.5419 119.671 87.1433 118.618 87.1433C118.331 87.1433 117.983 87.0886 117.573 86.9793L117.675 85.7288C117.921 85.7834 118.092 85.8108 118.188 85.8108C118.748 85.8108 119.172 85.5511 119.459 85.0318C119.746 84.5124 119.937 83.8701 120.033 83.1048C120.128 82.3394 120.21 81.3281 120.279 80.0708L120.463 76.2168H128.356Z" fill="black"/>
<path d="M140.775 76.2168V86.9998H139.443V83.4328H136.06H135.65L133.149 86.9998H131.571L134.256 83.2278C133.423 82.9954 132.78 82.5991 132.329 82.0388C131.878 81.4784 131.653 80.7678 131.653 79.9068C131.653 78.7041 132.063 77.7884 132.883 77.1598C133.703 76.5311 134.824 76.2168 136.245 76.2168H140.775ZM133.129 79.9478C133.129 81.5468 134.147 82.3463 136.183 82.3463H139.443V77.5083H136.286C134.181 77.5083 133.129 78.3214 133.129 79.9478Z" fill="black"/>
<path d="M157.917 77.5083H151.746V86.9998H150.291V76.2168H157.917V77.5083Z" fill="black"/>
<path d="M165.576 76.1348C166.587 76.1348 167.503 76.3671 168.323 76.8318C169.143 77.2828 169.785 77.9251 170.25 78.7588C170.714 79.5924 170.947 80.5423 170.947 81.6083C170.947 82.6879 170.714 83.6446 170.25 84.4783C169.785 85.3119 169.143 85.9611 168.323 86.4258C167.516 86.8768 166.601 87.1023 165.576 87.1023C164.701 87.1023 163.908 86.9246 163.198 86.5693C162.501 86.2003 161.927 85.6673 161.476 84.9703V90.9768H160.02V76.2168H161.414V78.3488C161.852 77.6381 162.426 77.0914 163.136 76.7088C163.861 76.3261 164.674 76.1348 165.576 76.1348ZM165.473 85.8108C166.225 85.8108 166.908 85.6399 167.523 85.2983C168.138 84.9429 168.617 84.4441 168.958 83.8018C169.314 83.1594 169.491 82.4283 169.491 81.6083C169.491 80.7883 169.314 80.0639 168.958 79.4353C168.617 78.7929 168.138 78.2941 167.523 77.9388C166.908 77.5834 166.225 77.4058 165.473 77.4058C164.708 77.4058 164.018 77.5834 163.403 77.9388C162.801 78.2941 162.323 78.7929 161.968 79.4353C161.626 80.0639 161.455 80.7883 161.455 81.6083C161.455 82.4283 161.626 83.1594 161.968 83.8018C162.323 84.4441 162.801 84.9429 163.403 85.2983C164.018 85.6399 164.708 85.8108 165.473 85.8108Z" fill="black"/>
<path d="M182.937 76.2168L177.546 88.2913C177.108 89.3026 176.603 90.0201 176.029 90.4438C175.455 90.8674 174.765 91.0793 173.958 91.0793C173.439 91.0793 172.954 90.9973 172.503 90.8333C172.052 90.6693 171.662 90.4233 171.334 90.0953L172.011 89.0088C172.557 89.5554 173.213 89.8288 173.979 89.8288C174.471 89.8288 174.888 89.6921 175.229 89.4188C175.585 89.1454 175.912 88.6808 176.213 88.0248L176.685 86.9793L171.867 76.2168H173.384L177.443 85.3803L181.502 76.2168H182.937Z" fill="black"/>
<path d="M189.415 87.1023C188.349 87.1023 187.392 86.8699 186.545 86.4053C185.711 85.9406 185.055 85.2914 184.577 84.4578C184.098 83.6104 183.859 82.6606 183.859 81.6083C183.859 80.5559 184.098 79.6129 184.577 78.7793C185.055 77.9456 185.711 77.2964 186.545 76.8318C187.392 76.3671 188.349 76.1348 189.415 76.1348C190.344 76.1348 191.171 76.3193 191.895 76.6883C192.633 77.0436 193.214 77.5698 193.638 78.2668L192.551 79.0048C192.196 78.4718 191.745 78.0754 191.198 77.8158C190.651 77.5424 190.057 77.4058 189.415 77.4058C188.636 77.4058 187.932 77.5834 187.303 77.9388C186.688 78.2804 186.203 78.7724 185.848 79.4148C185.506 80.0571 185.335 80.7883 185.335 81.6083C185.335 82.4419 185.506 83.1799 185.848 83.8223C186.203 84.4509 186.688 84.9429 187.303 85.2983C187.932 85.6399 188.636 85.8108 189.415 85.8108C190.057 85.8108 190.651 85.6809 191.198 85.4213C191.745 85.1616 192.196 84.7653 192.551 84.2323L193.638 84.9703C193.214 85.6673 192.633 86.2003 191.895 86.5693C191.157 86.9246 190.33 87.1023 189.415 87.1023Z" fill="black"/>
<path d="M203.841 77.5083H199.761V86.9998H198.306V77.5083H194.226V76.2168H203.841V77.5083Z" fill="black"/>
<path d="M205.945 76.2168H207.401V80.9933H214.186V76.2168H215.642V86.9998H214.186V82.2438H207.401V86.9998H205.945V76.2168Z" fill="black"/>
<path d="M224.309 80.0298C225.662 80.0434 226.694 80.3441 227.405 80.9318C228.115 81.5194 228.471 82.3668 228.471 83.4738C228.471 84.6218 228.088 85.5033 227.323 86.1183C226.557 86.7333 225.464 87.0339 224.043 87.0203L219.779 86.9998V76.2168H221.234V79.9888L224.309 80.0298ZM230.275 76.2168H231.73V86.9998H230.275V76.2168ZM223.961 85.9133C224.958 85.9269 225.71 85.7288 226.216 85.3188C226.735 84.8951 226.995 84.2801 226.995 83.4738C226.995 82.6811 226.742 82.0934 226.236 81.7108C225.73 81.3281 224.972 81.1299 223.961 81.1163L221.234 81.0753V85.8723L223.961 85.9133Z" fill="black"/>
<path d="M242.619 86.9998L239.195 82.4898L235.751 86.9998H234.111L238.375 81.4648L234.316 76.2168H235.956L239.195 80.4398L242.434 76.2168H244.033L239.974 81.4648L244.279 86.9998H242.619Z" fill="black"/>
<path d="M255.946 82.2028H253.486V86.9998H252.03V76.2168H253.486V80.9523H255.966L259.759 76.2168H261.337L257.094 81.4443L261.645 86.9998H259.923L255.946 82.2028Z" fill="black"/>
<path d="M272.757 76.2168V86.9998H271.301V77.5083H266.135L265.992 80.1733C265.882 82.4146 265.623 84.1366 265.213 85.3393C264.803 86.5419 264.071 87.1433 263.019 87.1433C262.732 87.1433 262.384 87.0886 261.974 86.9793L262.076 85.7288C262.322 85.7834 262.493 85.8108 262.589 85.8108C263.149 85.8108 263.573 85.5511 263.86 85.0318C264.147 84.5124 264.338 83.8701 264.434 83.1048C264.529 82.3394 264.611 81.3281 264.68 80.0708L264.864 76.2168H272.757Z" fill="black"/>
<path d="M281.343 87.1023C280.304 87.1023 279.368 86.8699 278.534 86.4053C277.701 85.9269 277.045 85.2709 276.566 84.4373C276.088 83.6036 275.849 82.6606 275.849 81.6083C275.849 80.5559 276.088 79.6129 276.566 78.7793C277.045 77.9456 277.701 77.2964 278.534 76.8318C279.368 76.3671 280.304 76.1348 281.343 76.1348C282.381 76.1348 283.318 76.3671 284.151 76.8318C284.985 77.2964 285.634 77.9456 286.099 78.7793C286.577 79.6129 286.816 80.5559 286.816 81.6083C286.816 82.6606 286.577 83.6036 286.099 84.4373C285.634 85.2709 284.985 85.9269 284.151 86.4053C283.318 86.8699 282.381 87.1023 281.343 87.1023ZM281.343 85.8108C282.108 85.8108 282.791 85.6399 283.393 85.2983C284.008 84.9429 284.486 84.4441 284.828 83.8018C285.169 83.1594 285.34 82.4283 285.34 81.6083C285.34 80.7883 285.169 80.0571 284.828 79.4148C284.486 78.7724 284.008 78.2804 283.393 77.9388C282.791 77.5834 282.108 77.4058 281.343 77.4058C280.577 77.4058 279.887 77.5834 279.272 77.9388C278.671 78.2804 278.193 78.7724 277.837 79.4148C277.496 80.0571 277.325 80.7883 277.325 81.6083C277.325 82.4283 277.496 83.1594 277.837 83.8018C278.193 84.4441 278.671 84.9429 279.272 85.2983C279.887 85.6399 280.577 85.8108 281.343 85.8108Z" fill="black"/>
<path d="M298.79 76.2168L293.399 88.2913C292.961 89.3026 292.456 90.0201 291.882 90.4438C291.308 90.8674 290.618 91.0793 289.811 91.0793C289.292 91.0793 288.807 90.9973 288.356 90.8333C287.905 90.6693 287.515 90.4233 287.187 90.0953L287.864 89.0088C288.41 89.5554 289.066 89.8288 289.832 89.8288C290.324 89.8288 290.741 89.6921 291.082 89.4188C291.438 89.1454 291.766 88.6808 292.066 88.0248L292.538 86.9793L287.72 76.2168H289.237L293.296 85.3803L297.355 76.2168H298.79Z" fill="black"/>
<path d="M301.058 76.2168H302.513V80.9933H309.299V76.2168H310.754V86.9998H309.299V82.2438H302.513V86.9998H301.058V76.2168Z" fill="black"/>
<path d="M319.34 87.1023C318.301 87.1023 317.365 86.8699 316.531 86.4053C315.698 85.9269 315.042 85.2709 314.563 84.4373C314.085 83.6036 313.846 82.6606 313.846 81.6083C313.846 80.5559 314.085 79.6129 314.563 78.7793C315.042 77.9456 315.698 77.2964 316.531 76.8318C317.365 76.3671 318.301 76.1348 319.34 76.1348C320.379 76.1348 321.315 76.3671 322.148 76.8318C322.982 77.2964 323.631 77.9456 324.096 78.7793C324.574 79.6129 324.813 80.5559 324.813 81.6083C324.813 82.6606 324.574 83.6036 324.096 84.4373C323.631 85.2709 322.982 85.9269 322.148 86.4053C321.315 86.8699 320.379 87.1023 319.34 87.1023ZM319.34 85.8108C320.105 85.8108 320.789 85.6399 321.39 85.2983C322.005 84.9429 322.483 84.4441 322.825 83.8018C323.167 83.1594 323.337 82.4283 323.337 81.6083C323.337 80.7883 323.167 80.0571 322.825 79.4148C322.483 78.7724 322.005 78.2804 321.39 77.9388C320.789 77.5834 320.105 77.4058 319.34 77.4058C318.575 77.4058 317.884 77.5834 317.269 77.9388C316.668 78.2804 316.19 78.7724 315.834 79.4148C315.493 80.0571 315.322 80.7883 315.322 81.6083C315.322 82.4283 315.493 83.1594 315.834 83.8018C316.19 84.4441 316.668 84.9429 317.269 85.2983C317.884 85.6399 318.575 85.8108 319.34 85.8108Z" fill="black"/>
<path d="M334.792 81.4238C336.254 81.7654 336.985 82.6469 336.985 84.0683C336.985 85.0113 336.637 85.7356 335.94 86.2413C335.243 86.7469 334.204 86.9998 332.824 86.9998H327.924V76.2168H332.68C333.91 76.2168 334.874 76.4559 335.571 76.9343C336.268 77.4126 336.616 78.0959 336.616 78.9843C336.616 79.5719 336.452 80.0776 336.124 80.5013C335.81 80.9113 335.366 81.2188 334.792 81.4238ZM329.339 81.0138H332.578C333.411 81.0138 334.047 80.8566 334.484 80.5423C334.935 80.2279 335.161 79.7701 335.161 79.1688C335.161 78.5674 334.935 78.1164 334.484 77.8158C334.047 77.5151 333.411 77.3648 332.578 77.3648H329.339V81.0138ZM332.762 85.8518C333.691 85.8518 334.388 85.7014 334.853 85.4008C335.318 85.1001 335.55 84.6286 335.55 83.9863C335.55 83.3439 335.338 82.8724 334.915 82.5718C334.491 82.2574 333.821 82.1003 332.906 82.1003H329.339V85.8518H332.762Z" fill="black"/>
<path d="M227.79 38.8665C227.79 38.9315 227.79 38.9961 227.79 39.061C227.725 47.6019 217.992 52.4874 210.856 47.7184C199.993 40.4587 184.805 35.9499 167.995 35.9499C151.181 35.9499 135.991 40.4587 125.128 47.7184C117.991 52.4874 108.258 47.6035 108.194 39.061C108.194 38.9965 108.194 38.9316 108.194 38.8665C108.192 17.4025 134.965 0 167.994 0C201.016 0 227.79 17.4025 227.79 38.8665Z" fill="#A22A2F"/>
<path d="M109.327 42.0781L112.882 46.6109L107.22 60.0003L95.7117 44.9796L109.327 42.0781Z" fill="#A22A2F"/>
<path d="M226.672 42.0781L223.117 46.6109L228.779 60.0003L240.289 44.9796L226.672 42.0781Z" fill="#A22A2F"/>
</svg>
