<svg width="590" height="107" viewBox="0 0 590 107" fill="none" xmlns="http://www.w3.org/2000/svg">
<g clip-path="url(#clip0)">
<path d="M5.70261 89.6062C6.71395 89.6062 7.62961 89.8385 8.44962 90.3032C9.26962 90.7542 9.91195 91.3965 10.3766 92.2302C10.8413 93.0639 11.0736 94.0137 11.0736 95.0797C11.0736 96.1594 10.8413 97.116 10.3766 97.9497C9.91195 98.7834 9.26962 99.4325 8.44962 99.8972C7.64328 100.348 6.72761 100.574 5.70261 100.574C4.82795 100.574 4.03528 100.396 3.32461 100.041C2.62761 99.6717 2.05361 99.1387 1.60261 98.4417V104.448H0.147114V89.6882H1.54111V91.8202C1.97845 91.1095 2.55245 90.5629 3.26311 90.1802C3.98745 89.7975 4.80061 89.6062 5.70261 89.6062ZM5.60011 99.2822C6.35178 99.2822 7.03511 99.1114 7.65011 98.7697C8.26511 98.4144 8.74345 97.9155 9.08511 97.2732C9.44045 96.6309 9.61811 95.8997 9.61811 95.0797C9.61811 94.2597 9.44045 93.5354 9.08511 92.9067C8.74345 92.2644 8.26511 91.7655 7.65011 91.4102C7.03511 91.0549 6.35178 90.8772 5.60011 90.8772C4.83478 90.8772 4.14461 91.0549 3.52961 91.4102C2.92828 91.7655 2.44995 92.2644 2.09461 92.9067C1.75295 93.5354 1.58211 94.2597 1.58211 95.0797C1.58211 95.8997 1.75295 96.6309 2.09461 97.2732C2.44995 97.9155 2.92828 98.4144 3.52961 98.7697C4.14461 99.1114 4.83478 99.2822 5.60011 99.2822ZM23.6308 95.5307H14.6108C14.6928 96.6514 15.1233 97.5602 15.9023 98.2572C16.6813 98.9405 17.6653 99.2822 18.8543 99.2822C19.524 99.2822 20.139 99.166 20.6993 98.9337C21.2597 98.6877 21.7448 98.3324 22.1548 97.8677L22.9748 98.8107C22.4965 99.3847 21.8952 99.822 21.1708 100.123C20.4602 100.423 19.6743 100.574 18.8133 100.574C17.7063 100.574 16.7223 100.341 15.8613 99.8767C15.014 99.3984 14.3512 98.7424 13.8728 97.9087C13.3945 97.075 13.1553 96.132 13.1553 95.0797C13.1553 94.0274 13.3808 93.0844 13.8318 92.2507C14.2965 91.417 14.9252 90.7679 15.7178 90.3032C16.5242 89.8385 17.4262 89.6062 18.4238 89.6062C19.4215 89.6062 20.3167 89.8385 21.1093 90.3032C21.902 90.7679 22.5238 91.417 22.9748 92.2507C23.4258 93.0707 23.6513 94.0137 23.6513 95.0797L23.6308 95.5307ZM18.4238 90.8567C17.3852 90.8567 16.5105 91.1915 15.7998 91.8612C15.1028 92.5172 14.7065 93.3782 14.6108 94.4442H22.2573C22.1617 93.3782 21.7585 92.5172 21.0478 91.8612C20.3508 91.1915 19.4762 90.8567 18.4238 90.8567ZM31.3832 100.574C30.3172 100.574 29.3605 100.341 28.5132 99.8767C27.6795 99.412 27.0235 98.7629 26.5452 97.9292C26.0669 97.0819 25.8277 96.132 25.8277 95.0797C25.8277 94.0274 26.0669 93.0844 26.5452 92.2507C27.0235 91.417 27.6795 90.7679 28.5132 90.3032C29.3605 89.8385 30.3172 89.6062 31.3832 89.6062C32.3125 89.6062 33.1394 89.7907 33.8637 90.1597C34.6017 90.515 35.1825 91.0412 35.6062 91.7382L34.5197 92.4762C34.1644 91.9432 33.7134 91.5469 33.1667 91.2872C32.62 91.0139 32.0255 90.8772 31.3832 90.8772C30.6042 90.8772 29.9004 91.0549 29.2717 91.4102C28.6567 91.7519 28.1715 92.2439 27.8162 92.8862C27.4745 93.5285 27.3037 94.2597 27.3037 95.0797C27.3037 95.9134 27.4745 96.6514 27.8162 97.2937C28.1715 97.9224 28.6567 98.4144 29.2717 98.7697C29.9004 99.1114 30.6042 99.2822 31.3832 99.2822C32.0255 99.2822 32.62 99.1524 33.1667 98.8927C33.7134 98.633 34.1644 98.2367 34.5197 97.7037L35.6062 98.4417C35.1825 99.1387 34.6017 99.6717 33.8637 100.041C33.1257 100.396 32.2989 100.574 31.3832 100.574ZM45.8093 90.9797H41.7298V100.471H40.2743V90.9797H36.1948V89.6882H45.8093V90.9797ZM51.8617 100.574C50.8231 100.574 49.8869 100.341 49.0532 99.8767C48.2196 99.3984 47.5636 98.7424 47.0852 97.9087C46.6069 97.075 46.3677 96.132 46.3677 95.0797C46.3677 94.0274 46.6069 93.0844 47.0852 92.2507C47.5636 91.417 48.2196 90.7679 49.0532 90.3032C49.8869 89.8385 50.8231 89.6062 51.8617 89.6062C52.9004 89.6062 53.8366 89.8385 54.6702 90.3032C55.5039 90.7679 56.1531 91.417 56.6177 92.2507C57.0961 93.0844 57.3352 94.0274 57.3352 95.0797C57.3352 96.132 57.0961 97.075 56.6177 97.9087C56.1531 98.7424 55.5039 99.3984 54.6702 99.8767C53.8366 100.341 52.9004 100.574 51.8617 100.574ZM51.8617 99.2822C52.6271 99.2822 53.3104 99.1114 53.9117 98.7697C54.5267 98.4144 55.0051 97.9155 55.3467 97.2732C55.6884 96.6309 55.8592 95.8997 55.8592 95.0797C55.8592 94.2597 55.6884 93.5285 55.3467 92.8862C55.0051 92.2439 54.5267 91.7519 53.9117 91.4102C53.3104 91.0549 52.6271 90.8772 51.8617 90.8772C51.0964 90.8772 50.4062 91.0549 49.7912 91.4102C49.1899 91.7519 48.7116 92.2439 48.3562 92.8862C48.0146 93.5285 47.8437 94.2597 47.8437 95.0797C47.8437 95.8997 48.0146 96.6309 48.3562 97.2732C48.7116 97.9155 49.1899 98.4144 49.7912 98.7697C50.4062 99.1114 51.0964 99.2822 51.8617 99.2822ZM66.0014 89.6062C67.0128 89.6062 67.9284 89.8385 68.7484 90.3032C69.5684 90.7542 70.2108 91.3965 70.6754 92.2302C71.1401 93.0639 71.3724 94.0137 71.3724 95.0797C71.3724 96.1594 71.1401 97.116 70.6754 97.9497C70.2108 98.7834 69.5684 99.4325 68.7484 99.8972C67.9421 100.348 67.0264 100.574 66.0014 100.574C65.1268 100.574 64.3341 100.396 63.6234 100.041C62.9264 99.6717 62.3524 99.1387 61.9014 98.4417V104.448H60.4459V89.6882H61.8399V91.8202C62.2773 91.1095 62.8513 90.5629 63.5619 90.1802C64.2863 89.7975 65.0994 89.6062 66.0014 89.6062ZM65.8989 99.2822C66.6506 99.2822 67.3339 99.1114 67.9489 98.7697C68.5639 98.4144 69.0423 97.9155 69.3839 97.2732C69.7393 96.6309 69.9169 95.8997 69.9169 95.0797C69.9169 94.2597 69.7393 93.5354 69.3839 92.9067C69.0423 92.2644 68.5639 91.7655 67.9489 91.4102C67.3339 91.0549 66.6506 90.8772 65.8989 90.8772C65.1336 90.8772 64.4434 91.0549 63.8284 91.4102C63.2271 91.7655 62.7488 92.2644 62.3934 92.9067C62.0518 93.5354 61.8809 94.2597 61.8809 95.0797C61.8809 95.8997 62.0518 96.6309 62.3934 97.2732C62.7488 97.9155 63.2271 98.4144 63.8284 98.7697C64.4434 99.1114 65.1336 99.2822 65.8989 99.2822ZM78.1501 89.6062C79.5578 89.6062 80.6374 89.9615 81.3891 90.6722C82.1408 91.3692 82.5166 92.4079 82.5166 93.7882V100.471H81.1226V98.7902C80.7946 99.3505 80.3094 99.7879 79.6671 100.102C79.0384 100.417 78.2868 100.574 77.4121 100.574C76.2094 100.574 75.2528 100.287 74.5421 99.7127C73.8314 99.1387 73.4761 98.3802 73.4761 97.4372C73.4761 96.5215 73.8041 95.7835 74.4601 95.2232C75.1298 94.6629 76.1889 94.3827 77.6376 94.3827H81.0611V93.7267C81.0611 92.7974 80.8014 92.0935 80.2821 91.6152C79.7628 91.1232 79.0043 90.8772 78.0066 90.8772C77.3233 90.8772 76.6673 90.9934 76.0386 91.2257C75.4099 91.4444 74.8701 91.7519 74.4191 92.1482L73.7631 91.0617C74.3098 90.597 74.9658 90.2417 75.7311 89.9957C76.4964 89.736 77.3028 89.6062 78.1501 89.6062ZM77.6376 99.4257C78.4576 99.4257 79.1614 99.2412 79.7491 98.8722C80.3368 98.4895 80.7741 97.9429 81.0611 97.2322V95.4692H77.6786C75.8336 95.4692 74.9111 96.1115 74.9111 97.3962C74.9111 98.0249 75.1503 98.5237 75.6286 98.8927C76.1069 99.248 76.7766 99.4257 77.6376 99.4257ZM86.3913 89.6882H87.8468V94.4647H94.6323V89.6882H96.0878V100.471H94.6323V95.7152H87.8468V100.471H86.3913V89.6882ZM116.106 99.2002V103.075H114.733V100.471H105.077V103.075H103.704V99.2002H104.319C105.043 99.1592 105.535 98.6262 105.795 97.6012C106.055 96.5762 106.232 95.1412 106.328 93.2962L106.471 89.6882H114.425V99.2002H116.106ZM107.66 93.3782C107.592 94.9089 107.462 96.173 107.271 97.1707C107.08 98.1547 106.738 98.8312 106.246 99.2002H112.97V90.9797H107.783L107.66 93.3782ZM127.758 89.6882V100.471H126.303V90.9797H121.137L120.993 93.6447C120.884 95.886 120.624 97.608 120.214 98.8107C119.804 100.013 119.073 100.615 118.021 100.615C117.734 100.615 117.385 100.56 116.975 100.451L117.078 99.2002C117.324 99.2549 117.494 99.2822 117.59 99.2822C118.15 99.2822 118.574 99.0225 118.861 98.5032C119.148 97.9839 119.339 97.3415 119.435 96.5762C119.531 95.8109 119.613 94.7995 119.681 93.5422L119.866 89.6882H127.758ZM140.178 89.6882V100.471H138.845V96.9042H135.463H135.053L132.552 100.471H130.973L133.659 96.6992C132.825 96.4669 132.183 96.0705 131.732 95.5102C131.281 94.9499 131.055 94.2392 131.055 93.3782C131.055 92.1755 131.465 91.2599 132.285 90.6312C133.105 90.0025 134.226 89.6882 135.647 89.6882H140.178ZM132.531 93.4192C132.531 95.0182 133.549 95.8177 135.586 95.8177H138.845V90.9797H135.688C133.583 90.9797 132.531 91.7929 132.531 93.4192ZM157.319 90.9797H151.149V100.471H149.693V89.6882H157.319V90.9797ZM164.978 89.6062C165.989 89.6062 166.905 89.8385 167.725 90.3032C168.545 90.7542 169.187 91.3965 169.652 92.2302C170.117 93.0639 170.349 94.0137 170.349 95.0797C170.349 96.1594 170.117 97.116 169.652 97.9497C169.187 98.7834 168.545 99.4325 167.725 99.8972C166.919 100.348 166.003 100.574 164.978 100.574C164.103 100.574 163.311 100.396 162.6 100.041C161.903 99.6717 161.329 99.1387 160.878 98.4417V104.448H159.423V89.6882H160.817V91.8202C161.254 91.1095 161.828 90.5629 162.539 90.1802C163.263 89.7975 164.076 89.6062 164.978 89.6062ZM164.876 99.2822C165.627 99.2822 166.311 99.1114 166.926 98.7697C167.541 98.4144 168.019 97.9155 168.361 97.2732C168.716 96.6309 168.894 95.8997 168.894 95.0797C168.894 94.2597 168.716 93.5354 168.361 92.9067C168.019 92.2644 167.541 91.7655 166.926 91.4102C166.311 91.0549 165.627 90.8772 164.876 90.8772C164.11 90.8772 163.42 91.0549 162.805 91.4102C162.204 91.7655 161.725 92.2644 161.37 92.9067C161.028 93.5354 160.858 94.2597 160.858 95.0797C160.858 95.8997 161.028 96.6309 161.37 97.2732C161.725 97.9155 162.204 98.4144 162.805 98.7697C163.42 99.1114 164.11 99.2822 164.876 99.2822ZM182.339 89.6882L176.948 101.763C176.511 102.774 176.005 103.492 175.431 103.915C174.857 104.339 174.167 104.551 173.36 104.551C172.841 104.551 172.356 104.469 171.905 104.305C171.454 104.141 171.064 103.895 170.736 103.567L171.413 102.48C171.96 103.027 172.616 103.3 173.381 103.3C173.873 103.3 174.29 103.164 174.631 102.89C174.987 102.617 175.315 102.152 175.615 101.496L176.087 100.451L171.269 89.6882H172.786L176.845 98.8517L180.904 89.6882H182.339ZM188.817 100.574C187.751 100.574 186.794 100.341 185.947 99.8767C185.113 99.412 184.457 98.7629 183.979 97.9292C183.5 97.0819 183.261 96.132 183.261 95.0797C183.261 94.0274 183.5 93.0844 183.979 92.2507C184.457 91.417 185.113 90.7679 185.947 90.3032C186.794 89.8385 187.751 89.6062 188.817 89.6062C189.746 89.6062 190.573 89.7907 191.297 90.1597C192.035 90.515 192.616 91.0412 193.04 91.7382L191.953 92.4762C191.598 91.9432 191.147 91.5469 190.6 91.2872C190.054 91.0139 189.459 90.8772 188.817 90.8772C188.038 90.8772 187.334 91.0549 186.705 91.4102C186.09 91.7519 185.605 92.2439 185.25 92.8862C184.908 93.5285 184.737 94.2597 184.737 95.0797C184.737 95.9134 184.908 96.6514 185.25 97.2937C185.605 97.9224 186.09 98.4144 186.705 98.7697C187.334 99.1114 188.038 99.2822 188.817 99.2822C189.459 99.2822 190.054 99.1524 190.6 98.8927C191.147 98.633 191.598 98.2367 191.953 97.7037L193.04 98.4417C192.616 99.1387 192.035 99.6717 191.297 100.041C190.559 100.396 189.732 100.574 188.817 100.574ZM203.243 90.9797H199.163V100.471H197.708V90.9797H193.628V89.6882H203.243V90.9797ZM205.347 89.6882H206.803V94.4647H213.588V89.6882H215.044V100.471H213.588V95.7152H206.803V100.471H205.347V89.6882ZM223.711 93.5012C225.064 93.5149 226.096 93.8155 226.807 94.4032C227.517 94.9909 227.873 95.8382 227.873 96.9452C227.873 98.0932 227.49 98.9747 226.725 99.5897C225.959 100.205 224.866 100.505 223.445 100.492L219.181 100.471V89.6882H220.636V93.4602L223.711 93.5012ZM229.677 89.6882H231.132V100.471H229.677V89.6882ZM223.363 99.3847C224.36 99.3984 225.112 99.2002 225.618 98.7902C226.137 98.3665 226.397 97.7515 226.397 96.9452C226.397 96.1525 226.144 95.5649 225.638 95.1822C225.133 94.7995 224.374 94.6014 223.363 94.5877L220.636 94.5467V99.3437L223.363 99.3847ZM242.021 100.471L238.598 95.9612L235.154 100.471H233.514L237.778 94.9362L233.719 89.6882H235.359L238.598 93.9112L241.837 89.6882H243.436L239.377 94.9362L243.682 100.471H242.021ZM255.348 95.6742H252.888V100.471H251.432V89.6882H252.888V94.4237H255.368L259.161 89.6882H260.739L256.496 94.9157L261.047 100.471H259.325L255.348 95.6742ZM272.159 89.6882V100.471H270.703V90.9797H265.537L265.394 93.6447C265.285 95.886 265.025 97.608 264.615 98.8107C264.205 100.013 263.474 100.615 262.421 100.615C262.134 100.615 261.786 100.56 261.376 100.451L261.478 99.2002C261.724 99.2549 261.895 99.2822 261.991 99.2822C262.551 99.2822 262.975 99.0225 263.262 98.5032C263.549 97.9839 263.74 97.3415 263.836 96.5762C263.932 95.8109 264.014 94.7995 264.082 93.5422L264.266 89.6882H272.159ZM280.745 100.574C279.706 100.574 278.77 100.341 277.937 99.8767C277.103 99.3984 276.447 98.7424 275.969 97.9087C275.49 97.075 275.251 96.132 275.251 95.0797C275.251 94.0274 275.49 93.0844 275.969 92.2507C276.447 91.417 277.103 90.7679 277.937 90.3032C278.77 89.8385 279.706 89.6062 280.745 89.6062C281.784 89.6062 282.72 89.8385 283.554 90.3032C284.387 90.7679 285.036 91.417 285.501 92.2507C285.979 93.0844 286.219 94.0274 286.219 95.0797C286.219 96.132 285.979 97.075 285.501 97.9087C285.036 98.7424 284.387 99.3984 283.554 99.8767C282.72 100.341 281.784 100.574 280.745 100.574ZM280.745 99.2822C281.51 99.2822 282.194 99.1114 282.795 98.7697C283.41 98.4144 283.888 97.9155 284.23 97.2732C284.572 96.6309 284.743 95.8997 284.743 95.0797C284.743 94.2597 284.572 93.5285 284.23 92.8862C283.888 92.2439 283.41 91.7519 282.795 91.4102C282.194 91.0549 281.51 90.8772 280.745 90.8772C279.98 90.8772 279.29 91.0549 278.675 91.4102C278.073 91.7519 277.595 92.2439 277.24 92.8862C276.898 93.5285 276.727 94.2597 276.727 95.0797C276.727 95.8997 276.898 96.6309 277.24 97.2732C277.595 97.9155 278.073 98.4144 278.675 98.7697C279.29 99.1114 279.98 99.2822 280.745 99.2822ZM298.192 89.6882L292.801 101.763C292.364 102.774 291.858 103.492 291.284 103.915C290.71 104.339 290.02 104.551 289.213 104.551C288.694 104.551 288.209 104.469 287.758 104.305C287.307 104.141 286.917 103.895 286.589 103.567L287.266 102.48C287.813 103.027 288.469 103.3 289.234 103.3C289.726 103.3 290.143 103.164 290.484 102.89C290.84 102.617 291.168 102.152 291.468 101.496L291.94 100.451L287.122 89.6882H288.639L292.698 98.8517L296.757 89.6882H298.192ZM300.46 89.6882H301.916V94.4647H308.701V89.6882H310.157V100.471H308.701V95.7152H301.916V100.471H300.46V89.6882ZM318.742 100.574C317.703 100.574 316.767 100.341 315.934 99.8767C315.1 99.3984 314.444 98.7424 313.966 97.9087C313.487 97.075 313.248 96.132 313.248 95.0797C313.248 94.0274 313.487 93.0844 313.966 92.2507C314.444 91.417 315.1 90.7679 315.934 90.3032C316.767 89.8385 317.703 89.6062 318.742 89.6062C319.781 89.6062 320.717 89.8385 321.551 90.3032C322.384 90.7679 323.033 91.417 323.498 92.2507C323.976 93.0844 324.216 94.0274 324.216 95.0797C324.216 96.132 323.976 97.075 323.498 97.9087C323.033 98.7424 322.384 99.3984 321.551 99.8767C320.717 100.341 319.781 100.574 318.742 100.574ZM318.742 99.2822C319.507 99.2822 320.191 99.1114 320.792 98.7697C321.407 98.4144 321.885 97.9155 322.227 97.2732C322.569 96.6309 322.74 95.8997 322.74 95.0797C322.74 94.2597 322.569 93.5285 322.227 92.8862C321.885 92.2439 321.407 91.7519 320.792 91.4102C320.191 91.0549 319.507 90.8772 318.742 90.8772C317.977 90.8772 317.287 91.0549 316.672 91.4102C316.07 91.7519 315.592 92.2439 315.237 92.8862C314.895 93.5285 314.724 94.2597 314.724 95.0797C314.724 95.8997 314.895 96.6309 315.237 97.2732C315.592 97.9155 316.07 98.4144 316.672 98.7697C317.287 99.1114 317.977 99.2822 318.742 99.2822ZM334.194 94.8952C335.656 95.2369 336.387 96.1184 336.387 97.5397C336.387 98.4827 336.039 99.207 335.342 99.7127C334.645 100.218 333.606 100.471 332.226 100.471H327.326V89.6882H332.082C333.312 89.6882 334.276 89.9274 334.973 90.4057C335.67 90.884 336.018 91.5674 336.018 92.4557C336.018 93.0434 335.854 93.549 335.526 93.9727C335.212 94.3827 334.768 94.6902 334.194 94.8952ZM328.741 94.4852H331.98C332.813 94.4852 333.449 94.328 333.886 94.0137C334.337 93.6994 334.563 93.2415 334.563 92.6402C334.563 92.0389 334.337 91.5879 333.886 91.2872C333.449 90.9865 332.813 90.8362 331.98 90.8362H328.741V94.4852ZM332.164 99.3232C333.094 99.3232 333.791 99.1729 334.255 98.8722C334.72 98.5715 334.952 98.1 334.952 97.4577C334.952 96.8154 334.74 96.3439 334.317 96.0432C333.893 95.7289 333.223 95.5717 332.308 95.5717H328.741V99.3232H332.164Z" fill="black"/>
<path d="M233.609 51.334C233.609 51.4063 233.609 51.4784 233.609 51.5508C233.538 61.0733 222.704 66.5204 214.761 61.2033C202.67 53.1091 185.765 48.0821 167.055 48.0821C148.339 48.0821 131.433 53.1091 119.341 61.2033C111.397 66.5204 100.564 61.0751 100.493 51.5508C100.493 51.4788 100.493 51.4065 100.493 51.334C100.49 27.4028 130.29 8 167.053 8C203.809 8 233.609 27.4028 233.609 51.334Z" fill="#A22A2F"/>
<path d="M101.753 54.9141L105.711 59.9678L99.4089 74.8962L86.599 58.149L101.753 54.9141Z" fill="#A22A2F"/>
<path d="M232.366 54.9141L228.408 59.9678L234.71 74.8962L247.521 58.149L232.366 54.9141Z" fill="#A22A2F"/>
</g>
<defs>
<clipPath id="clip0">
<rect width="590" height="107" fill="white"/>
</clipPath>
</defs>
</svg>
