<svg width="57" height="689" viewBox="0 0 57 689" fill="none" xmlns="http://www.w3.org/2000/svg">
<path d="M52.4741 0.52002C52.4741 34.8115 5.00005 34.8115 5.00005 69.3411C5.00005 103.633 52.4741 103.633 52.4741 138.162C52.4741 172.454 5.00005 172.454 5.00005 206.983C5.00005 241.275 52.4741 241.275 52.4741 275.804C52.4741 310.096 5.00006 310.096 5.00006 344.625C5.00006 379.155 52.4741 379.155 52.4741 413.446C52.4741 447.976 5.00006 447.976 5.00006 482.267C5.00006 516.797 52.4741 516.797 52.4741 551.088C52.4741 585.618 5.00006 585.618 5.00006 619.909C5.00006 654.439 52.4741 654.439 52.4741 688.73" stroke="black" stroke-width="9" stroke-miterlimit="10"/>
</svg>
